<?xml version="1.0" encoding="UTF-8"?>
<svg id="Capa_1" xmlns="http://www.w3.org/2000/svg" version="1.1" viewBox="0 0 165.2 129.9">
  <!-- Generator: Adobe Illustrator 29.0.0, SVG Export Plug-In . SVG Version: 2.1.0 Build 186)  -->
  <defs>
    <style>
      .st0 {
        fill: #fff;
      }

      .st1 {
        fill: #1e1e1c;
      }
    </style>
  </defs>
  <rect class="st1" x="21.7" y="3.4" width="124.3" height="124.3" rx="30.7" ry="30.7"/>
  <g>
    <path class="st0" d="M84.1,47.9h-.6l-4.3,15.7c-.8,3,1.4,6,4.6,6h0c3.1,0,5.4-3,4.6-6l-4.3-15.7Z"/>
    <path class="st0" d="M136.6,64.3l-8-2c-1-.3-1-1.7,0-1.9l8-2c1.2-.6,1.2-2.3,0-2.9l-48.2-23.5c-2.9-1.4-6.3-1.4-9.2,0l-48.2,23.5c-1.2.6-1.2,2.3,0,2.9l7.9,2c1,.3,1,1.7,0,1.9l-7.9,2c-1.2.6-1.2,2.3,0,2.9l7.4,1.8c1,.2,1,1.7,0,1.9l-7.4,1.8c-1.2.6-1.2,2.3,0,2.9l48.2,23.5c2.9,1.4,6.3,1.4,9.2,0l48.2-23.5c1.2-.6,1.2-2.3,0-2.9l-7.5-1.8c-1-.2-1-1.7,0-1.9l7.5-1.8c1.2-.6,1.2-2.3,0-2.9ZM106,86.4h-11.2c-.6,0-1.2-.4-1.4-1l-2-7.1c-.2-.6-.7-1-1.4-1h-12.3c-.6,0-1.2.4-1.4,1l-2,7.1c-.2.6-.7,1-1.4,1h-11.2c-1,0-1.6-.9-1.4-1.8l13.8-45.2c.2-.6.7-1,1.4-1h16.6c.6,0,1.2.4,1.4,1l13.8,45.2c.3.9-.4,1.8-1.4,1.8Z"/>
  </g>
</svg>