<?xml version="1.0" encoding="UTF-8"?>
<svg id="Capa_1" xmlns="http://www.w3.org/2000/svg" version="1.1" viewBox="0 0 124.6 126.3">
  <!-- Generator: Adobe Illustrator 29.0.0, SVG Export Plug-In . SVG Version: 2.1.0 Build 186)  -->
  <defs>
    <style>
      .st0 {
        fill: #fff;
      }
    </style>
  </defs>
  <path class="st0" d="M62.8,43.8h-.7l-4.9,17.8c-.9,3.4,1.6,6.8,5.2,6.8h0c3.5,0,6.1-3.4,5.2-6.8,0,0-4.9-17.8-4.9-17.8Z"/>
  <path class="st0" d="M122.3,62.4l-9.1-2.3c-1.1-.3-1.1-1.9,0-2.2l9.1-2.3c1.4-.7,1.4-2.6,0-3.3l-54.6-26.6c-3.3-1.6-7.1-1.6-10.4,0L2.6,52.4c-1.4.7-1.4,2.6,0,3.3l9,2.3c1.1.3,1.1,1.9,0,2.2l-9,2.3c-1.4.7-1.4,2.6,0,3.3l8.4,2c1.1.2,1.1,1.9,0,2.2l-8.4,2c-1.4.7-1.4,2.6,0,3.3l54.6,26.6c3.3,1.6,7.1,1.6,10.4,0l54.6-26.6c1.4-.7,1.4-2.6,0-3.3l-8.5-2c-1.1-.2-1.1-1.9,0-2.2l8.5-2c1.4-.7,1.4-2.6,0-3.3ZM87.6,87.4h-12.7c-.7,0-1.4-.5-1.6-1.1l-2.3-8.1c-.2-.7-.8-1.1-1.6-1.1h-13.9c-.7,0-1.4.5-1.6,1.1l-2.3,8.1c-.2.7-.8,1.1-1.6,1.1h-12.7c-1.1,0-1.8-1-1.6-2l15.6-51.2c.2-.7.8-1.1,1.6-1.1h18.8c.7,0,1.4.5,1.6,1.1l15.6,51.2c.3,1-.5,2-1.6,2h.1Z"/>
</svg>