<?xml version="1.0" encoding="UTF-8"?>
<svg id="Capa_1" xmlns="http://www.w3.org/2000/svg" version="1.1" viewBox="0 0 159.5 129.9">
  <!-- Generator: Adobe Illustrator 29.0.0, SVG Export Plug-In . SVG Version: 2.1.0 Build 186)  -->
  <defs>
    <style>
      .st0 {
        fill: #1e1e1c;
      }
    </style>
  </defs>
  <path class="st0" d="M141.4,65.5c0-1.5-.8-2.8-2.1-3.4l-2.8-1.4c-.7-.4-.7-1.4,0-1.7l2.8-1.4c1.3-.7,2.1-2,2.1-3.4,0-1.5-.8-2.8-2.1-3.4l-51.7-26.1h0c-3.7-1.9-8.1-1.9-11.7,0l-51.7,26.1c-1.3.7-2.1,2-2.1,3.4,0,1.5.8,2.8,2.1,3.4l2.8,1.4c.7.4.7,1.4,0,1.7l-2.8,1.4c-1.3.7-2.1,2-2.1,3.4,0,1.5.8,2.8,2.1,3.4l2.8,1.4c.7.4.7,1.4,0,1.7l-2.8,1.4c-1.3.7-2.1,2-2.1,3.4,0,1.5.8,2.8,2.1,3.4l51.7,26.1c1.8.9,3.9,1.4,5.9,1.4s4-.5,5.9-1.4l51.7-26.1c1.3-.7,2.1-2,2.1-3.4,0-1.5-.8-2.8-2.1-3.4l-2.8-1.4c-.7-.4-.7-1.4,0-1.7l2.8-1.4c1.3-.7,2.1-2,2.1-3.4ZM28,54.9c-.7-.4-.7-1.4,0-1.7l49.7-25.1c2.6-1.3,5.5-1.3,8.1,0l49.7,25.1c.7.4.7,1.4,0,1.7l-4.7,2.4c-.3.1-.6.1-.9,0l-42.3-21.4h0c-3.7-1.9-8.1-1.9-11.7,0l-42.3,21.4c-.3.1-.6.1-.9,0l-4.7-2.4ZM85.1,80.4c-2.1,1.1-4.6,1.1-6.7,0l-27.8-14.1c-.7-.4-.7-1.4,0-1.7l27.8-14.1c2.1-1.1,4.6-1.1,6.7,0l27.8,14.1c.7.4.7,1.4,0,1.7l-27.8,14.1ZM119.5,67.9l4.7,2.4c.7.4.7,1.4,0,1.7l-38.4,19.4c-2.6,1.3-5.5,1.3-8.1,0l-38.4-19.4c-.7-.4-.7-1.4,0-1.7l4.7-2.4c.3-.1.6-.1.9,0l31,15.7c1.8.9,3.9,1.4,5.9,1.4s4-.5,5.9-1.4l31-15.7c.3-.1.6-.1.9,0ZM87.6,47.3h0c-3.7-1.9-8.1-1.9-11.7,0l-31,15.7c-.3.1-.6.1-.9,0l-4.7-2.4c-.7-.4-.7-1.4,0-1.7l38.4-19.4c2.6-1.3,5.5-1.3,8.1,0l38.4,19.4c.7.4.7,1.4,0,1.7l-4.7,2.4c-.3.1-.6.1-.9,0l-31-15.7ZM28,64.6l4.7-2.4c.3-.1.6-.1.9,0l4.7,2.4c.7.4.7,1.4,0,1.7l-4.7,2.4c-.3.1-.6.1-.9,0l-4.7-2.4c-.7-.4-.7-1.4,0-1.7ZM135.4,76c.7.4.7,1.4,0,1.7l-49.7,25.1c-2.6,1.3-5.5,1.3-8.1,0l-49.7-25.1c-.7-.4-.7-1.4,0-1.7l4.7-2.4c.3-.1.6-.1.9,0l42.3,21.4c1.8.9,3.9,1.4,5.9,1.4s4-.5,5.9-1.4l42.3-21.4c.3-.1.6-.1.9,0l4.7,2.4ZM129.9,68.7l-4.7-2.4c-.7-.4-.7-1.4,0-1.7l4.7-2.4c.3-.1.6-.1.9,0l4.7,2.4c.7.4.7,1.4,0,1.7l-4.7,2.4c-.3.1-.6.1-.9,0Z"/>
  <path class="st0" d="M102.2,64.9l-18.3-9.2c-1.4-.7-3-.7-4.4,0l-18.3,9.2c-.5.2-.5.9,0,1.1l18.3,9.2c1.4.7,3,.7,4.4,0l18.3-9.2c.5-.2.5-.9,0-1.1ZM81.8,71.4c-1.9,0-3.2-1.8-2.7-3.6l2.6-9.4h.3l2.6,9.4c.5,1.8-.9,3.6-2.7,3.6Z"/>
</svg>