<?xml version="1.0" encoding="UTF-8"?>
<svg id="Capa_1" xmlns="http://www.w3.org/2000/svg" version="1.1" viewBox="0 0 523.9 129.9">
  <!-- Generator: Adobe Illustrator 29.0.0, SVG Export Plug-In . SVG Version: 2.1.0 Build 186)  -->
  <defs>
    <style>
      .st0 {
        fill: #1e1e1c;
      }
    </style>
  </defs>
  <g>
    <path class="st0" d="M156.4,92.7l26-58.4c.7-1.6,2.3-2.6,4-2.6h19.6c2.1,0,4,1.5,4.3,3.6l9.6,58.4c.4,2.7-1.6,5.1-4.3,5.1h-10.8c-2.2,0-4-1.6-4.3-3.7l-.8-5.3c-.3-2.1-2.2-3.7-4.3-3.7h-13.5c-1.7,0-3.3,1-4,2.6l-3.3,7.5c-.7,1.6-2.3,2.6-4,2.6h-10.2c-3.2,0-5.3-3.2-4-6.1ZM191.4,69.6h1.3c2.6,0,4.7-2.3,4.3-4.9l-2.3-17.6h-.6l-6.8,16.4c-1.2,2.9.9,6,4,6Z"/>
    <path class="st0" d="M288.4,50v.5c-1.5,10.2-9,16.2-19.1,16.8v.6c8.8.8,12.8,5.5,13.3,15.3l.6,11.3h0c.2,2.3-1.7,4.3-4,4.3h-10.7c-2.3,0-4.2-1.8-4.3-4.2h0s-.4-12.4-.4-12.4h0c-.4-4.7-1.9-6-7.2-6h-4.8c-2.2,0-4,1.6-4.3,3.8l-2.1,15c-.3,2.2-2.1,3.8-4.3,3.8h-9.7c-2.6,0-4.7-2.3-4.3-5l8.3-58.4c.3-2.1,2.1-3.7,4.3-3.7h30.6c13.3,0,20,6.4,18.3,18.2ZM260,60.6c5.4,0,8.7-2.2,9.3-6.4v-.5c.7-4-1.8-6.2-6.9-6.2h-6.7c-2.2,0-4,1.6-4.3,3.7l-.6,4.4c-.4,2.6,1.7,5,4.3,5h4.9Z"/>
    <path class="st0" d="M290.6,93.9l8.3-58.4c.3-2.1,2.1-3.7,4.3-3.7h41c2.6,0,4.7,2.3,4.3,5l-1,7.3c-.3,2.2-2.1,3.8-4.3,3.8h-23.8c-2.2,0-4,1.6-4.3,3.7v.9c-.5,2.6,1.5,5,4.2,5h18.9c2.6,0,4.7,2.3,4.3,5l-.8,5.9c-.3,2.1-2.1,3.7-4.3,3.7h-21.3c-2.2,0-4,1.6-4.3,3.8l-.3,2c-.4,2.6,1.7,5,4.3,5h21.4c2.6,0,4.7,2.3,4.3,5l-1,7.3c-.3,2.2-2.1,3.8-4.3,3.8h-41c-2.6,0-4.7-2.3-4.3-5Z"/>
    <path class="st0" d="M348.6,93.9l8.3-58.4c.3-2.1,2.1-3.7,4.3-3.7h19.3c2,0,3.8,1.4,4.2,3.4l10.6,44.7h.7c.6-7.4,1.2-13.5,2-18.6l3.6-25.7c.3-2.2,2.1-3.8,4.3-3.8h8.5c2.6,0,4.7,2.3,4.3,5l-8.3,58.4c-.3,2.1-2.1,3.7-4.3,3.7h-19.4c-2,0-3.8-1.4-4.2-3.4l-10.6-44.7h-.7c-.7,7.2-1.2,13.7-2,19.6l-3.5,24.8c-.3,2.2-2.1,3.8-4.3,3.8h-8.5c-2.6,0-4.7-2.3-4.3-5Z"/>
    <path class="st0" d="M418.1,92.7l26-58.4c.7-1.6,2.3-2.6,4-2.6h19.6c2.1,0,4,1.5,4.3,3.6l9.6,58.4c.4,2.7-1.6,5.1-4.3,5.1h-10.8c-2.2,0-4-1.6-4.3-3.7l-.8-5.3c-.3-2.1-2.2-3.7-4.3-3.7h-13.5c-1.7,0-3.3,1-4,2.6l-3.3,7.5c-.7,1.6-2.3,2.6-4,2.6h-10.2c-3.2,0-5.3-3.2-4-6.1ZM453.1,69.6h1.3c2.6,0,4.7-2.3,4.3-4.9l-2.3-17.6h-.6l-6.8,16.4c-1.2,2.9.9,6,4,6Z"/>
  </g>
  <g>
    <path class="st0" d="M141.4,65.5c0-1.5-.8-2.8-2.1-3.4l-2.8-1.4c-.7-.4-.7-1.4,0-1.7l2.8-1.4c1.3-.7,2.1-2,2.1-3.4,0-1.5-.8-2.8-2.1-3.4l-51.7-26.1h0c-3.7-1.9-8.1-1.9-11.7,0l-51.7,26.1c-1.3.7-2.1,2-2.1,3.4,0,1.5.8,2.8,2.1,3.4l2.8,1.4c.7.4.7,1.4,0,1.7l-2.8,1.4c-1.3.7-2.1,2-2.1,3.4,0,1.5.8,2.8,2.1,3.4l2.8,1.4c.7.4.7,1.4,0,1.7l-2.8,1.4c-1.3.7-2.1,2-2.1,3.4,0,1.5.8,2.8,2.1,3.4l51.7,26.1c1.8.9,3.9,1.4,5.9,1.4s4-.5,5.9-1.4l51.7-26.1c1.3-.7,2.1-2,2.1-3.4,0-1.5-.8-2.8-2.1-3.4l-2.8-1.4c-.7-.4-.7-1.4,0-1.7l2.8-1.4c1.3-.7,2.1-2,2.1-3.4ZM28,54.9c-.7-.4-.7-1.4,0-1.7l49.7-25.1c2.6-1.3,5.5-1.3,8.1,0l49.7,25.1c.7.4.7,1.4,0,1.7l-4.7,2.4c-.3.1-.6.1-.9,0l-42.3-21.4h0c-3.7-1.9-8.1-1.9-11.7,0l-42.3,21.4c-.3.1-.6.1-.9,0l-4.7-2.4ZM85.1,80.4c-2.1,1.1-4.6,1.1-6.7,0l-27.8-14.1c-.7-.4-.7-1.4,0-1.7l27.8-14.1c2.1-1.1,4.6-1.1,6.7,0l27.8,14.1c.7.4.7,1.4,0,1.7l-27.8,14.1ZM119.5,67.9l4.7,2.4c.7.4.7,1.4,0,1.7l-38.4,19.4c-2.6,1.3-5.5,1.3-8.1,0l-38.4-19.4c-.7-.4-.7-1.4,0-1.7l4.7-2.4c.3-.1.6-.1.9,0l31,15.7c1.8.9,3.9,1.4,5.9,1.4s4-.5,5.9-1.4l31-15.7c.3-.1.6-.1.9,0ZM87.6,47.3h0c-3.7-1.9-8.1-1.9-11.7,0l-31,15.7c-.3.1-.6.1-.9,0l-4.7-2.4c-.7-.4-.7-1.4,0-1.7l38.4-19.4c2.6-1.3,5.5-1.3,8.1,0l38.4,19.4c.7.4.7,1.4,0,1.7l-4.7,2.4c-.3.1-.6.1-.9,0l-31-15.7ZM28,64.6l4.7-2.4c.3-.1.6-.1.9,0l4.7,2.4c.7.4.7,1.4,0,1.7l-4.7,2.4c-.3.1-.6.1-.9,0l-4.7-2.4c-.7-.4-.7-1.4,0-1.7ZM135.4,76c.7.4.7,1.4,0,1.7l-49.7,25.1c-2.6,1.3-5.5,1.3-8.1,0l-49.7-25.1c-.7-.4-.7-1.4,0-1.7l4.7-2.4c.3-.1.6-.1.9,0l42.3,21.4c1.8.9,3.9,1.4,5.9,1.4s4-.5,5.9-1.4l42.3-21.4c.3-.1.6-.1.9,0l4.7,2.4ZM129.9,68.7l-4.7-2.4c-.7-.4-.7-1.4,0-1.7l4.7-2.4c.3-.1.6-.1.9,0l4.7,2.4c.7.4.7,1.4,0,1.7l-4.7,2.4c-.3.1-.6.1-.9,0Z"/>
    <path class="st0" d="M102.2,64.9l-18.3-9.2c-1.4-.7-3-.7-4.4,0l-18.3,9.2c-.5.2-.5.9,0,1.1l18.3,9.2c1.4.7,3,.7,4.4,0l18.3-9.2c.5-.2.5-.9,0-1.1ZM81.8,71.4c-1.9,0-3.2-1.8-2.7-3.6l2.6-9.4h.3l2.6,9.4c.5,1.8-.9,3.6-2.7,3.6Z"/>
  </g>
</svg>