<?xml version="1.0" encoding="UTF-8"?>
<svg id="Capa_1" xmlns="http://www.w3.org/2000/svg" version="1.1" viewBox="0 0 454.6 129.9">
  <!-- Generator: Adobe Illustrator 29.0.0, SVG Export Plug-In . SVG Version: 2.1.0 Build 186)  -->
  <defs>
    <style>
      .st0 {
        fill: #1e1e1c;
      }
    </style>
  </defs>
  <path class="st0" d="M65.5,92.7l26-58.4c.7-1.6,2.3-2.6,4-2.6h19.6c2.1,0,4,1.5,4.3,3.6l9.6,58.4c.4,2.7-1.6,5.1-4.3,5.1h-10.8c-2.2,0-4-1.6-4.3-3.7l-.8-5.3c-.3-2.1-2.2-3.7-4.3-3.7h-13.5c-1.7,0-3.3,1-4,2.6l-3.3,7.5c-.7,1.6-2.3,2.6-4,2.6h-10.2c-3.2,0-5.3-3.2-4-6.1ZM100.5,69.6h1.3c2.6,0,4.7-2.3,4.3-4.9l-2.3-17.6h-.6l-6.8,16.4c-1.2,2.9.9,6,4,6Z"/>
  <path class="st0" d="M197.5,50v.5c-1.5,10.2-9,16.2-19.1,16.8v.6c8.8.8,12.8,5.5,13.3,15.3l.6,11.3h0c.2,2.3-1.7,4.3-4,4.3h-10.7c-2.3,0-4.2-1.8-4.3-4.2h0s-.4-12.4-.4-12.4h0c-.4-4.7-1.9-6-7.2-6h-4.8c-2.2,0-4,1.6-4.3,3.8l-2.1,15c-.3,2.2-2.1,3.8-4.3,3.8h-9.7c-2.6,0-4.7-2.3-4.3-5l8.3-58.4c.3-2.1,2.1-3.7,4.3-3.7h30.6c13.3,0,20,6.4,18.3,18.2ZM169.1,60.6c5.4,0,8.7-2.2,9.3-6.4v-.5c.7-4-1.8-6.2-6.9-6.2h-6.7c-2.2,0-4,1.6-4.3,3.7l-.6,4.4c-.4,2.6,1.7,5,4.3,5h4.9Z"/>
  <path class="st0" d="M199.7,93.9l8.3-58.4c.3-2.1,2.1-3.7,4.3-3.7h41c2.6,0,4.7,2.3,4.3,5l-1,7.3c-.3,2.2-2.1,3.8-4.3,3.8h-23.8c-2.2,0-4,1.6-4.3,3.7v.9c-.5,2.6,1.5,5,4.2,5h18.9c2.6,0,4.7,2.3,4.3,5l-.8,5.9c-.3,2.1-2.1,3.7-4.3,3.7h-21.3c-2.2,0-4,1.6-4.3,3.8l-.3,2c-.4,2.6,1.7,5,4.3,5h21.4c2.6,0,4.7,2.3,4.3,5l-1,7.3c-.3,2.2-2.1,3.8-4.3,3.8h-41c-2.6,0-4.7-2.3-4.3-5Z"/>
  <path class="st0" d="M257.7,93.9l8.3-58.4c.3-2.1,2.1-3.7,4.3-3.7h19.3c2,0,3.8,1.4,4.2,3.4l10.6,44.7h.7c.6-7.4,1.2-13.5,2-18.6l3.6-25.7c.3-2.2,2.1-3.8,4.3-3.8h8.5c2.6,0,4.7,2.3,4.3,5l-8.3,58.4c-.3,2.1-2.1,3.7-4.3,3.7h-19.4c-2,0-3.8-1.4-4.2-3.4l-10.6-44.7h-.7c-.7,7.2-1.2,13.7-2,19.6l-3.5,24.8c-.3,2.2-2.1,3.8-4.3,3.8h-8.5c-2.6,0-4.7-2.3-4.3-5Z"/>
  <path class="st0" d="M327.2,92.7l26-58.4c.7-1.6,2.3-2.6,4-2.6h19.6c2.1,0,4,1.5,4.3,3.6l9.6,58.4c.4,2.7-1.6,5.1-4.3,5.1h-10.8c-2.2,0-4-1.6-4.3-3.7l-.8-5.3c-.3-2.1-2.2-3.7-4.3-3.7h-13.5c-1.7,0-3.3,1-4,2.6l-3.3,7.5c-.7,1.6-2.3,2.6-4,2.6h-10.2c-3.2,0-5.3-3.2-4-6.1ZM362.2,69.6h1.3c2.6,0,4.7-2.3,4.3-4.9l-2.3-17.6h-.6l-6.8,16.4c-1.2,2.9.9,6,4,6Z"/>
</svg>