<?xml version="1.0" encoding="UTF-8"?>
<svg id="Capa_1" xmlns="http://www.w3.org/2000/svg" xmlns:xlink="http://www.w3.org/1999/xlink" version="1.1" viewBox="0 0 1053.4 772.9">
  <!-- Generator: Adobe Illustrator 29.0.0, SVG Export Plug-In . SVG Version: 2.1.0 Build 186)  -->
  <defs>
    <style>
      .st0 {
        fill: none;
      }

      .st1 {
        fill: #010101;
      }

      .st2 {
        fill: #1a1aff;
      }

      .st3 {
        clip-path: url(#clippath);
      }
    </style>
    <clipPath id="clippath">
      <path class="st0" d="M1021,412l-75-19c-9.1-2.5-9.1-15.7,0-18.1l75-19c11.5-5.8,11.5-84.6,0-90.3L571,46.4c-27.2-13.2-58.5-13.2-85.7,0L34.4,266.4c-11.5,5.8-11.5,84.6,0,90.3l74.2,19c9.1,2.5,9.1,15.7,0,18.1l-74.2,19c-11.5,5.8-11.5,21.4,0,27.2l69.2,16.5c9.1,1.6,9.1,15.7,0,18.1l-69.2,16.5c-11.5,5.8-11.5,21.4,0,27.2l450,219.2c27.2,13.2,58.5,13.2,85.7,0l450-219.2c11.5-5.8,11.5-21.4,0-27.2l-70.1-16.5c-9.1-1.6-9.1-15.7,0-18.1l70.1-16.5c11.5-5.8,11.5-21.4,0-27.2l.8-.8Z"/>
    </clipPath>
  </defs>
  <path class="st2" d="M1021,411.1l-75-19c-9.1-2.5-9.1-15.7,0-18.1l75-19c11.5-5.8,11.5-21.4,0-27.2l-450-219.2c-27.2-13.2-58.5-13.2-85.7,0L34.4,328.7c-11.5,5.8-11.5,21.4,0,27.2l74.2,19c9.1,2.5,9.1,15.7,0,18.1l-74.2,19c-11.5,5.8-11.5,21.4,0,27.2l69.2,16.5c9.1,1.6,9.1,15.7,0,18.1l-69.2,16.5c-11.5,5.8-11.5,21.4,0,27.2l450,219.2c27.2,13.2,58.5,13.2,85.7,0l450-219.2c11.5-5.8,11.5-21.4,0-27.2l-70.1-16.5c-9.1-1.6-9.1-15.7,0-18.1l70.1-16.5c11.5-5.8,11.5-21.4,0-27.2l.8-.8Z"/>
  <g class="st3">
    <g>
      <path class="st2" d="M519.9,589l-3.1,10.6c-.6,2,.9,4.1,3,4.1h0c2.1,0,3.7-2,3.2-4l-2.7-10.7h-.4s0,0,0,0Z"/>
      <g>
        <path class="st1" d="M853.5,738.7c0-17.8,6.3-37.6,6.3-58.5,3.4-2.1,2-7.8,2.1-11.3,1.2-98.4-12.3-173.3-53-263-30-66.1-51.7-79-119.3-99.1-12.8-3.8-33.5-7.5-44.2-12.2-21.3-9.4,6.5-35.4,12.5-47.2,11.4-22.3,18.3-58.3,17.4-83.3-4.6-126.5-181.6-149.9-215.5-29.7-9.4,33.5-9.1,67,0,100.5,9.5,35,16,35.6,34.9,61.5.2,5.2-2.8,5.3-6.5,6.8-53.9,21.1-68.1,8.2-101.8,66.4-18.6,32.1-33.6,70.9-47.6,105.2-3.1.8-3.4-.8-5.1-2-6.6-4.6-24.9-22.2-31.8-28.7-4.7-4.5-32.5-33.1-32.8-35.9,5.3-12.9,2.6-26,4.4-38.7,1.7-12.2,15.5-47.3-1.4-50.5-19.3-3.6-22.6,15.5-28.6,28.7-12.9-12-20.5-62.3-33.2-69.8-22.5-13.3-21.9,19.5-17.1,32.9-10.1-8.5-17.3-34.5-34.3-27.2-13.4,5.8-2.9,22.8-4.7,25.1-6.2-4.2-13.8-6.4-19.4,0-11.1,13,9.4,32.5,7.1,34.8-6.5-1.6-20-5.2-23.6,2.1-8.2,16.5,32.5,44.3,42,56.5,14,17.8,11.5,26.1,33.8,40,9.3,5.8,15.8,3,19.5,16.4,2.5,10.9,31.3,62.6,39,69.7,15.9,29.8,53.3,75.5,89.3,78,34.7,2.4,61.5-42.2,83-63.6,2.4,19.3,9.9,36.4,8,56.2-.5,5.1-2.8,12-3.9,17.7-4.8,25.2-13.8,49.2-20.5,73.9-18.3,67.5-32.1,135.6-28.8,206.3,3.4,71.4,11.6,138.8,12.4,211.2,0,3.5-1.3,9.1,2.1,11.3-.6,23.7,3.9,47.6,3.3,71.1-.4,16.9-5,19.5-18.4,27.7-22.9,14-87,35.7-98.2,55.6-4.7,8.3-10.4,37.8-5.5,45.4,4.5,7,29.3,10.8,37.8,11.4,46.5,3.7,90.2-5.3,135.6-12,11.2-1.6,62.6-4.5,67.5-12.5,1.7-2.8,3.4-40.2,3.1-46.3-.8-20-9.1-39.4-8.3-59.4,2.4-55.4,26.3-91,18.2-153.6-1.8-13.6-11.3-39.9-10-51.3.9-7.7,13-29.3,16.4-39.1,9.4-26.7,17-54.2,25.6-81.1,8.1,22.3,12,46.3,19,69.3,7.5,24.7,19.4,48.2,26.6,71.8,19.6,63.8,23.1,139.6,41.7,204.7-7.6,49.2-67.7,63.3-69.6,115.1-.6,16,1.8,21.2,16.7,25.9,58.5,18.5,121.7-.5,166.7-39.6,10.8-9.3,8-27.9,7.2-42-1.3-22.9-10.1-50.9-10.3-71.9-.5-48.1,12.5-88,4.3-137.5-4.5-27.6-9.8-54.7-24.8-78.8-1.9-24.5,8.8-57.4,10.3-84.1,2.4-5.9,3.4-15.1,4.1-21.6,1.3-12.5,1.4-38.3,4.5-48.8,1.3-4.2,7.2-5.4,9.9-8.6,4.5-5.4,6.7-12.1,11.3-17.4,8.1,24.2-13.5,49.9-9.2,72.8,1.9,10,10.2,5.5,16.3,8.3,2.6,1.2,4.1,5.7,7.6,6.8,13.1,4,15.8-6.6,23.3-10.8,3.4-1.9,7.7-1.6,12.1-4.3,1.6-1,25.1-25.3,26.2-27.1,22.9-38.7-1.5-81.6-1.7-118.5ZM853.7,647.4c-35.2,6.6-38.3,41.3-12.2,62.5,2.4,2,7.8,2.9,8.1,3.3.6.8-3.4,11.1-2,14.3-15.1-1.4-31.9-20.6-36.1-35.6-.2-1.1-.5-2.2-.8-3.4-2.5-15.8,2.4-35.1,15.4-45.1,3.9-3,18.6-8.1,17.4-13.3-20.4-14.1-50.8-6.3-71.8,3-4.9,1.3-3.7-3.2-6.2-6.2.7-2.8,2.7-2.8,4.1-4.1,14.4-13.1,62.2-16.3,79.2-8.4,10.4,4.9,2.1,30.4,4.9,33ZM749.1,841.2c2.2,11.1-4.1,24.4-2.1,35.9-59-5.3-70.9-98.1-15.7-119.3,23.9-9.2,24.8,0,21.7,23.8-1.8,13.3-16.3,31.3-16.4,41.2,0,11.7,11.2,12.1,12.4,18.4ZM726.8,637.8c-5.7-10.5-15.7-21.7-20.9-31.4-6.2-11.6-9.7-22.4-8-35.7,1.2-9.8,12.5-43,16.7-53.1,1.2-2.8,2.1-5.7,4.7-7.6,12.4,22.5,30.5,43.5,35.7,68.9-2.9,10.9,1.4,23.2,2.3,33.6,0,.7,0,1.4,0,2.1,1,10.3,0,23.5,4.1,32.8,0,.7,0,1.4,0,2.1.8,9.4,1.6,20.5,6.2,28.7,0,.7-.1,1.4,0,2.1.6,3.7,1.6,7.4,2.1,10.3.1.7-.1,1.4,0,2.1.4,2.1,1,4.3,1.5,6l.5,2.2c.1.7-.1,1.4,0,2.1.4,2.4,1.1,4.5,1.6,6.3l.5,1.9c.1.7-.1,1.4,0,2.1.4,1.9.9,3.9,1.4,5.5l.7,2.7c3.9,21.4,1.5,24.3-14.3,39-2.5-43.6-13.6-84.2-34.5-122.4ZM439.3,563.3c83.2,13.3,168.8,11.2,251.3-6.2,1.7,7.6-2.8,15.4-2.5,23.1.4,10.5,7.8,18,7.7,28.2-7.9,4.6-47.8,13.6-59.1,15.8-63.1,12.4-133.5,14-194.5-7.5-3.8-1.3-4.6-4.1-4.9-4.2,7.9-14.9,3.2-33.3,2-49.2ZM689.6,317.1c67.3,7.6,96.7,55.5,120,112.9,22.1,54.3,42.3,117.6,42.1,176.4-26.8-6.1-58.2-7.2-82,8.2-.2-.4-5.2,0-6.2-6.2-2-12.4,2.3-28.4-1-41.1-3.8-14.9-32.8-57.8-41.8-77.2-3.6-7.7-18.7-50.3-21.1-51.7-1-.6-5.7-.5-5.9-.3-5,4.9,12.5,35.9,14.3,42.1,1.9,6.4-7.9,1.3-10.1-.1-41.2-27.3-28.2-104.7-16.5-144.5,1.5-5.1,6.4-12.2,8.2-18.5ZM596.9,121.7c1.9,28.2-17.1,6.7-32.4,21,4.2-22.4,18.4-7.4,32.4-21ZM478.3,114c12.5,5.5,29.9,13.2,30.7,28.7-10.6-10.3-33.7-9.8-30.7-28.7ZM489.6,239.3c2.5-3.8,11-8.8,11.2-9.7,3.7-15.3-14.1-9.1-24.7-13.9-6.2-2.8-8.9-7.9-14.3-11.3.5-.7-4.8-14.1-1-16.4,10.2,22,30.3,27.9,52.3,18.5.8,1-9.3,24.6-1,24.6h34.9c11.2,0-8.8-44.4-16.4-47.1l-15.4,16.4c1.9-10.2-3.8-23.9-11.5-30.6-11.4-10-47-7.8-37.8-26.8,12,12.1,28.9,9.3,41.8,18.8,5.5,4.1,7.1,10.3,12.9,13.9l12-10.1c3.1,1.2,9.1,12.2,10.3,12.2,1.2,0,14.3-12.5,18.1-14.7,23.1-13.6,45.7-3.4,65-27.2,13.2,32.8,4.4,79.9-34,84.9-7.1.9-30.5-3-31.6-1.9-.7.7,0,10.1,1,12.3,2.3,4.9,17.5,7.7,22,21.1,3.9,11.5-2.7,25-13.4,30.6-4.8,2.5-38.8,11.9-42.5,11-3.4-.8-26.3-11.6-29.4-13.8-12.8-9.1-17.5-27-8.4-40.6ZM484.4,179.6c1.1,1.1-2.7,14.4,3.3,16.3,5.2,1.6,7.4-2.8,10.4-3.4,2.3-.5,6.2,2.1,6.8,1.5,1.7-1.8-4.1-9.9-1-12.3,10.3,14.4,5.8,23.6-12.2,22.6-22-1.2-27.8-22.5-25.7-41.1l22.5,6.2c-1.8,5-17.2-1-18.4,5.1-1.5,7.4,13.7,4.4,14.4,5.1ZM527.5,196.1c5.6-4,16.2,23.4,14.3,28.7h-24.6c-2.1-2.1,8.5-27.4,10.3-28.7ZM501.9,310.8c1.5,0,4.5-.3,5,.2.9.8.7,21.6,6.2,16.3,1.7-1.6,2.4-13.1,2.1-16.4,8.9,2.4,18.3,5.7,27.6,6.2,30.2,1.6,63.7-13.5,86.3-32.9,3.3,11.3,9.6,18.2,21.5,20.5-15.3,26.5-31.5,53.7-50.4,77.7-20.2,25.7-45.1,52.1-78.8,57.6-2.5-2.7,9.2-23,10.7-27.3,1.3-3.9,2.8-4.4-1.5-7.6-9.9,8.8-12.5,21.9-18.7,32.9-47.2-15.1-31.8-74.4-25.4-110.9,4.8-8.7,2.6-16.4,15.4-16.5ZM160.3,292.5c5.4-5.4,16,9.8,18.5,13.3,3.7,5.2,22.8,36.1,23.7,40,1,4.2-9.8,12.5-16.5,4.1-3.3-4.1-22.5-40.4-24.1-45.6-.8-2.6-2.9-10.4-1.6-11.7ZM139.9,316.3c.5-1.7,2.9-3.8,4.9-3.3,4.2.9,35.7,39.6,37.2,45.1,1.5,5.6-5.4,8.4-8.4,12.3-7.8-8.2-36.6-44.5-33.7-54.1ZM242.3,434c-18.6,9.6-35.3,8.3-52-4.5-12.7-9.8-14.8-21.9-24-33.4-8.8-11-22.6-18.5-31.8-29.8-2.1-2.6-14-16.5-6.1-16.5,11.5,0,37.9,24,43,34.9,6.8-5.9,12.6-13.8,19.7-19.3,8.8-6.9,20.4-10.3,27.5-15.5,8.5-6.2-6.2-5.7-7-6.4-1.8-16.9-12.2-34-14.2-50.6-.9-7.2,2.2-11.8,9-6.7,8.5,6.4,20.7,59.1,29.6,71.1.5,8.9-19.9,16.1-18.6,36.8,1.4,24,9.8-9.6,13.6-15.3,4.4-6.5,16.1-12.1,18.2-16.6,5.1-10.6,2.7-34.4,21.6-32.7l-12.3,90.3c-5.8,4.4-10.8,9.9-16.4,14.4ZM267,534.6c24.5-.5,52.4-30.3,57.4-53.3,9.8-6.1,8.9,7,8,13.2-2.6,19.2-22.6,37-39.4,44.7-10.1,4.6-24.6,11.6-26-4.5ZM417.2,536c-13.8,18.8-45,59.8-69.5,62-27.3,2.4-51.1-26.8-68.4-44,11.3-7.4,23.9-9.8,34.9-18.4,13.5-10.6,20.3-25.1,27.6-40,4.5,4.2,8.9,9.5,11.6,15,1.4,2.9,7.2,29.2,13,19.9,1.4-11.1-5.9-22.7-11.3-31.9-8-13.7-13.7-8.2-7.2-27.6,9.6-28.6,51.8-115.8,73.9-133.3,5.4-4.3,17.1-11.4,23.5-13.5,3.9-1.3,7.2-2.9,6.2,3.2-13,32.9-21.3,52.2-41,82.1-22.1,33.4-38.7,71.5-7.2,106.7,5.9,6.6,18.8,11,13.9,19.9ZM433.2,534.6c7.6,3.3,17,2.5,25.1,1.5,3.9-.5,26.6-5.2,20-11.8-1.7-1.7-23,3.9-27.7,4.1-32.3,1.5-59.3-31-56.1-62.3,1.2-12.1,8.1-37.1,20.3-42.3,5.1,4.9,8.5,8.8,14.5,13.2,2.6,1.9,7.8,3,8,3.3.4.6-2.2,8.2-2.2,11.2-.1,17.6,22.4,14.5,32.1,23.5,6.2,5.8,5.9,14.9,9,19.3,6.3,8.9,12.6-14.8,12.6-20.3,0-15.8-10.3-30.1-21.7-40-9.4-8.1-36.2-20.7-37.5-34.2-.4-3.9,21.3-47,25.2-54,17.5,19.6-14,22.1-2.8,43.8,5,9.6,17.7,9.4,21.2,13.6,2.5,3,5.5,17,9.6,23.2,19.4,29.2,46.8,25.8,74.1,9.2,13.1-8,28.8-28.1,38.5-33.3,12.3-6.6,36.3,0,45.8-15.7,8.4-13.7-5.4-16.9-2-24.4,5.5-12.2,22.2-13.1,31.9-16.5-4.8,19.6-7,38.3-18.5,55.4-8.8,7.7-17,15.6-28,20.3-20.5,8.7-43.2,8.6-62.1,24-12.2,10-26.2,35.6-15.5,50,6.2,8.4,10.4-5.8,13.3-9.2,13.3-15.3,22-8.3,37.4-13.9,16-5.8,6.7-14.3,10-19.7.7-1.2,21.4-5.3,26.4-7.4,7.9-3.4,12.6-8.4,18.5-13.3l10.2-4.1c3,18.9,11.6,44.2,26.9,56.2,4.3,3.4,19.1,9.8,20.1,12.8,1.4,4.3-10.8,45.7-14.1,48.9-3.4,3.2-31.6,7.4-38.6,8.6-59.6,10.3-127.9,12.9-187.8,4.5-4.5-.6-32.8-4.8-33.9-6.1-.6-.7-1.6-15.3-2.2-18.3ZM396.5,782.1c.7-3.5.8-7.1,3.8-9.5,10.2,18.8,8.3,59-8.2,73.9-4.9-19.8.4-44.4,4.4-64.3ZM406.5,1180.7h26.7s0,14.4,0,14.4c-3.6-.4-25.7-1.1-26.7-2.1-.6-.6.4-9.8,0-12.3ZM433.3,1204.6c-.2,2.6-1,10.7-3.5,11.2-1.3.3-24.4-5.4-25.3-6.4-.7-.9-.3-6.7.8-8.2,2.9-4.2,27.5,1.1,28,3.5ZM404.4,1172.5c-.7-.7.4-9.7,0-12.3,9.9,1.5,36.3-6,30.5,11-2,5.9-29.4,2.4-30.5,1.3ZM403.3,1137.6c2.5-3.5,8.3-1.6,11.8-1.3,3.1.2,17.3,1.7,18.2,2.3,2.7,1.9,2.8,11,1,13.6-1.8,2.6-28.3.1-30-1-2.8-1.9-2.8-11-1-13.6ZM430.3,1131.4c-14-5.5-31.7,6.1-27.9-16.3,6.7,2,30.8,0,32.6,5.4,1.3,3.9.8,10.8-4.7,10.9ZM435.2,1109c-6.7-1-32.7,2.9-34.9-4.1-1.2-3.8.8-11.8,0-16.4,4.3.7,31.6,6.1,32.9,7.1,3.2,2.2,1.7,9.8,1.9,13.5ZM442.5,992c-1.2,5.8-9.6,13-11,19.9-1.8,8.9,2.6,20.5-4.6,27.2-9.3,2-18.5-3.1-26.7-4.1-6-30.6-7.1-61.1-6.2-92.3,8,.8,18.1-1.3,25.6,0,11.1,2.1,8.6,14.6,11.8,23.1,2.6,6.7,12.1,20.6,11,26.1ZM422.9,1221.8c2.2,3-8.1,11.6-11.6,11.9-2.5.2-18.9-9.7-19.2-10.9-2.9-12.6,25.4-3.5,30.8-1ZM400.3,1240.2c-.4.6-9.1,2.4-11.1,2.1-.9-.1-15-7.5-15.5-8.3-8.3-12,32.4-1.8,26.6,6.2ZM361.9,1236.5c2.7.4,17.9,8.8,17.8,10.9-10.2,11.3-15.5-.3-24.6-6.2.3-4.5,2.9-5.3,6.7-4.7ZM347.5,1246.7c2.7.4,13.8,6.9,13.8,8.9-7.5,8-17.4,3.9-24.5-2.1-5.2-4.3,6.5-7.5,10.7-6.8ZM323.4,1256.5c17,0,38.8,27.6,39.8,44.1-.9,2.4-2.6,2.8-4.9,3.2-21.6,3.8-52.9-1.8-74.9-4.1-3.2-19.6,22.3-43.2,40-43.2ZM499.2,1303.2c-37.1,10.1-140,21.7-177.9,19.2-6.4-.4-34.2-4.3-37.8-7.3-2.2-1.9-3.2-6.1-2.1-7.1,1.9-1.8,26.5,3.8,31.7,4.2,43.6,2.7,75.7-6.2,117.3-12.1,26.1-3.7,52.5-5.7,78.7-8.5,1.2,9.7-2.2,9.6-9.9,11.7ZM509,1283.3l-39,4.1c-1.5-13.2,6.2-31.7,15.3-41.1,3.4-3.5,21.5-16.9,23.7-9.2,2.9,10.6-2.2,33.9,0,46.2ZM503.1,1194.4c-.6,7.6,2.5,27.2,1.5,30.1-1.4,4.4-11.5,5.7-16.1,8.7-18.6,12.1-24.6,35.2-28.7,55.4l-90.4,13.2c1-13.1-7-23.8-12.3-34.8,30.8-17,80.5-22,84.2-64.6,1.3-14.9-2.5-99,.8-103.8,2.7-3.8,33.8-1.4,41.1-2,13-1,27.2-5.5,40-8.2-3,35-17.7,71.3-20.2,105.9ZM558.4,849.5c-1.1,19.6-19,70-26.2,90.8-6.6,19.2-22.8,46.1-20.8,64.9,2.5,23.8,15,49.1,9.8,74.8-39.9,9.4-80.3,13.9-118.7-1.8v-14.4c4.8-.1,9.6.2,14.4,0,11.4-.4,26.7,1.3,34.9-9.2,8.3-10.7,1.1-29.4,4.5-40.7,1.7-5.6,15.9-13.6,17.6-19.3,5.3-17.5-10.8-16.9-15.7-26.5-3.1-5.9-1.4-11.6-4.4-17.2-.9-19.3-.4-27.2-22.6-28.7-6.9-5.7-36.3,1.5-40.1-4-3.8-20.1-1.5-30,13.5-43.2,9.5-.7,11.7,9.8,19,12.8,28.1,11.6,51.9-39.4,15.9-45.6,1.9,16.2-14.1,20.3-14.4,3.2-.5-30.5,16.8-52.5-6.1-85.2.7-9-13.7-15-14.4-21.6-.4-4.3,6.6-28.3,8.3-34.9,1-3.8,3.9-4.8,4.1-5.1,33.1,43.8,79.1,97.9,137.5,102.6-.4,15.2,5,33.5,4.2,48.3ZM622.8,1049.6c-.9-1.4-4.8-26.6-6.5-32.5-2.8-10-22.2-48.4-18.1-54,2.8-3.8,33-7.3,38.7-5.6,3.4,1,25.3,35.6,25.9,39.7,1.4,8.4-2.1,14.2-2,20.5.1,9,6.9,24.3-2.1,30.6-5.3,3.7-33.2,5.3-35.9,1.3ZM645.3,1252.4c11.3-17.4,11.8-25.4,8.8-45.5-2-13.4-23.8-100.4-20-104.1,1-.9,9.8-.3,9.9,3.5,2.5,33.4,14.5,69.6,16.5,102.4,1.3,21.5-2.6,31.5-14.5,48.6-5.9,8.5-15.6,22.8-26.3,23.9,7.5-9.9,18.7-18.4,25.5-28.8ZM652.6,1264.9c-2.1-15.5,32.7-8.6,34.9-6.1,1.5,1.7-2.1,11.2-5.5,12.1-4,1.1-22.2-9.4-29.4-6ZM674.2,1283.3c-3.7,7.7-11.6.3-17.4-1.2-4.8-1.2-19.6.8-15.6-7.1,3-5.7,10.7-4,15.9-3.5,5.9.6,21.5,2.5,17,11.7ZM662.9,1248.4c-1.8-1.8,1.9-11.5,7.3-12.4,3.8-.6,29.2,2.7,29.7,5.3.2,1.2-4.1,11.1-5.5,11.4-1.5.4-30.3-3.2-31.5-4.3ZM669.5,1218.1c3-4.4,26.3-1.8,32.4-2.5v16.4c-9.3-2.5-43.9,2.9-32.4-13.9ZM698.8,1209.5c-6.9,2.1-23.5-1.6-31.8,0v-14.4c7.2,3,32-6.4,34.6,1.3,1.1,3.4.8,11.9-2.8,13ZM699.9,1183.5c-1,4.3-29.4,4.5-33.6,3.1-5.1-1.7-3.1-9.7-3.4-14.1,12.4,2.3,42.5-11.9,37,11ZM697.6,1162.2c-1.6,1.6-34.1,3.4-36.5,1.9-2-1.3-4.4-12,1-13.8,2.3-.8,32.3-2.4,33.7-1.5,2.3,1.7,2.8,12.3,1.8,13.4ZM694.8,1139.9c-1,1.4-29.4,4.7-32.9,4-7.1-1.3-10.3-14-3.8-16.2,7.1,2.1,30.2-3.5,34.3-2.2,4.4,1.4,4.5,11.3,2.5,14.3ZM650.6,1104.9l43.1-2.1v16.4c-18.2-3.5-43.7,14.5-43.1-14.4ZM604.4,1295.6c18.1-14.1,56.9-7.9,74.8,5.4,5.6,4.2,23.4,22.4,18.4,29.4-1.1,1.6-27.7,7.7-31.9,8.2-11.3,1.1-70.3.2-75.8-7.9-3.6-5.2,9.3-31,14.5-35ZM756.2,1316.1c-39.5,36-90.5,49.5-142.9,40.5-10.7-1.9-30.3-3.3-26.2-17.9,38.3,11.9,85.1,13.3,121.8-4.4,11.7-5.6,41.9-30.6,47.9-32.1,11.7-2.9,5.2,8.7-.5,13.9ZM745,1299.7c-.7-16.2-.5-35.4,12.3-47.2.2,19.7,14.7,41-12.3,47.2ZM759.3,1086.4c-1.1,50.8-12.3,101.8-4.4,152.4-9.9,13.9-16.2,26.3-18.1,43.6-.7,6.6,1.7,21-1.1,25.6-1.1,1.9-27,18.6-28.7,18.4-5.9-15.7-16.3-24.5-27.5-36.1,10.3-19.3,27.6-36.7,30.3-59.4,2.2-18.1-2.4-55.5-3.9-75.7-1.2-17.1-4.1-34.4-5.6-51.4.6-3.1,15.5-4.7,20-6.1,6-1.9,36.4-13.8,39-11.3ZM754.9,1075.8c-24,9.1-55.2,20.1-81,20.7-5.5.1-39.3-3-41.8-4.9-2.9-2.1-2-13.4-4-17.5,17.8.8,38.1,2,53.2-9.4,25.4-19.2-3.8-37.1,3.8-55.7,2.9-7,13.4-11.3,10.4-21.6-1.8-6.2-18-11.7-23.2-20-4.9-8-3.5-16.6-6.8-24-11.2-25.1-57.8-6.8-78.3-4.8-7.5-29.9-16.1-60.8-20.4-91.4-2-14-6.9-45.4-2-56.9,22-51.2,106.7-102.6,162.5-91.3,23.1,4.7,18.1,11,21.8,32.5-56.5-2.1-81.7,36.1-77.9,89.2.7,9.7,10.7,42.2-1.5,45.8-14.5,4.3-10.6-10.6-10.9-20.1-40.2,5.5-23.8,65,16.5,54.4,12.1-3.2,19.3-24.7,32.4-5.9,14.4,20.5-5.2,41-7.7,59.4-.8,6.1-1.4,36.3,5,37.8,3.6.9,10-9.7,11.2-8.2,1.3,10.3,5.4,26.8,10.6,35.6,5.4,9.1,18.7,14.2,22.7,22.4,2.2,4.5,7.3,30.8,5.4,34ZM851.6,844.3c-3.6.5-1.9-4.7-2-7.1-.2-6.5.2-13,0-19.5-1.8-.2-2.7-.4-4.1,1-6.3,6-3.5,52.8-22.5,58.5,2.6-14.5,9.5-29.2,10.2-44.2.1-2.7.7-13.3-3.1-13.2-2.7,0-11.4,44.7-15,52.6-2.4,5.2-10.1,21.1-17.8,19.1-2.9-.8-2.8-3.6-2.3-6.2,1.5-8.6,10.5-21.6,13.4-31.8,3.2-11.3,5.3-21.9,4.2-33.7-3.2-.6-4.5.7-5.7,3.5-4,9.4-5,25.6-9.7,37.5-1.8,4.7-9.7,22.7-14.3,22.7-3.7-.5-6.9-3.6-7.2-7.4-.7-6.8,10.9-31.6,12.1-43.3.7-6.8,2.4-35.8-6.9-35.8-11.3,0-15.1,36.4-32.5,30.6-9.1-3,5.8-23.1,7.9-28.5,3.3-8.7,4.4-19.1,8.1-26.8,1.8-3.8,20.4-27.3,23.6-29.7,11-8.3,46.2-10.6,55.5-1.9,3.4,3.2,11.8,51.5,12.3,59.5,1,14.8,0,29.8-4.1,44.1Z"/>
        <path class="st1" d="M558.9,537c24.6,10.4,50.8,10.5,74.6-2,6-3.2,30.6-21.8,29.4-28-2-9.7-18.3,10.3-20.7,12.1-19.4,14.7-43.9,20.2-67.6,14.6-13.9-3.3-23.5-12.4-36.8-15.5.5,9.6,13.3,15.5,21.2,18.8Z"/>
        <path class="st1" d="M589.8,212.2c17-1.9,30.8-16.7,34.7-33,1.1-4.7,4-22.6-1.8-24-2-.5-34.7,6.1-39.5,7.3-11.5,2.8-21.7,6.2-29,16.1-21.4,28.9,12.6,36.2,35.7,33.6ZM572.6,175.6c13.7-7.4,30-8,45.1-12.3,1.3,23.8-9.2,43.5-35.6,42.9-3.3,0-24.6-4.7-25.7-6.3-6.3-10,9.3-20.7,16.1-24.3Z"/>
        <path class="st1" d="M571.4,249.6c-8.6-14.2-59.9-16-72-7.7-1.2.8-6.4,8.9-6.8,10.7-7.8,40.9,101.5,34.4,78.8-3ZM500.8,260.6c-2.7-15.9,16-16.6,27.4-16.6,8,0,36.9,2.8,38.4,12.6,3.7,23.8-62.9,21-65.8,3.9Z"/>
        <path class="st1" d="M560.3,194c9.8-5.1,12.1,3.5,17.5,4.2,11.5,1.4,5.5-14.9,7.1-16.5.9-.9,20.7.7,24.6,0-.8-10.9-30.9-9-36.9-6.1-1.2.6-14.7,15-12.3,18.5Z"/>
        <path class="st1" d="M549.1,261.8c3.6-.3,6.7.4,9.1-3.2,1-5-4-2.9-7.1-3.1-14.1-.5-28-2.3-42.1-2-10,8.7,36.8,8.6,40.1,8.3Z"/>
        <path class="st1" d="M489.2,604.1l-5.1,1.1c-.8.4-.9,1.5,0,2l32.3,16.5c2,1,4.2,1,6.2.1l32.9-15.3c.8-.4.9-1.5,0-2l-5-1.3c-.7-.2-.6-1.2,0-1.3l5-1.1c.8-.4.9-1.5,0-2l-5.3-1.5c-.7-.2-.6-1.1,0-1.3l5.4-1.3c.8-.4.9-1.5,0-2l-32.4-16.6c-2-1-4.2-1-6.2-.1l-32.9,15.3c-.8.4-.9,1.5,0,2l5.4,1.5c.7.2.6,1.1,0,1.3l-5.5,1.3h0c-.8.5-.9,1.6,0,2l5.1,1.3c.7.2.6,1.2,0,1.3ZM503.8,613.6l9.9-30.4c.1-.4.5-.6,1-.6l11.2.2c.5,0,.8.3.9.7l8.7,30.7c.1.6-.3,1.2-1,1.2h-7.6c-.5-.2-.8-.4-.9-.8l-1.3-4.9c-.1-.4-.5-.7-.9-.7l-8.3-.2c-.5,0-.8.2-1,.6l-1.5,4.8c-.1.4-.5.6-1,.6h-7.6c0-.1.1-.1.1-.1h0c-.7,0-1.1-.6-.9-1.2Z"/>
      </g>
    </g>
  </g>
  <path class="st1" d="M520.4,588.7h-.4l-3.1,11.2c-.6,2.1,1,4.3,3.3,4.3h0c2.2,0,3.8-2.1,3.3-4.3l-3.1-11.2h0Z"/>
  <path class="st1" d="M557.9,600.7l-5.7-1.5c-.7-.2-.7-1.2,0-1.4l5.7-1.4c.9-.4.9-1.6,0-2.1l-34.3-17c-2.1-1-4.5-1-6.6,0l-34.6,16.6c-.9.4-.9,1.6,0,2.1l5.7,1.5c.7.2.7,1.2,0,1.4l-5.7,1.4c-.9.4-.9,1.6,0,2.1l5.3,1.3c.7.1.7,1.2,0,1.4l-5.3,1.2c-.9.4-.9,1.6,0,2.1l34.3,17c2.1,1,4.5,1,6.6,0l34.6-16.5c.9-.4.9-1.6,0-2.1l-5.3-1.3c-.7-.1-.7-1.2,0-1.4l5.4-1.2c.9-.4.9-1.6,0-2.1h0ZM536,616.2h-8c-.4,0-.9-.3-1-.7l-1.5-5.1c-.1-.4-.5-.7-1-.7h-8.8c-.4,0-.9.3-1,.7l-1.5,5.1c-.1.4-.5.7-1,.7h-8c-.7,0-1.1-.6-1-1.3l9.8-32.3c.1-.4.5-.7,1-.7h11.9c.4,0,.9.3,1,.7l9.8,32.3c.2.6-.3,1.3-1,1.3h.2Z"/>
</svg>