<?xml version="1.0" encoding="UTF-8"?>
<svg id="Capa_1" xmlns="http://www.w3.org/2000/svg" xmlns:xlink="http://www.w3.org/1999/xlink" version="1.1" viewBox="0 0 1053.4 772.9">
  <!-- Generator: Adobe Illustrator 29.0.0, SVG Export Plug-In . SVG Version: 2.1.0 Build 186)  -->
  <defs>
    <style>
      .st0 {
        fill: none;
      }

      .st1 {
        fill: #010101;
      }

      .st2 {
        fill: #1a1aff;
      }

      .st3 {
        clip-path: url(#clippath);
      }
    </style>
    <clipPath id="clippath">
      <path class="st0" d="M1021,412l-75-19c-9.1-2.5-9.1-15.7,0-18.1l75-19c11.5-5.8,11.5-84.6,0-90.3L571,46.4c-27.2-13.2-58.5-13.2-85.7,0L34.4,266.4c-11.5,5.8-11.5,84.6,0,90.3l74.2,19c9.1,2.5,9.1,15.7,0,18.1l-74.2,19c-11.5,5.8-11.5,21.4,0,27.2l69.2,16.5c9.1,1.6,9.1,15.7,0,18.1l-69.2,16.5c-11.5,5.8-11.5,21.4,0,27.2l450,219.2c27.2,13.2,58.5,13.2,85.7,0l450-219.2c11.5-5.8,11.5-21.4,0-27.2l-70.1-16.5c-9.1-1.6-9.1-15.7,0-18.1l70.1-16.5c11.5-5.8,11.5-21.4,0-27.2l.8-.8Z"/>
    </clipPath>
  </defs>
  <path class="st2" d="M1021,411.1l-75-19c-9.1-2.5-9.1-15.7,0-18.1l75-19c11.5-5.8,11.5-21.4,0-27.2l-450-219.2c-27.2-13.2-58.5-13.2-85.7,0L34.4,328.7c-11.5,5.8-11.5,21.4,0,27.2l74.2,19c9.1,2.5,9.1,15.7,0,18.1l-74.2,19c-11.5,5.8-11.5,21.4,0,27.2l69.2,16.5c9.1,1.6,9.1,15.7,0,18.1l-69.2,16.5c-11.5,5.8-11.5,21.4,0,27.2l450,219.2c27.2,13.2,58.5,13.2,85.7,0l450-219.2c11.5-5.8,11.5-21.4,0-27.2l-70.1-16.5c-9.1-1.6-9.1-15.7,0-18.1l70.1-16.5c11.5-5.8,11.5-21.4,0-27.2l.8-.8Z"/>
  <g class="st3">
    <g>
      <path class="st1" d="M706,606.4c5.2,9.8,15.1,21,20.9,31.4,20.9,38.2,32,78.8,34.5,122.4,15.8-14.7,18.3-17.6,14.3-39l-2.1-8.2c-.1-.7.1-1.4,0-2.1l-2.1-8.2c-.1-.7.1-1.4,0-2.1l-2.1-8.2c-.1-.7.1-1.4,0-2.1-.1-3.3,1.3-8.5-2.1-10.3-.1-.7,0-1.4,0-2.1-1.4-9.4-2.1-20.1-6.2-28.7,0-.7,0-1.4,0-2.1-.5-5.3.7-10,1.4-15.1l-5.5-17.8c0-.7,0-1.4,0-2.1l6.2-4.1c1,6.1,5.9,5.7,6.2,6.2.7,1.4-.5,6.1,0,8.2-1.4,1.3-3.4,1.4-4.1,4.1s.4,5.7,0,8.2c3.6,1.4,4.8-1.4,6.1-2,21-9.4,51.4-17.2,71.8-3,1.2,5.2-13.5,10.3-17.4,13.3-13,10-17.9,29.4-15.4,45.1-3.6-15.3-4.1-25.7,6.2-40,3.4-4.8,19.5-14.1,15.5-19.6s-17.3-4.2-20.4-4-42.6,11.8-44.4,13.2c-3.2,2.7-2.2,8.5-2,12.3,1.7,27.6,16.2,58.8,14.3,87.2,18.4-4.1,36-6.6,55.4-6.2.4-6.6-7.6-8.6-11.1-12.5-11.3-13-10-15.3-13.6-30.6,2.4,15.3,20.6,37.5,36.9,39-1.4-3.2,2.6-13.5,2-14.3s-5.6-1.3-8.1-3.3c-26.1-21.2-22.9-55.9,12.2-62.5,2.6,2.4,5.4-6.3,6.2,8.2-7.7-9.4-24.3,1.4-28.5,9.5-5.4,10.6-.4,32.4,9.3,39.4,20,14.5,16-14.8,17-25.5s2.1-4.7,2.1-5c0,2.1,0,4.1,0,6.2,0,20.8-6.4,40.6-6.3,58.5.2,36.8,24.6,79.8,1.7,118.5-1.1,1.8-24.6,26.1-26.2,27.1-4.4,2.7-8.7,2.4-12.1,4.3-7.5,4.2-10.2,14.8-23.3,10.8s-5-5.6-7.6-6.8c-6.1-2.7-14.4,1.7-16.3-8.3-4.4-22.8,17.3-48.5,9.2-72.8-4.6,5.3-6.8,12.1-11.3,17.4-2.7,3.2-8.6,4.3-9.9,8.6-3.1,10.6-3.2,36.3-4.5,48.8-.7,6.5-1.7,15.6-4.1,21.6.3-4.9,1.7-21.3.2-23.6-4.2-6.5-13.2-4.9-19.6-7.2-14.6-5.2-30.9-26.5-34.5-41.4s-2.3-34.6-1-43.2c2.3-15.3,25-37.1,40-40,8.4-1.6,23.2,2.9,21.2-11.7s-33.9-2.6-41.1,0c-25.8,9.3-44.1,47.6-40.9,73.6,1.4,11.4,15.3,51-2.1,55.7-3,.8-11.8-1-13.5-3.2s-4.3-23.1-13.4-10.9c-14.7,19.5,6.6,49.6,28.3,42.1,10.8-3.7,20-22.4,34.5-8.8,6.7,6.3,9,24.9,8.5,33.7-1.1,16.9-22.1,34.6-11.2,55.2,3.9,7.4,8.7,1,12.7,1.8,6.9,1.4,5.9,43.6,27.4,50.5,3.3,1.1,7.2,2.2,6.6-2.5-1.6-12.6-11.2-22.5-12.3-36,15,24.1,20.2,51.2,24.8,78.8,8.2,49.5-4.9,89.4-4.3,137.5.2,21,9.1,49.1,10.3,71.9.8,14.1,3.6,32.6-7.2,42-45.1,39.1-108.2,58.1-166.7,39.6-14.8-4.7-17.2-9.9-16.7-25.9,1.9-51.8,62-66,69.6-115.1-18.6-65.1-22.1-140.8-41.7-204.7-7.2-23.6-19.2-47.1-26.6-71.8-6.9-22.9-10.9-47-19-69.3-8.6,26.9-16.2,54.4-25.6,81.1s-15.5,31.4-16.4,39.1c-1.4,11.5,8.2,37.7,10,51.3,8.1,62.6-15.8,98.2-18.2,153.6s7.4,39.4,8.3,59.4c.3,6.1-1.4,43.5-3.1,46.3-4.8,8.1-56.3,10.9-67.5,12.5-45.4,6.7-89.1,15.7-135.6,12-8.5-.7-33.3-4.4-37.8-11.4-4.8-7.6.8-37,5.5-45.4,11.3-19.9,75.4-41.6,98.2-55.6,13.4-8.2,17.9-10.8,18.4-27.7.6-23.5-3.9-47.4-3.3-71.1.2-7.8-3.2-16.7,6.2-14.4,2.1,7,28.2,3.1,34.9,4.1-.3-3.7,1.3-11.3-1.9-13.5s-28.6-6.4-32.9-7.1-3.4,3.4-5.2,0l-.9-12.4c3.4-.7,5.5.9,8.2,2,38.4,15.7,78.8,11.2,118.7,1.8,5.2-25.7-7.3-51-9.8-74.8-1.9-18.7,14.2-45.7,20.8-64.9,7.2-20.8,25.1-71.1,26.2-90.8.8-14.8-4.6-33.1-4.2-48.3-58.3-4.7-104.3-58.8-137.5-102.6.2-.4,0-1.4,0-2.1,6.1.8,24.9,29.5,30.8,35.9,19.5,21,59.9,53.8,86.7,63,6.8,2.3,17.2,5.2,22.9-.5,33.8-63.1,112.7-119.6,186.7-96.3,8.2-.6-14.9-50.7-17-54.8-3.2-6.1-20.8-34.8-26-34.8s-9.8,4.8-13.8,6c-23.6,7.1-48.6,14.3-73.1,17.4-39.4,5-89.6,5.1-130.3.2-9.7-1.2-46.7-14.6-49.2-13.9s-3.6,3.6-4.5,5.9c-4.6,12.5-15.2,52.6-15.4,64.7s2,5.6,2.1,7.1c-3.5-.5-8.5,5.8-8.2-6.2,6.7-24.6,15.7-48.6,20.5-73.9,1.3-3.1,4.7-5.6,8.2-4.1s1.2,2.9,4.9,4.2c61,21.5,131.4,19.9,194.5,7.5s51.2-11.2,59.1-15.8,2.2-9.5,10.3-2.1ZM665.4,943.3c3.3,7.3,1.9,16,6.8,24s21.4,13.9,23.2,20c3,10.3-7.5,14.6-10.4,21.6-7.6,18.6,21.6,36.5-3.8,55.7-15,11.4-35.3,10.3-53.2,9.4,2,4.1,1.1,15.4,4,17.5s36.3,5,41.8,4.9c25.8-.6,57-11.6,81-20.7,1.9-3.1-3.2-29.4-5.4-34-4-8.2-17.3-13.3-22.7-22.4-5.2-8.8-9.3-25.3-10.6-35.6-1.2-1.5-7.6,9.1-11.2,8.2-6.4-1.5-5.8-31.7-5-37.8,2.5-18.3,22.1-38.8,7.7-59.4-13.2-18.8-20.3,2.7-32.4,5.9-40.3,10.6-56.7-48.9-16.5-54.4.2,9.6-3.6,24.4,10.9,20.1,12.2-3.6,2.2-36.1,1.5-45.8-3.7-53.2,21.4-91.3,77.9-89.2-3.7-21.5,1.3-27.8-21.8-32.5-55.8-11.3-140.4,40.2-162.5,91.3-4.9,11.5,0,42.9,2,56.9,4.3,30.6,12.9,61.5,20.4,91.4,20.4-2,67.1-20.3,78.3,4.8ZM808.4,853.4c-2.9,10.2-11.9,23.3-13.4,31.8s-.6,5.5,2.3,6.2c7.7,2,15.4-14,17.8-19.1,3.6-8,12.3-52.6,15-52.6s3.2,10.5,3.1,13.2c-.7,14.9-7.6,29.7-10.2,44.2,19.1-5.7,16.2-52.5,22.5-58.5s2.3-1.2,4.1-1c.2,6.5-.2,13,0,19.5s-1.5,7.6,2,7.1c4.2-14.2,5.1-29.2,4.1-44.1-.5-8-8.9-56.3-12.3-59.5-9.2-8.7-44.4-6.4-55.5,1.9-3.2,2.4-21.8,25.9-23.6,29.7-3.7,7.6-4.8,18.1-8.1,26.8-2.1,5.4-17,25.5-7.9,28.5,17.5,5.7,21.2-30.6,32.5-30.6,9.3,0,7.6,29,6.9,35.8-1.2,11.6-12.7,36.5-12.1,43.3s3.5,6.8,7.2,7.4c4.6,0,12.4-18,14.3-22.7,4.7-11.8,5.8-28.1,9.7-37.5,1.2-2.9,2.4-4.1,5.7-3.5,1.1,11.8-1,22.4-4.2,33.7ZM749.1,841.2c-1.3-6.4-12.5-6.7-12.4-18.4,0-9.9,14.6-27.9,16.4-41.2,3.1-23.7,2.2-33-21.7-23.8-55.2,21.2-43.3,114.1,15.7,119.3-2-11.6,4.2-24.8,2.1-35.9ZM598.1,963.2c-4.1,5.6,15.3,44,18.1,54s5.6,31.1,6.5,32.5c2.7,4,30.6,2.4,35.9-1.3,9-6.3,2.2-21.6,2.1-30.6,0-6.3,3.4-12.1,2-20.5s-22.6-38.7-25.9-39.7c-5.7-1.7-35.9,1.8-38.7,5.6ZM720.3,1097.7c-4.5,1.4-19.4,3-20,6.1,1.6,17,4.4,34.3,5.6,51.4,1.5,20.1,6.1,57.5,3.9,75.7-2.8,22.7-20.1,40.1-30.3,59.4,11.2,11.7,21.6,20.5,27.5,36.1,1.7.1,27.6-16.6,28.7-18.4,2.8-4.6.4-19,1.1-25.6,1.9-17.3,8.2-29.7,18.1-43.6-7.9-50.5,3.3-101.6,4.4-152.4-2.6-2.5-33,9.4-39,11.3ZM369.5,1301.8l90.4-13.2c4-20.3,10-43.4,28.7-55.4,4.5-2.9,14.7-4.3,16.1-8.7s-2.1-22.5-1.5-30.1c2.6-34.7,17.2-70.9,20.2-105.9-12.8,2.7-27,7.1-40,8.2s-38.5-1.9-41.1,2c-3.4,4.8.5,88.9-.8,103.8-3.7,42.6-53.4,47.6-84.2,64.6,5.3,11.1,13.3,21.8,12.3,34.8ZM693.7,1119.2v-16.4s-43.1,2.1-43.1,2.1c-.7,28.8,24.9,10.9,43.1,14.4ZM654.2,1206.9c3,20.1,2.5,28.1-8.8,45.5-6.8,10.4-18.1,18.9-25.5,28.8,10.6-1.2,20.4-15.5,26.3-23.9,11.8-17.1,15.8-27.1,14.5-48.6-2-32.9-14-69-16.5-102.4,0-3.8-8.9-4.4-9.9-3.5-3.8,3.7,18,90.7,20,104.1ZM430.3,1131.4c5.5,0,6-7,4.7-10.9-1.8-5.3-25.8-3.4-32.6-5.4-3.8,22.4,13.9,10.8,27.9,16.3ZM658.1,1127.7c-6.4,2.1-3.3,14.8,3.8,16.2,3.5.6,32-2.6,32.9-4,2.1-3,1.9-13-2.5-14.3s-27.1,4.3-34.3,2.2ZM403.3,1137.6c-1.8,2.5-1.7,11.7,1,13.6s28.2,3.7,30,1,1.7-11.7-1-13.6-15.1-2.1-18.2-2.3c-3.5-.3-9.4-2.2-11.8,1.3ZM697.6,1162.2c1-1.1.6-11.7-1.8-13.4s-31.4.7-33.7,1.5c-5.5,1.8-3,12.5-1,13.8s34.9-.2,36.5-1.9ZM404.4,1172.5c1.1,1.1,28.5,4.6,30.5-1.3,5.7-17-20.6-9.6-30.5-11,.4,2.6-.7,11.6,0,12.3ZM666.3,1186.6c4.3,1.4,32.6,1.1,33.6-3.1,5.5-22.8-24.6-8.7-37-11,.2,4.4-1.7,12.4,3.4,14.1ZM406.5,1193.1c1,.9,23.1,1.7,26.7,2.1v-14.4s-26.7,0-26.7,0c.4,2.5-.6,11.7,0,12.3ZM701.6,1196.4c-2.6-7.7-27.4,1.6-34.6-1.3v14.4c8.3-1.6,24.9,2.1,31.8,0,3.6-1.1,3.9-9.7,2.8-13ZM429.8,1215.8c2.5-.5,3.4-8.6,3.5-11.2-.4-2.4-25.1-7.7-28-3.5s-1.5,7.3-.8,8.2,24,6.7,25.3,6.4ZM701.9,1232.1v-16.4c-6.1.7-29.4-1.9-32.4,2.5-11.5,16.8,23.1,11.4,32.4,13.9ZM392.1,1222.8c.3,1.2,16.7,11.1,19.2,10.9s13.8-8.8,11.6-11.9c-5.3-2.5-33.7-11.6-30.8,1ZM389.2,1242.3c2.1.3,10.7-1.5,11.1-2.1,5.7-7.9-34.9-18.1-26.6-6.2.5.7,14.7,8.2,15.5,8.3ZM485.4,1246.3c-9.1,9.4-16.9,27.9-15.3,41.1l39-4.1c-2.2-12.2,2.9-35.5,0-46.2-2.1-7.8-20.2,5.6-23.7,9.2ZM694.3,1252.7c1.4-.3,5.7-10.2,5.5-11.4-.5-2.6-25.9-5.9-29.7-5.3s-9.1,10.6-7.3,12.4,29.9,4.6,31.5,4.3ZM355.2,1241.3c9.1,5.9,14.3,17.5,24.6,6.2,0-2.1-15.2-10.5-17.8-10.9-3.8-.6-6.4.2-6.7,4.7ZM336.7,1253.5c7.2,6,17,10.1,24.5,2.1,0-2-11.1-8.4-13.8-8.9-4.3-.7-15.9,2.5-10.7,6.8ZM757.2,1252.6c-12.7,11.8-13,30.9-12.3,47.2,27-6.2,12.5-27.5,12.3-47.2ZM682.1,1270.9c3.3-.9,6.9-10.5,5.5-12.1-2.2-2.5-37-9.4-34.9,6.1,7.2-3.4,25.4,7.1,29.4,6ZM358.2,1303.8c2.3-.4,4-.8,4.9-3.2-1-16.5-22.8-44.1-39.8-44.1-17.7,0-43.2,23.6-40,43.2,22,2.3,53.2,7.9,74.9,4.1ZM641.3,1275.1c-4.1,7.8,10.8,5.8,15.6,7.1,5.8,1.5,13.6,8.9,17.4,1.2,4.4-9.2-11.1-11.1-17-11.7-5.2-.5-12.9-2.3-15.9,3.5ZM679.1,1300.9c-17.9-13.3-56.6-19.5-74.8-5.4-5.2,4-18,29.8-14.5,35,5.6,8.1,64.5,9,75.8,7.9s30.7-6.6,31.9-8.2c4.9-7-12.8-25.2-18.4-29.4ZM283.4,1315.1c3.6,3,31.4,6.9,37.8,7.3,38,2.6,140.8-9,177.9-19.2,7.6-2.1,11.1-2,9.9-11.7-26.2,2.8-52.6,4.8-78.7,8.5-41.6,5.9-73.7,14.8-117.3,12.1-5.2-.3-29.8-6-31.7-4.2-1.1,1-.1,5.3,2.1,7.1ZM613.2,1356.6c52.5,9.1,103.4-4.5,142.9-40.5,5.7-5.2,12.2-16.9.5-13.9-6,1.5-36.2,26.5-47.9,32.1-36.7,17.7-83.5,16.3-121.8,4.4-4,14.6,15.5,16,26.2,17.9Z"/>
      <path class="st1" d="M675.3,164.2c.9,24.9-6.1,61-17.4,83.3-6,11.8-33.9,37.9-12.5,47.2s31.5,8.4,44.2,12.2c2.3,4.5,1.1,6.3,0,10.3-1.8,6.2-6.7,13.4-8.2,18.5-3,5.5-4.1,8.1-10.3,10.3-9.7,3.4-26.4,4.3-31.9,16.5-3.4,7.5,10.3,10.8,2,24.4-9.6,15.6-33.5,9.1-45.8,15.7-9.7,5.2-25.4,25.3-38.5,33.3-27.4,16.7-54.7,20.1-74.1-9.2-4.2-6.2-7.1-20.2-9.6-23.2s-16.3-4-21.2-13.6c-11.2-21.7,20.4-24.2,2.8-43.8-3.9,7-25.6,50.1-25.2,54,1.3,13.5,28.1,26.1,37.5,34.2s21.8,24.1,21.7,40-6.3,29.2-12.6,20.3c-3.1-4.4-2.9-13.6-9-19.3-9.6-9-32.2-5.9-32.1-23.5,0-3,2.7-10.6,2.2-11.2s-5.5-1.4-8-3.3c-6-4.4-9.5-8.3-14.5-13.2s-9.3-.3-4.1-14.4c19.8-29.9,28-49.1,41-82.1,1.9-4.8.3-10.6,3.4-12.5s28.7-8.1,32.5-8.1c7.5,0,0,8.5-.5,11.9s0,6.2-.5,8.7c-6.4,36.5-21.8,95.8,25.4,110.9,6.2-11,8.8-24.1,18.7-32.9,4.3,3.1,2.8,3.7,1.5,7.6s-13.2,24.6-10.7,27.3c33.7-5.5,58.6-32,78.8-57.6,19-24.1,35.1-51.3,50.4-77.7-11.9-2.3-18.2-9.3-21.5-20.5-22.6,19.4-56.1,34.5-86.3,32.9-9.3-.5-18.7-3.8-27.6-6.2s-4.5-2.4-8.1-3.2-6.8,1.5-8.4.3c-2.6-1.9-1-7.3-4-11.5-18.9-25.9-25.3-26.5-34.9-61.5,3-8.3-4.7-19.3-4.2-25.6.5-5.9,6-4.8,6.2-5.1,5.5,3.4,8.1,8.5,14.3,11.3,10.6,4.9,28.4-1.4,24.7,13.9-.2.9-8.7,6-11.2,9.7-9.1,13.6-4.4,31.5,8.4,40.6,3.1,2.2,26,13,29.4,13.8,3.6.9,37.7-8.5,42.5-11,10.7-5.6,17.3-19.1,13.4-30.6-4.6-13.3-19.7-16.2-22-21.1s-1.8-11.6-1-12.3c1.1-1.1,24.5,2.8,31.6,1.9,38.5-5,47.2-52.1,34-84.9-19.3,23.8-41.9,13.6-65,27.2-3.8,2.2-16.9,14.8-18.1,14.7s-7.1-11-10.3-12.2l-12,10.1c-5.8-3.6-7.4-9.8-12.9-13.9-12.8-9.5-29.8-6.7-41.8-18.8-2.1-2.1-3.2-6.3-6.2-8.2,33.8-120.2,210.8-96.8,215.5,29.7ZM596.9,121.7c-14,13.7-28.3-1.4-32.4,21,15.3-14.3,34.3,7.2,32.4-21ZM509,142.7c-.8-15.5-18.3-23.2-30.7-28.7-2.9,18.9,20.1,18.4,30.7,28.7Z"/>
      <path class="st1" d="M494.7,296.6c.2,5.2-2.8,5.3-6.5,6.8-53.9,21.1-68.1,8.2-101.8,66.4-18.6,32.1-33.6,70.9-47.6,105.2-3.1.8-3.4-.8-5.1-2-6.6-4.6-24.9-22.2-31.8-28.7v2.1c4,3.8,22.6,20.3,23.6,22.6,2.1,4.7-.1,7.9-1.1,12.2,9.8-6.1,8.9,7,8,13.2-2.6,19.2-22.6,37-39.4,44.7-10.1,4.6-24.6,11.6-26-4.5-7,.1-9.3-1.5-14.4-6.2,15.9,29.8,53.3,75.5,89.3,78s61.5-42.2,83-63.6c2.4,19.3,9.9,36.4,8,56.2-.5,5.1-2.8,12-3.9,17.7,1.3-3.1,4.7-5.6,8.2-4.1,7.9-14.9,3.2-33.3,2-49.2,83.2,13.3,168.8,11.2,251.3-6.2,1.7,7.6-2.8,15.4-2.5,23.1.4,10.5,7.8,18,7.7,28.2,4.6-2.7,2.2-9.5,10.3-2.1-6.2-11.6-9.7-22.4-8-35.7s12.5-43,16.7-53.1,2.1-5.7,4.7-7.6c12.4,22.5,30.5,43.5,35.7,68.9-2.9,10.9,1.4,23.2,2.3,33.6l6.2-4.1c-2-12.4,2.3-28.4-1-41.1-3.8-14.9-32.8-57.8-41.8-77.2-3.6-7.7-18.7-50.3-21.1-51.7s-5.7-.5-5.9-.3c-5,4.9,12.5,35.9,14.3,42.1,1.9,6.4-7.9,1.3-10.1-.1-41.2-27.3-28.2-104.7-16.5-144.5-3,5.5-4.1,8.1-10.3,10.3-4.8,19.6-7,38.3-18.5,55.4,3.9-3.4,9.9-13.7,13.4-8.3s1.7,26.8.6,28.5-5.6,1.8-7.8,3.5-4.5,5.6-6.2,7.1l10.2-4.1c3,18.9,11.6,44.2,26.9,56.2,4.3,3.4,19.1,9.8,20.1,12.8,1.4,4.3-10.8,45.7-14.1,48.9s-31.6,7.4-38.6,8.6c-59.6,10.3-127.9,12.9-187.8,4.5-4.5-.6-32.8-4.8-33.9-6.1s-1.6-15.3-2.2-18.3c7.6,3.3,17,2.5,25.1,1.5s26.6-5.2,20-11.8c-1.7-1.7-23,3.9-27.7,4.1-32.3,1.5-59.3-31-56.1-62.3,1.2-12.1,8.1-37.1,20.3-42.3-5-4.8-9.3-.3-4.1-14.4-22.1,33.4-38.7,71.5-7.2,106.7,5.9,6.6,18.8,11,13.9,19.9-13.8,18.8-45,59.8-69.5,62-27.3,2.4-51.1-26.8-68.4-44,11.3-7.4,23.9-9.8,34.9-18.4,13.5-10.6,20.3-25.1,27.6-40,4.5,4.2,8.9,9.5,11.6,15s7.2,29.2,13,19.9c1.4-11.1-5.9-22.7-11.3-31.9-8-13.7-13.7-8.2-7.2-27.6,9.6-28.6,51.8-115.8,73.9-133.3,5.4-4.3,17.1-11.4,23.5-13.5s7.2-2.9,6.2,3.2c1.9-4.8.3-10.6,3.4-12.5s28.7-8.1,32.5-8.1c7.5,0,0,8.5-.5,11.9s0,6.2-.5,8.7c4.8-8.7,2.6-16.4,15.4-16.5s4.5-.3,5,.2c.9.8.7,21.6,6.2,16.3s2.4-13.1,2.1-16.4c-2.2-.6-4.5-2.4-8.1-3.2s-6.8,1.5-8.4.3c-2.6-1.9-1-7.3-4-11.5Z"/>
      <path class="st1" d="M749.1,907.9c.3-4.9,1.7-21.3.2-23.6-4.2-6.5-13.2-4.9-19.6-7.2-14.6-5.2-30.9-26.5-34.5-41.4s-2.3-34.6-1-43.2c2.3-15.3,25-37.1,40-40,8.4-1.6,23.2,2.9,21.2-11.7s-33.9-2.6-41.1,0c-25.8,9.3-44.1,47.6-40.9,73.6,1.4,11.4,15.3,51-2.1,55.7-3,.8-11.8-1-13.5-3.2s-4.3-23.1-13.4-10.9c-14.7,19.5,6.6,49.6,28.3,42.1,10.8-3.7,20-22.4,34.5-8.8,6.7,6.3,9,24.9,8.5,33.7-1.1,16.9-22.1,34.6-11.2,55.2,3.9,7.4,8.7,1,12.7,1.8,6.9,1.4,5.9,43.6,27.4,50.5,3.3,1.1,7.2,2.2,6.6-2.5-1.6-12.6-11.2-22.5-12.3-36-1.9-24.5,8.8-57.4,10.3-84.1Z"/>
      <path class="st1" d="M301.8,446.3c-5.3-5-28.9-27.8-32.9-29.7-7.9-3.9-7.1.7-10.2,3-5.8,4.4-10.8,9.9-16.4,14.4s-5.6,6.5-11.8,7.7c-15.2,3-22.2-5.6-17,16.9s31.3,62.6,39,69.7c5,4.7,7.3,6.3,14.4,6.2,24.5-.5,52.4-30.3,57.4-53.3.9-4.3,3.2-7.5,1.1-12.2s-19.6-18.8-23.6-22.6Z"/>
      <path class="st1" d="M301.8,446.3c-5.3-5-28.9-27.8-32.9-29.7-7.9-3.9-7.1.7-10.2,3l12.3-90.3c-18.9-1.6-16.5,22.1-21.6,32.7s-13.8,10.1-18.2,16.6-12.2,39.3-13.6,15.3c-1.2-20.6,19.1-27.9,18.6-36.8-9-12-21.1-64.7-29.6-71.1s-9.8-.5-9,6.7c2,16.6,12.4,33.7,14.2,50.6.7.7,15.4.2,7,6.4-7.1,5.2-18.8,8.7-27.5,15.5-7,5.5-12.9,13.3-19.7,19.3-5.1-10.9-31.6-34.9-43-34.9s4,14,6.1,16.5c9.1,11.2,23,18.7,31.8,29.8,9.2,11.6,11.3,23.7,24,33.4,16.7,12.8,33.3,14,52,4.5-3.7,3-5.6,6.5-11.8,7.7-15.2,3-22.2-5.6-17,16.9-3.7-13.4-10.3-10.6-19.5-16.4-22.3-13.9-19.9-22.2-33.8-40-9.5-12.1-50.3-40-42-56.5,3.6-7.2,17.1-3.6,23.6-2.1,2.3-2.3-18.2-21.8-7.1-34.8,5.5-6.5,13.2-4.3,19.4,0,1.8-2.4-8.8-19.4,4.7-25.1,17-7.3,24.2,18.7,34.3,27.2-4.9-13.4-5.4-46.2,17.1-32.9s20.3,57.9,33.2,69.8c6.1-13.2,9.3-32.3,28.6-28.7,16.8,3.2,3,38.4,1.4,50.5-1.7,12.6.9,25.8-4.4,38.7.3,2.8,28.1,31.4,32.8,35.9v2.1ZM161.9,304.2c1.6,5.2,20.8,41.5,24.1,45.6,6.7,8.4,17.5,0,16.5-4.1s-20-34.8-23.7-40-13.1-18.7-18.5-13.3c-1.3,1.3.8,9.2,1.6,11.7ZM139.9,316.3c-2.8,9.6,25.9,45.8,33.7,54.1,3.1-3.9,10-6.7,8.4-12.3-1.5-5.5-33-44.2-37.2-45.1s-4.4,1.6-4.9,3.3Z"/>
      <path class="st1" d="M689.6,306.8c2.3,4.5,1.1,6.3,0,10.3,67.3,7.6,96.7,55.5,120,112.9,22.1,54.3,42.3,117.6,42.1,176.4-26.8-6.1-58.2-7.2-82,8.2.7,1.4-.5,6.1,0,8.2,14.4-13.1,62.2-16.3,79.2-8.4s2.1,30.4,4.9,33,5.4-6.3,6.2,8.2c.3,5.8.3,12.7,0,18.5,0,2.1,0,4.1,0,6.2,3.4-2.1,2-7.8,2.1-11.3,1.2-98.4-12.3-173.3-53-263-30-66.1-51.7-79-119.3-99.1Z"/>
      <path class="st1" d="M394.2,1119.2c.2-7.8-3.2-16.7,6.2-14.4-1.2-3.8.8-11.8,0-16.4-.4,0-3.4,3.4-5.2,0l-.9-12.4c3.4-.7,5.5.9,8.2,2v-14.4c4.8-.1,9.6.2,14.4,0v-2.1c-2.7.2-5.5,0-8.2,0-4.8,0-9.5,2.1-14.2-.2-.5-4.7-.2-9.5-.2-14.2s0-1.4,0-2.1c.2-3.4-.2-6.9,0-10.3,2,.2,4.2-.2,6.1,0-6-30.6-7.1-61.1-6.2-92.3-1.9-.2-7.8-1.3-8.3-3.4s.5-15.6,2.4-16.8,37.2-.7,42.8-.3c-6.9-5.7-36.3,1.5-40.1-4-3.8-20.1-1.5-30,13.5-43.2-9,.7-12.6,15.7-22.6,14.4v-41c0-.8,7.6.3,10.3-2.1-4.9-19.8.4-44.4,4.4-64.3.7-3.5.8-7.1,3.8-9.5-.8-1.4-4.2-2.6-5-4.1-3.9-7.7,1-27.3,9.1-23.6s12.8,13.3,14.3,15.5c.7-9-13.7-15-14.4-21.6-.4-4.3,6.6-28.3,8.3-34.9s3.9-4.8,4.1-5.1,0-1.4,0-2.1c-3.5-.5-8.5,5.8-8.2-6.2-18.3,67.5-32.1,135.6-28.8,206.3,3.4,71.4,11.6,138.8,12.4,211.2,0,3.5-1.3,9.1,2.1,11.3Z"/>
      <path class="st1" d="M459.8,134.5c2.9,1.9,4.1,6.1,6.2,8.2-9.2,19,26.4,16.8,37.8,26.8s13.3,20.4,11.5,30.6l15.4-16.4c7.6,2.8,27.6,47.1,16.4,47.1h-34.9c-8.3,0,1.8-23.6,1-24.6-22,9.5-42.1,3.5-52.3-18.5-3.7,2.3,1.5,15.7,1,16.4s-5.8-.8-6.2,5.1c-.5,6.3,7.2,17.3,4.2,25.6-9.1-33.5-9.4-67,0-100.5ZM491.7,204.4c18.1,1,22.5-8.2,12.2-22.6-3.1,2.4,2.8,10.5,1,12.3s-4.5-1.9-6.8-1.5-5.2,5-10.4,3.4-2.2-15.2-3.3-16.3-15.8,2.3-14.4-5.1c1.2-6.2,16.6-.1,18.4-5.1l-22.5-6.2c-2.1,18.6,3.7,39.9,25.7,41.1ZM517.2,224.8h24.6c1.8-5.3-8.7-32.6-14.3-28.7s-12.4,26.6-10.3,28.7Z"/>
      <path class="st1" d="M416.7,696.6c6.1.8,24.9,29.5,30.8,35.9,19.5,21,59.9,53.8,86.7,63,6.8,2.3,17.2,5.2,22.9-.5,33.8-63.1,112.7-119.6,186.7-96.3,8.2-.6-14.9-50.7-17-54.8-3.2-6.1-20.8-34.8-26-34.8s-9.8,4.8-13.8,6c-23.6,7.1-48.6,14.3-73.1,17.4-39.4,5-89.6,5.1-130.3.2-9.7-1.2-46.7-14.6-49.2-13.9s-3.6,3.6-4.5,5.9c-4.6,12.5-15.2,52.6-15.4,64.7s2,5.6,2.1,7.1Z"/>
      <path class="st1" d="M810.6,688.4c-3.6-15.3-4.1-25.7,6.2-40,3.4-4.8,19.5-14.1,15.5-19.6s-17.3-4.2-20.4-4-42.6,11.8-44.4,13.2c-3.2,2.7-2.2,8.5-2,12.3,1.7,27.6,16.2,58.8,14.3,87.2,18.4-4.1,36-6.6,55.4-6.2.4-6.6-7.6-8.6-11.1-12.5-11.3-13-10-15.3-13.6-30.6Z"/>
      <path class="st1" d="M859.8,674.1c.3-5.8.3-12.6,0-18.5-7.7-9.4-24.3,1.4-28.5,9.5-5.4,10.6-.4,32.4,9.3,39.4,20,14.5,16-14.8,17-25.5s2.1-4.7,2.1-5Z"/>
      <path class="st1" d="M761.4,647.4c-.5-5.3.7-10,1.4-15.1l-5.5-17.8c1,10.3,0,23.5,4.1,32.8Z"/>
      <path class="st1" d="M765.5,626.9c-.6,2.2.4,5.7,0,8.2,3.6,1.4,4.8-1.4,6.1-2-4.9,1.3-3.7-3.2-6.2-6.2Z"/>
      <path class="st1" d="M767.5,678.2c-1.4-9.4-2.1-20.1-6.2-28.7.8,9.4,1.6,20.5,6.2,28.7Z"/>
      <path class="st1" d="M769.6,690.5c-.1-3.3,1.3-8.5-2.1-10.3.6,3.7,1.6,7.4,2.1,10.3Z"/>
      <path class="st1" d="M775.7,721.2l-2.1-8.2c.6,3.1,1.7,6.4,2.1,8.2Z"/>
      <path class="st1" d="M773.7,711l-2.1-8.2c.6,3.5,1.7,6.3,2.1,8.2Z"/>
      <path class="st1" d="M771.6,700.7l-2.1-8.2c.6,3.3,1.8,6.6,2.1,8.2Z"/>
      <path class="st1" d="M652.6,401.2c-8.8,7.7-17,15.6-28,20.3-20.5,8.7-43.2,8.6-62.1,24-12.2,10-26.2,35.6-15.5,50,6.2,8.4,10.4-5.8,13.3-9.2,13.3-15.3,22-8.3,37.4-13.9,16-5.8,6.7-14.3,10-19.7.7-1.2,21.4-5.3,26.4-7.4,7.9-3.4,12.6-8.4,18.5-13.3,1.8-1.5,3.3-4.8,6.2-7.1s7.3-2.7,7.8-3.5c1-1.6.8-26.2-.6-28.5-3.5-5.4-9.5,4.8-13.4,8.3Z"/>
      <path class="st1" d="M400.3,772.5c10.2,18.8,8.3,59-8.2,73.9-2.6,2.4-10.3,1.2-10.3,2.1v41c9.9,1.4,13.6-13.7,22.6-14.4,9.5-.7,11.7,9.8,19,12.8,28.1,11.6,51.9-39.4,15.9-45.6,1.9,16.2-14.1,20.3-14.4,3.2-.5-30.5,16.8-52.5-6.1-85.2-1.5-2.2-12.9-14.8-14.3-15.5-8.1-3.7-13,15.9-9.1,23.6.8,1.6,4.2,2.7,5,4.1Z"/>
      <path class="st1" d="M431.1,922.3c-5.6-.4-41-.8-42.8.3s-3.1,14-2.4,16.8,6.4,3.2,8.3,3.4c8,.8,18.1-1.3,25.6,0,11.1,2.1,8.6,14.6,11.8,23.1,2.6,6.7,12.1,20.6,11,26.1s-9.6,13-11,19.9,2.6,20.5-4.6,27.2c-11,10.4-23.3-8.9-32.8,6.2,0,.7,0,1.4,0,2.1,2.9,10,5.8,10,14.4,14.4,2.7,0,5.5.2,8.2,0,12.6-.9,20.6.9,30.8-9.2,12-11.9,2.6-27.6,6.5-40.7,2-6.7,15.7-11.4,16.2-20.9s-17.4-16-18.3-35.6c-.1-3.1,1.6-4.2,1.6-4.4-.9-19.3-.4-27.2-22.6-28.7Z"/>
      <path class="st1" d="M416.7,1061.8v2.1c11.4-.4,26.7,1.3,34.9-9.2,8.3-10.7,1.1-29.4,4.5-40.7,1.7-5.6,15.9-13.6,17.6-19.3,5.3-17.5-10.8-16.9-15.7-26.5-3.1-5.9-1.4-11.6-4.4-17.2,0,.2-1.8,1.3-1.6,4.4.9,19.6,18.9,23.9,18.3,35.6s-14.2,14.3-16.2,20.9c-3.9,13.1,5.5,28.7-6.5,40.7-10.2,10.1-18.2,8.2-30.8,9.2Z"/>
      <path class="st1" d="M400.3,1035.1c-2-.2-4.1.2-6.1,0-.2,3.4.2,6.9,0,10.3,9.5-15,21.8,4.3,32.8-6.2-9.3,2-18.5-3.1-26.7-4.1Z"/>
      <path class="st1" d="M394.2,1047.4c0,4.7-.3,9.5.2,14.2,4.7,2.3,9.4.1,14.2.2-8.5-4.3-11.5-4.3-14.4-14.4Z"/>
      <path class="st1" d="M537.8,518.2c.5,9.6,13.3,15.5,21.2,18.8,24.6,10.4,50.8,10.5,74.6-2,6-3.2,30.6-21.8,29.4-28-2-9.7-18.3,10.3-20.7,12.1-19.4,14.7-43.9,20.2-67.6,14.6-13.9-3.3-23.5-12.4-36.8-15.5Z"/>
      <path class="st1" d="M624.6,179.3c-4,16.3-17.7,31-34.7,33-23.1,2.6-57.1-4.7-35.7-33.6,7.3-9.9,17.6-13.3,29-16.1s37.6-7.7,39.5-7.3c5.8,1.4,3,19.3,1.8,24ZM556.5,199.9c1,1.6,22.3,6.2,25.7,6.3,26.3.6,36.8-19.1,35.6-42.9-15.2,4.3-31.4,4.9-45.1,12.3s-22.5,14.4-16.1,24.3Z"/>
      <path class="st1" d="M571.4,249.6c22.7,37.4-86.6,43.9-78.8,3,.4-1.9,5.5-9.9,6.8-10.7,12.1-8.2,63.4-6.4,72,7.7ZM500.8,260.6c2.9,17,69.5,19.8,65.8-3.9-1.5-9.8-30.4-12.6-38.4-12.6-11.4,0-30,.7-27.4,16.6Z"/>
      <path class="st1" d="M572.6,175.6c-1.2.6-14.7,15-12.3,18.5,9.8-5.1,12.1,3.5,17.5,4.2,11.5,1.4,5.5-14.9,7.1-16.5s20.7.7,24.6,0c-.8-10.9-30.9-9-36.9-6.1Z"/>
      <path class="st1" d="M509,253.5c-10,8.7,36.8,8.6,40.1,8.3s6.7.4,9.1-3.2c1-5-4-2.9-7.1-3.1-14.1-.5-28-2.3-42.1-2Z"/>
      <path class="st2" d="M519.9,589l-3.1,10.6c-.6,2,.9,4.1,3,4.1h0c2.1,0,3.7-2,3.2-4l-2.7-10.7h-.4s0,0,0,0Z"/>
      <path class="st1" d="M484.2,599.5c-.8.4-.9,1.5,0,2l5.1,1.3c.7.2.6,1.2,0,1.3l-5.1,1.1c-.8.4-.9,1.5,0,2l32.3,16.5c2,1,4.2,1,6.2.1l32.9-15.3c.8-.4.9-1.5,0-2l-5-1.3c-.7-.2-.6-1.2,0-1.3l5-1.1c.8-.4.9-1.5,0-2l-5.3-1.5c-.7-.2-.6-1.1,0-1.3l5.4-1.3c.8-.4.9-1.5,0-2l-32.4-16.6c-2-1-4.2-1-6.2-.1l-32.9,15.3c-.8.4-.9,1.5,0,2l5.4,1.5c.7.2.6,1.1,0,1.3l-5.5,1.3h0ZM504.7,614.8h0c-.7,0-1.1-.6-.9-1.2l9.9-30.4c.1-.4.5-.6,1-.6l11.2.2c.5,0,.8.3.9.7l8.7,30.7c.1.6-.3,1.2-1,1.2h-7.6c-.5-.2-.8-.4-.9-.8l-1.3-4.9c-.1-.4-.5-.7-.9-.7l-8.3-.2c-.5,0-.8.2-1,.6l-1.5,4.8c-.1.4-.5.6-1,.6h-7.6c0-.1.1-.1.1-.1Z"/>
    </g>
  </g>
  <path class="st1" d="M520.4,588.7h-.4l-3.1,11.2c-.6,2.1,1,4.3,3.3,4.3h0c2.2,0,3.8-2.1,3.3-4.3l-3.1-11.2h0Z"/>
  <path class="st1" d="M557.9,600.7l-5.7-1.5c-.7-.2-.7-1.2,0-1.4l5.7-1.4c.9-.4.9-1.6,0-2.1l-34.3-17c-2.1-1-4.5-1-6.6,0l-34.6,16.6c-.9.4-.9,1.6,0,2.1l5.7,1.5c.7.2.7,1.2,0,1.4l-5.7,1.4c-.9.4-.9,1.6,0,2.1l5.3,1.3c.7.1.7,1.2,0,1.4l-5.3,1.2c-.9.4-.9,1.6,0,2.1l34.3,17c2.1,1,4.5,1,6.6,0l34.6-16.5c.9-.4.9-1.6,0-2.1l-5.3-1.3c-.7-.1-.7-1.2,0-1.4l5.4-1.2c.9-.4.9-1.6,0-2.1h0ZM536,616.2h-8c-.4,0-.9-.3-1-.7l-1.5-5.1c-.1-.4-.5-.7-1-.7h-8.8c-.4,0-.9.3-1,.7l-1.5,5.1c-.1.4-.5.7-1,.7h-8c-.7,0-1.1-.6-1-1.3l9.8-32.3c.1-.4.5-.7,1-.7h11.9c.4,0,.9.3,1,.7l9.8,32.3c.2.6-.3,1.3-1,1.3h.2Z"/>
</svg>