<?xml version="1.0" encoding="UTF-8"?>
<svg id="Capa_1" xmlns="http://www.w3.org/2000/svg" version="1.1" viewBox="0 0 1190.6 1297.5">
  <!-- Generator: Adobe Illustrator 29.0.0, SVG Export Plug-In . SVG Version: 2.1.0 Build 186)  -->
  <defs>
    <style>
      .st0 {
        fill: #010101;
      }

      .st1 {
        fill: #030303;
      }

      .st2 {
        fill: #111;
      }

      .st3 {
        fill: #121212;
      }

      .st4 {
        fill: #101010;
      }
    </style>
  </defs>
  <path class="st0" d="M616.9,16.4c85.6,19.2,97.4,126.4,57.6,191.6-7.4,12.2-24.4,23.9-6.7,37.6,88.5,18.1,128.5,35,164.1,119.9,33.5,80.1,51.5,157.3,47.1,245-1.1,22.1-8.6,49.3-8.2,69.9.6,35.1,25.5,86.3-2.8,119-12.5,14.5-19.8,16.7-34.9,25.1-5.2,2.9-5,8.1-13.1,9s-10.2-3.1-16.6-5.6-12.2,0-14.2-5.8c-4.9-14.5,7.8-31.5,9.4-45.9,1-8.7-.2-18,.2-26.8-5.6,4.1-7.5,11.6-12,17s-7.7,4.2-9,7c-3.7,7.7-5.5,53.9-7.2,66.8-2.5,18.7-14.5,73-10.8,87.3,1.7,6.5,8.1,17.4,11.1,25.9.3,5.6,1.2,12.2-6,12-1.1-.8-5.1-.8-7.9-3.1-12.5-10-20.1-31.1-18.1-46.9-3.1-3.5-13.6,18-17.6.5-6.9-30.6,24.5-62.1,6.4-86.4-14.5-19.5-19.1,3.3-32.8,6.9-38,10.1-49-48.4-17.1-53.1s2.7.3,3,3c.8,6.5-2.8,20.3,8.9,19.2,14.1-1.3,3.7-41.8,3.1-51.2-2.9-47.4,25.6-86.8,76-81-1.6-15.9,1.1-29.6-17.5-33.5-55.6-11.7-124.6,29.9-154.5,75.5-7.4,3.6-13.3,17.9-20.1,21-5.6,2.6-12-2.4-17.9-1-24.6-7.3-28.9-13.6-48-28-13.8-15.8-31.3-28.1-45-44-5.2-6-8.5-12.8-13-19s-11.5-8.6-11.7-15.9,3.3-11.5,1.7-17.1c3.8-13.7,8-28.1,11.1-41.9.5-2,2.7-6.5-1.1-6.1-17.2,39-43.4,73.4-68,108-3,.2-5.4-.7-8-2-13.3-6.8-20.8-12.2-36-18s-8.8-1.9-12-5c2.6-3.3,6.5-4.9,10-7,12.9-7.8,20.8-10,28.4-24.6,11.8-22.7,4.4-41.6-4.4-63.4,27-1.2,52.9,12.6,71,32,14.3-10.1-10.5-25.1-19.7-30.3s-39.4-16.9-50-13.3-11.2,20-11.4,22.9c-.3,5.3,7.1,11.5,8.1,19.8s.4,18.1-4,27c-6.7,4.4-13.3,10.3-22,10-1-1,1.5-20.6,2-24,3.5-22.9,12.6-47.8,22.3-68.7,6.7-14.5,19-30.7,22.8-45.2,16.5-64.2,5.2-148.6,61.9-196.1,24-20.2,51.4-23.2,79-35-17.8-16.2-32.6-40.9-36-65s-1.9-18.5.1-19.9c4.2-.9,8,1.1,11.9,1.9s25.4,4.1,26.2,5.2c8.1,11.1-8,14.4-12,22.1-7,13.8,1.5,28.6,12.8,36.7s28.1,13.9,30,13.9,35.4-9.7,38.4-11.5c12.3-7.3,19.3-22.9,10.6-35.4s-21.7-10.7-19.1-25c2.1-3,26.7,1.1,34,0,32.6-5.2,50.6-59.9,37.1-87.9-23.8,30.2-64.4,13.6-87.2,45.9l-11.9-11.8-11.7,9.9c-12.7-16.9-24.7-19.3-43.1-25.9-4.6-7.8-16.2-8.6-14-20,19.5-55.7,70.1-80,128-67ZM545.8,31.4c-3.5,5.8,10,22.5,3.2,27.1s-31.9-21.8-40,1.7c10.9,8.9,21.6,14.1,30.8,25.3,1.8,2.2,2.9,7.5,3.2,7.8,1.3,1,9.9-2.9,15.9-1,7,2.2,13.9,18.6,25.9,15.1,1.1-5-3.6-8.6-3.8-12.9-.4-11.9,13.1-22.9-6.2-30.1,3.2-12.8,20.6-2.1,29.2-1.1,18.2,2.2,13.3-4,22.1-9.6s30.1-5.9,20.3-15.7c-10.9-10.9-23.2,5-38.9-4.1s1.7-9.1-8.1-10c-7-.7-6.2,2.2-4.5,7.5-9.4.5-43.8-8.8-49.1,0ZM670,89.3c1.6,2,11.9,25.1,14.7,14.8,3.9-14.3-8.1-15.8-9.6-20.1-1.4-4.3,1.9-8.5.9-12.7-5.6-24.2-35.8-6.6-35.1,12.1,13.9-4.2,19-6.7,29.1,5.9ZM634.9,65.4c-13.7,13-41.9,10.1-46,32,15.2-12.5,48.6-5.4,46-32ZM507.8,81.6l27.2,15.8c.6-6.4-3.6-11-7.9-15.1l-22.1-12.9c-.2,4.4-.7,9,2.8,12.2ZM668,131.5c-5.3,5.1-6.5,20.9-12.8,27.3,10.6,11.9,22.1,32.3,29.2,5.1s1.1-16.8.4-27.5c-.2-3.1,4-11.6-.9-12.9s-14.4,6.6-15.9,8.1ZM616.4,202.9c2.9,11.4-5.2,20.4,10,26,7.1,2.6,20.2,3.9,25.9-2s9.4-14.4,9.6-15.3c1.9-7.3-7-6.2-11.1-9.2s-3.6-7-8.8-9.2c-4-1.7-35.2-9.3-37.2-7.8,2.8,4.7,10.2,12.4,11.5,17.5ZM502.9,198.4c-2.6-2.9-1.7-8.2-6-9-.6.8,1.5,9.6,2,10s4.2.7,3.9-1ZM538.9,275.4c-9.5,1.3-4.7-14.7-6-16-5.8-.3-12.4-.3-15.6,5.4-3.1,5.5-8.6,32.5-9.8,40.2-4,25.7-4.4,59.1,18.4,76.4,2.9,2.2,11.2,8.8,13.4,3.5,4.4-10.5,5.9-25.9,19.5-29.5-2.8,9.4-9.4,17.7-11.6,27.4-2,9,9.3,3.2,13.6,1.6,40-15,66.9-56.3,89.3-90.7s16-25.2,22.7-38.2l-12.1-4.9c-5.4-1.2-6.6-16.9-10.9-15.1s-16,13.1-23,17c-27.6,15.4-55.8,17.7-86,9l-2,14ZM540.9,251.4c2-5.1-11-9-12-8-.1,6.6,6.3,8.8,12,8ZM590.9,250.4c0-5.5-31.5-4.5-30,7,6.3,4.3,29.8.5,30-7ZM693.9,285.4c3-.7,10.7-20.2,9-22-5.3.6-17.9-5.6-22-3.1s-10.5,16.6-8,19.1c7-4.5,19.7,6.3,21,6ZM715,390.2c-.3-3.8,1.6-8.9,4.9-4.8,5.4,6.8,16.2,41,21.6,52.4,7.8,16.5,40.9,68.1,41.5,80.7s-2.1,9-1.9,12.1c.4,8.5,3.3,17.7,1.8,26.8,29.7-11.2,56.6-15.6,88-8-1.3-52.3-16.5-101.9-34.5-150.5-18.2-49.2-36.7-99.2-88.2-121.8-5.4-2.4-28.6-11.2-32.7-11.3-5.9-.1-9.3,13.1-11.1,18.1-15.1,39.8-21.2,90.1.9,128.2,5.3,9.1,12.9,17,23.6,19.4,2.4-2.6-13.4-34-13.9-41.2ZM446.9,292.4c-49.1,40.8-43.2,132.1-56.9,189.1-4.3,17.8-16.8,31.9-23.1,48.9,3.9,5.1,10.8,2.2,16.5,3.5,14.3,3.2,30.1,9.3,42.1,17.9,16.4,11.7,14.7,25.1,26.3-2.4,3.5-8.2,9.3-22.2,8.9-30.7s-7.7-41.4-8.9-43.2c-2.1-3.1-16.3-9.1-22-16-33.6-41-1-95.4,28.2-127.9l20.9-56.1c-3.3-3.2-28.1,13.7-32,17ZM498.9,307.4c3.4-12.3,0-18.1-12-22l12,22ZM464.1,497.6c1.4,1,23.9,4.9,28.1,5.5,72.3,10.6,155.5,5,226.3-12.2l14.5-51.5c-30.3-2.9-44.3-39.8-48-66-1.5-1.5-19.8,15-23.9,17.1-5.8,3-29,7.9-29.9,9.1-1.8,2.7,2.4,10.4-3.1,15.9s-23.8,4.3-33.2,8.8-11.9,12.9-18.9,19.1c-16.3-17.3-.9-41.4,15.2-52.8,27.8-19.7,59.3-12.4,82.8-41.2,10.9-13.3,16.9-34.2,18.9-51.1.4-3.3.3-3.1-2.9-2.9-8.2.4-31.2,11.9-28.8,20.7s10.2,5.3,3.5,18.1c-8.3,15.9-33.7,9.9-45.2,14.8s-19.4,19.7-26.5,25.5c-25.8,21-62.4,33.2-83.7-.3-4.1-6.5-5.6-18.4-9.4-22.6-4.3-4.9-18.2-5.4-21.9-14.1-7.2-17,8.5-19.2,9.1-28.9.3-4.2-2.7-15.7-8.3-12.1-1.3,7.8-22,48.7-21.7,51.6,2.1,16,40.5,31.5,50.5,47.7s11.6,35.9-1.8,45.8c-4.7-3.7-4.4-10-7.3-14.7-9.1-14.8-23.3-9.8-31.8-18.2s-.9-19.6-1.9-21-23.1-10.8-25-18.1c-21.1,25.9-23.8,68.1,3,91,20.4,17.4,37.5,13.6,62,9,4.2,3.8-13.1,10-15,10h-29c-.7.7,2,17.4,3.2,18.2ZM651.9,325.4c4.5-.2,2.8-16.3,3-19.9-11,0-13.3,20.4-3,19.9ZM630.9,339.4c1.8,2.1,22.3-7.3,0-6,.3,1.6-.4,5.5,0,6ZM682.9,357.4c-4.3-4.3-19,11.3-20,16,6.6,3.7,24.3-11.6,20-16ZM450,357.4c-10,1.9,4.6,16.4,9,12,2.4-2.5-5-12.7-9-12ZM590.9,404.4c.4,1.3,16.6,6.6,19.2,7,16.7,2.4,15.3-17.8,9.6-19.7-7.3-2.4-31.3,3.3-28.7,12.7ZM504.9,410.4c.3-1.3-5.7-13.2-7.1-14.9-8.4-10.3-19.6-.3-20.9,9.9,5.3-1.6,26.3,14,28,5ZM797.1,676.4c-6.6-42.7-18.6-84.8-22.2-127.9-.8-10.1,1.5-22.2,0-32-2.9-18.2-28.4-46.5-34.9-65.1-2.4,1.6-2.7,4-3.6,6.4-3.6,9.6-20,59.9-19.4,66.4,1.5,15.5,22.6,41.6,30.3,55.8,20,37.1,30.1,77.3,33.7,119.3,7.3-5.8,16.6-12.5,16.1-23ZM465.8,557.5c79.7,31.8,173,18.2,253.1-6.1-7.5-17.2-11.8-31.7-4-50-2-1.8-38.7,6.8-45.3,7.7-67.3,9.3-138.1,9.5-204.7-3.7,4.6,17.6,6,34.4.9,52.1ZM845.7,565.6c4.8.7,19.5,5.4,15.2,11.8s-19.3,5.2-26.4,16.6c-16.8,27.3,1.4,65.9,30.4,75.4,7.2-18.7-10.9-18.7-18.4-32.6-6.2-11.5-5.7-30.9,5.4-39.4,5.3-4.1,17.9-4.8,18.8-6.2s.7-29.7-.7-31.8c-4.7-7-44.8-6.7-53.6-5.4-10.6,1.5-36,9.4-31.5,23.5,19.7-7.8,39-14.8,60.8-11.8ZM703.6,567.8c-13.5-4-21.7,7.2-32.2,9.2-43.6,7.9-89.1,7.6-133.6,6.5-6.9-.2-14.9-3.3-22-3s-17.5,6.3-24.3,6.4-12.9-4.1-13.8-5.3,2.6-7.7,1-10-14.6-5-15.8-4.1c-5.2,7.7-1.8,20.4-3.1,26.2s-7.3,7.5-8.6,13.1c-4.3,18.2,3.2,12.6,7.1,17.1,5,5.8,3.1,22.2,8.5,30.5,10,15.5,15.8,3.2,20.1,5.8,4.7,3.8,2.7,11.4,5,15.1s18,4.1,23.5,16.5c1.8,4.1.9,8.5,3.4,12.6,3.5,5.9,18,9.1,24.3,8,7.5-1.2,10.7-10.8,19.9-6.2,3.1,1.6,2.6,6.7,7.7,8.2,23.4,6.7,20-12.9,30.1-24.2,3-3.3,9.7-4.5,11.1-6.9,2.2-3.7,0-10.3,1.2-11.8s15-4,18.5-6.4,20.1-18.1,21.2-19.8c3.3-3.2,7.6.4,10.9,0s2.7-1.8,3.1-1.9c10.7-2.6,13.1-6.3,20-10,6.5.6,13-1.9,16-8,3.4-.3,6.8,1.6,10,2s6.7-.3,10,0c6.8,1.4,24.9,5.5,30,3s4.2-13.4-2-17-17.1,1.6-16-6c4.2-8.4,10.3-22,0-28s-19.3,2.8-20,2c-2-2.4,2.2-3.8-8-10s-.8-2.9-3.3-3.6ZM810.9,587.4c-.4.7-1.3,1.6-2,2l-8,2c-8.1,1.8-12.3-.2-9.6,10.5,1.9,7.4,6.2,10,13.6,9.5l2,14c-1.7,4.1-7.4,14.4-7.6,15.3-.6,2.8,8,23.8,5.6,30.7,1.3,1.2,12-5.3,15.5-5.7s26,5,16.6-7.5c-2.9-3.8-7.4-3.3-10.1-4.9s-4.8-3.8-6-6c.2-.4-.1-1.3,0-2,5.4-4,.5-10.7,0-14s.6-9.2-1.8-12.8c-1.6-2.4-5.2-.6-6.2-1.2-1.6-.9-4.7-6.3-2-8,11.3-4.5,12.6-22.7,26-29,1.6-7.7-18.9-5.9-24-1s-2.3,4.6-2,8ZM870.9,601.4c-16.2-2.2-8.2,12.2-2,8s2.4-7.6,2-8ZM851,618.4c.6,3.7,5.8,5.4,6.6,7.4,1.8,4.8.3,10.6,3.2,14.7,5.9,8.4,5.2,1.2,6.1-1.1,3.9-10.1,4.9-18-6-22s-5.8-4.7-10,1ZM830.9,762.4c1.1,8.3-1.5,20.1-3.9,28.1-2.4,8.1-12.9,24.3-13.8,30.4s0,4.5,2.7,6.5c7.3,2,15-13.5,17.3-18.6,3.6-7.8,12-51.3,14.6-51.3,5.4,0,1.1,22.7.5,26.4-2.1,11.2-6.9,20.7-9.4,31.5,20.1-9.5,20-40.5,22-60,11.9,2,3.5,23.2,2.6,31.6s-2.3,6.8,1.4,6.4c8.6-18.1,9.5-37.1,8-57s-7.7-52.1-11.8-56.2c-8.4-8.3-46.3-6-56,2.3-2.7,2.3-19.3,25-21.3,28.7-4.5,8.8-4.7,17.5-7.9,26.1-1.8,4.8-15.1,23.2-9.1,27.1,15.5,10.2,20.7-22.1,32.1-28.1s8.2,23.2,8,28c-.6,13.3-13.9,45-11.7,51.7,4.8,14.7,17.9-10.5,20.1-15.3,3.5-7.9,10.2-39.8,11.7-41.3,2.9-2.9,3.6.2,4,3ZM746.9,683.4c-2,.2-4-.1-6,0,.9,11,12.8,3.7,19,2,3.2-2.6-1.5-1.9-3-2-1.3-3.2-8.7-3.2-10,0ZM717.1,762.2c2.6,22.7,24.6,53,49.8,51.2-1-11.6,4.7-27.4,2-38.6-.8-3.1-11.2-2.3-10.2-16.4.8-10.7,14.1-27.8,14.1-36v-29c-39.2-2.7-59.9,33-55.8,68.8ZM718,701.3c-5.9.6-11.6,12.6-9,16,5.5,7.3,24.8-17.7,9-16ZM557.9,715.5c-13.2,17.1,23.5,16.5,10.5,4.4-2.3-2.1-7.8-2-10.5-4.4ZM708.9,773.4c0-1.5,1.6-21.5-4-16-1.5,1.5-3.3,18.4,4,16ZM691.4,829c8.9-1.6,10.8-9.2,17.4-12.8,10.9-5.9,33.5,2,15.2-18.9-14.2-16.2-19.6,12-32,20.1s-12.6,3.5-13,4c-4.7,5.8,6.7,8.7,12.5,7.6ZM740.5,838.8c9.7,19.6,21.2.9,20.4-13.4-14-.4-31.1-8.3-20.4,13.4ZM748,859.5l-1.1,1.9c-10.7,1.5-6.8,13.9-2,20s3.4,5.6,8,0,6.8-15.1,2-18c-1-3.3-3.5-4.6-6.9-3.9ZM741,890.4c-8.7-5.2-14.8,2.7-11.8,11.8,1.4,4.2,4.8,2.7,7.7,3.3s6.6-.4,10,2c1.3-3.2-1.6-4.7-2-6-.9-3.3-.4-8.9-4-11ZM762.9,953.4c1.5-1.5-3.9-11.9-8-10-1.5,1.5,3.9,11.9,8,10Z"/>
  <path class="st4" d="M441.2,628.5c.2,7.2,8.2,10.9,11.7,15.9s7.7,13,13,19c13.7,15.9,31.2,28.2,45,44-3.3-2.5-8.8-4.6-12.9-8.1-20.7-17.4-38.3-37.9-54.1-59.9-2,0-11.3,35.8-11,38.9.6,6,9.9,8.3,10,15-2.7-2.9-14.5-13.6-18-10,1,9.3-4.3,15.7,0,24.6.7,1.5,3.6,2.6,4,3.4-4.9,1.4-3.5,5.5-4,9-3.4,20.1-9.1,43-4,63-3.2,2.9-9.3-.2-10.1,3.3-2.5,10.8,2,30.8.1,42.7,4.5.8,5.3-3.7,8-6v32c2,2,38.2-3,44,2-7.8-.8-32-1.3-39,0-6.9,1.3-12.4,13.5-7.1,17.1s25.2-2.6,32.1,2.9c-4.4-1-24.2-1.3-25.7,3.3-1.8,5.4-.8,43.4-.2,51.7s3.6,27.7,8,37c-1.3,0-7.5,1.7-7.8,2.2-1.3,8.5,4.4,18,11.8,21.8-10.4-3.9-5.2,15.5-3.5,17.5,10.3,12.1,97.7,9.5,115.3.2.1-8.8.9-17.9.2-26.7-1.2-16.4-8.3-33.4-9.8-48.2s17.8-52.3,23.8-69.7c6.6-19.3,20.9-61.2,22-80s-4.2-31.9-4.1-47.1c-7.9,1.6-13.5-2.1-20-4,6-1.3,12.3,3.6,17.9,1,6.8-3.1,12.7-17.4,20.1-21-2.4,3.7-8.8,13.9-9.5,17.5-3.5,17.2,6.3,67.5,10.2,86.9,3.8,18.8,8.3,37.8,15.4,55.6-1.5.4-4.1-.5-5.9,0-.1,2.6-.2,5.3,0,8-10.5-21-11.1-47.1-18.2-68.8-.7-2.2-.7-4.8-3.8-5.2-4.9,22.7-11.9,45.5-19.5,67.5s-21.6,45.6-20.4,59.2,6,21.9,7.6,32.5c9.9,67.8-11.2,96-15.7,155.8s6.7,38.5,8,57.9c.5,7.1-1.4,44.3-3.9,48.2s-15.7,7.1-21.7,8.3c-34.4,6.8-90.6,14.4-125.5,16.5-14.9.9-78.8,1.2-86.8-11.2-4.9-7.6.3-34.7,4.7-42.9,10.5-19.4,55.7-33.6,75.8-44.2,12.2-6.4,36.2-16.9,38.8-31.2-1.2-37.9-4-75.6-5.5-113.5-2.3-59.6-8.9-120-12-180-3.9-77.2,13.9-147.9,34-221,1.6,5.6-1.9,12.5-1.7,17.1ZM468.9,1134.4c0,2.4-5.8,15.5-7.6,18.4-11.4,17.8-73.5,37.5-74.4,41.7,5.8,10.1,11.6,20.8,12.1,32.9l86.7-12.2c4.1-1.3,5.9-19.1,7.7-24.3,6-17.2,18.8-32,37.4-35.6-7-46.2,14.2-90.3,18.2-135.8-26.2,7-52.8,9.2-80,8v107ZM429.2,1037.1c1,1.6,30.6,5.7,32.8,2.4,11.9-17.3-24.2-15.5-33.1-20.1.8,4.2-1.4,15,.3,17.7ZM462.9,1047.4c-9.7,1.9-20.1-2-29-2.1s-2.6,14.1,0,14.1h29s0-12,0-12ZM432.8,1080.5c.9.6,18.5,3,21.1,3,12.1.2,8.8-6.5,9-16.2l-32-2c.4,4-1.5,12.9,1.9,15.1ZM432.9,1101.4c14.3-2.4,33.5,11.7,30-12l-30-2v14ZM434.9,1121.4c.9.9,22.5,1.7,26,2v-14s-26,0-26,0c.4,2.5-.6,11.4,0,12ZM457.7,1143.6c2.8-5.3,5.9-12.7-1.8-14.1s-18.7-2.2-19.7-1.9c-3.5,1.1-4.5,7.7-3.1,9.7s21,7.1,24.6,6.3ZM450.9,1149.4c-10.1-1.7-29.1-13.6-32,1.9,13.8,4.1,23.9,19.1,32-1.9ZM418.1,1169.4c2.4.4,12.1-1.1,12.8-2,5.9-8.2-36.2-17.8-28-6,.5.7,14.3,7.9,15.1,8ZM534.8,1209.3c3.3-3.1,1.1-44.9-1.8-47-24.4,2.4-34.2,30.4-38.1,51.1l39.9-4.1ZM385,1168.4c7.6,6.8,17.1,16.2,25.9,6,0-2-14.8-10.4-17.4-10.7-4.3-.6-5.8,1.7-8.5,4.7ZM368.7,1180.6c8.5,6.4,11.2,8.3,22.2,4.8,0-9.6-21-15.3-26-10-3.2,3.4,2.6,4.2,3.8,5.1ZM353.9,1183.2c-14.5,0-47.8,25.8-38.1,40.3s18,5.9,20.1,5.9h57c.1-17.7-20.6-46.2-39-46.2ZM313.8,1239.5c4.8,7.4,61.5,8.4,72.1,7.9,35.5-1.7,96.8-9.3,131.4-16.6,8.4-1.8,20-2.2,17.6-13.4-20.8,1.7-42,3.5-62.7,6.3-44.9,6.1-85.9,17.8-132.3,13.7s-26.1-7-27-6-.1,6.5.9,8.1Z"/>
  <path class="st2" d="M770.9,953.4c24.2,71.2,10.6,99.2,8,169-1,28.3,8.3,54.1,10,82,.7,11.6,2.7,33.1-5,40.9-11.1,11.2-48.3,33.2-63.4,38.6-27.5,9.7-78.1,11.5-105.1,0-17.2-7.3-12.7-30.5-7.9-45,10.3-30.8,66.1-56.8,63.2-94.3-2.4-32.1-16.8-81.6-23.8-115.3,2.5,1.8,5.2,1.7,8,2,7.1,41.1,18.5,81.4,23.9,122.9-5.5,21.2-21.8,37.2-35.9,53.1,7.3,2.1,13.3-7.6,17.9-13,16.7-19.7,23.7-30.9,21.8-57.7-2.3-32.8-13.3-68.6-16.1-101.9-1.7-5.2-7.5-2.9-11.6-3.4-.2-1.2.6-4,0-8,30.1,5.6,60.6,3,90-5s28.8-7.6,30-14-4.5-35-10-39c7.2.2,6.3-6.4,6-12ZM726.9,1086.4c2,23.8,7.6,64.6-.2,85.7-5.9,15.8-17.9,29.1-25.5,44,10.9,11.4,21.1,20,26.8,35.3,1.6.4,26.8-16,27.9-18,2.6-4.8.4-18,1.3-24.7,1.5-11.5,4.6-21.8,10.1-31.9s7.1-5.8,7.7-10.4-3.6-19-4-25.9c-1.5-24.6,4.2-49.6,6-74,1.2-16.8,1.2-34.2,2-51-19.5,4.6-37.6,14.9-58,16,1.4,18.3,4.5,36.7,6,55ZM675,1051.3c1.2,1.2,30.4-1.1,34.9-1.9,7.8-1.4,4.5-9.9,5-16-14.7-.6-27.4,3.3-42,0,0,2.7,1.4,17.3,2.1,17.9ZM680.1,1073.5c9.8-.5,22.2-.4,31.8-2.1s4.5-9.9,5-16l-40,2,3.2,16.1ZM684.2,1095.5c1.7.4,33.4-3,34.6-4.2s-.4-11,.1-13.9c-5.5,1.6-36.7.6-38,2s.2,15.5,3.3,16.1ZM688.2,1117.2c1.3.4,22.1-1.6,25.6-2,11-1.3,6.5-6.7,7.2-15.8l-36,2c.4,4.4-2,14.1,3.3,15.8ZM688.9,1137.4c1,1.1,26.1.5,29,0,7.8-1.4,4.5-9.9,5-16l-36,2c2.9,2.9,1.5,13.5,2,14ZM690.9,1157.4l32,2v-16c-7.6,1.4-22.7-2-29,0-4.1,1.3-3.1,10.2-3,14ZM695.7,1175.7c14.5,2.3,23.4,10.7,25.2-10.2-14.2,2.1-34.8-11-38,10,4.2.1,8.5-.4,12.7.3ZM776.9,1177.4c-13.7,10.5-12,32.3-12,48,26.6-5.8,11.9-28.6,12-48ZM703.7,1197.2c1.8-.4,8.5-10.3,7.2-11.7-12.6-1-33.5-12-38,6,7-3.6,27.3,6.6,30.8,5.8ZM681,1208.3c8.6,1.7,12.5,9.8,17.9-3.9-1.1-4.5-36.4-13-38,.9,6.7.7,13.5,1.6,20.1,2.9ZM629,1220.5c-8.6,5.6-22.2,31.8-11.3,37.1,23.9,11.5,77.9,6.4,103.2-2.2-7.9-35.8-62.6-54.1-91.9-34.9ZM636.5,1280.8c52.6,8.9,94-2.7,135.1-35.8,7.5-6,11.1-8.7,9.3-19.7-15.9,8.4-28.8,21.8-44.6,30.3-38.4,20.7-84.4,19.9-125.3,7.7-4,14.1,15.1,15.7,25.5,17.4Z"/>
  <path class="st1" d="M676.1,867.3c16.3,6.5,10.4,24.6,17.9,36.1,7.5,11.4,26.8,6.9,20,28.2-1.9,6-8.9,7.9-9.2,16.9-.4,9.4,7.5,18.9,8,28.3,1.4,28-42.4,30.8-61.9,28.7-1.9,6.6,3.2,12.9,4,18,.6,4-.2,6.8,0,8-2.8-.3-5.5-.2-8-2-5.1-24.6-7.8-50.3-14.6-74.4-6-21.5-24-51-25.4-71.6-.2-2.6,0-5.3,0-8,1.8-.5,4.4.4,5.9,0,14.5-4.1,49.9-13.4,63.2-8.1ZM621.8,897.3c-4.6,6.5,14.7,42.4,17.6,52.6,2.3,8.2,3.2,25.2,5.9,30.1s24.3,4.3,30.2,3c16.2-3.6,7.3-22.1,7.6-32.4.2-6.5,4.9-11.8,3.5-19.7s-9.4-12.7-13.3-18.8-6.6-18.7-11.7-20.3-37,1.6-39.7,5.5Z"/>
  <path class="st2" d="M384.7,708.2c-4.3,17.3-13,18.4-9.3,41.7,1.3,8.3,12.3,24.5,4.5,31.5-2.8,2.5-7.1,1.5-9.1,2.9s-1.7,6.4-3.1,8.9c-2.1,3.8-19.5,13.8-23.8,14.3-13.9,1.6-12.5-6-18.5-7.7-10.3-3-16.5,1.4-24.3-11.7-30.8-52.1,1.6-92.8,19.3-138.2,6.8-17.5,9.6-37.1,16.4-54.6-.5,3.4-2.9,23-2,24,8.7.3,15.2-5.6,22-10-7.1,14.4-21.1,12.5-23.6,25.4-1.2,6.5.6,4.5,5.6,4.6-3.5,2.1-7.3,3.7-10,7,3.1,3.1,7.6,3.3,12,5-3.9,0-8.3-.8-12,1-2.5,1.2-21.3,40.5-23.5,46.5-5.4,14.7-9.7,31.7-8.5,47.5.6,7.9,10.8,53.8,24.1,44.2,5-10.8-4-22.5-5.9-34.4-1.7-10.3-4.1-44.6-1.8-53.4s2.4-3.9,3.6-4.4c7.9-3.4,2,21.6,2,24,0,5,3.8,30.5,10.9,29,10.5-2.2,5.4-27.5,7.5-34.6s13.7-10.3,17.3-16.7,3.9-12.8,4.3-18.7c11.8,2,4.9,18.4,0,25-7.1,9.5-17.8,9-14,25h16c-3.8,10.6-1.1,36.4,7,44,14.8,13.9,0-25.3-.5-29.5-3-22.2,9.1-29,11.2-47.7,1.2-10.3-1.2-18.8-1.8-28.8,2.6,1.3,5,2.2,8,2,.4,12.8,3,24-.2,36.8ZM362.8,786.5c.3-5.4-8.2-19.1-9.4-26.6-1-6.4-.3-12.9-.5-19.4-11.4-4.7-10.6,5.3-10,13.8.3,4.2,8.4,37.7,10,39,2.5,2.1,9.6-2.3,9.9-6.9ZM330.5,780.9c2.7,10-3,20,14.5,20.5,2.7-13.3-3.8-22.2-7.1-33.9-.8-2.9-.6-9.7-.9-10.1-.7-.7-11.3.5-14,0,.2,8.5,5.4,15.5,7.5,23.5Z"/>
  <path class="st0" d="M483.9,95.4c1.1-4.8,3.8-8.2,5.1-11.9-2.2,11.4,9.4,12.2,14,20-1.3-.5-3.5,0-5.9-1.1s-7.3-9.4-8.2,0c-.9,8.7,18.5,10.7,26.1,14,42.3,18.4,31.4,62.1-13.9,41.9l-14.1-14.9c-1.3,11.1,5.9,16.4,12,24-3.9-.8-7.7-2.7-11.9-1.9-2,1.4-.6,16.6-.1,19.9-8.1-25.8-9-63.7-3.1-90.1ZM519.9,157.6c12.3,0,17.5-3.6,14.1-16.2-4.5-16.3-28.3-21.8-43-23.9.6,17.8,7.6,40.1,29,40.1Z"/>
  <path class="st0" d="M706.9,571.4c-.5-.3-.8-2.9-3.3-3.6-13.5-4-21.7,7.2-32.2,9.2-43.6,7.9-89.1,7.6-133.6,6.5-6.9-.2-14.9-3.3-22-3s-17.5,6.3-24.3,6.4-12.9-4.1-13.8-5.3,2.6-7.7,1-10-14.6-5-15.8-4.1c-5.2,7.7-1.8,20.4-3.1,26.2s-7.3,7.5-8.6,13.1c-4.3,18.2,3.2,12.6,7.1,17.1,5,5.8,3.1,22.2,8.5,30.5,10,15.5,15.8,3.2,20.1,5.8,4.7,3.8,2.7,11.4,5,15.1s18,4.1,23.5,16.5c1.8,4.1.9,8.5,3.4,12.6,3.5,5.9,18,9.1,24.3,8,7.5-1.2,10.7-10.8,19.9-6.2,3.1,1.6,2.6,6.7,7.7,8.2,23.4,6.7,20-12.9,30.1-24.2,3-3.3,9.7-4.5,11.1-6.9,2.2-3.7,0-10.3,1.2-11.8s15-4,18.5-6.4,20.1-18.1,21.2-19.8.5-5.5,3-6,6.9,5.5,11,4c10.7-2.6,13.1-6.3,20-10s13.7-7.8,16-8c3.4-.3,6.8,1.6,10,2,2.9-5.2,8-.4,10,0,6.8,1.4,24.9,5.5,30,3s4.2-13.4-2-17c-8.7-1.9-14.1,2.6-22,4-.8-4.6,4.5-6.9,6-10,4.2-8.4,10.3-22,0-28-14.5-2.5-22.4,12.7-28-8Z"/>
  <path class="st0" d="M594.9,31.4c-9.4.5-43.8-8.8-49.1,0-3.5,5.8,10,22.5,3.2,27.1s-31.9-21.8-40,1.7c10.9,8.9,21.6,14.1,30.8,25.3,1.8,2.2,2.9,7.5,3.2,7.8,1.3,1,9.9-2.9,15.9-1,7,2.2,13.9,18.6,25.9,15.1,1.1-5-3.6-8.6-3.8-12.9-.4-11.9,13.1-22.9-6.2-30.1,3.2-12.8,20.6-2.1,29.2-1.1,18.2,2.2,13.3-4,22.1-9.6s30.1-5.9,20.3-15.7c-10.9-10.9-23.2,5-38.9-4.1s1.7-9.1-8.1-10c-7-.7-6.2,2.2-4.5,7.5Z"/>
  <path class="st0" d="M604.9,185.4c2.8,4.7,10.2,12.4,11.5,17.5,2.9,11.4-5.2,20.4,10,26,7.1,2.6,20.2,3.9,25.9-2s9.4-14.4,9.6-15.3c1.9-7.3-7-6.2-11.1-9.2s-3.6-7-8.8-9.2c-4-1.7-35.2-9.3-37.2-7.8Z"/>
  <path class="st0" d="M683.9,123.4c-2-.5-14.4,6.6-15.9,8.1-5.3,5.1-6.5,20.9-12.8,27.3,10.6,11.9,22.1,32.3,29.2,5.1s1.1-16.8.4-27.5c-.2-3.1,4-11.6-.9-12.9Z"/>
  <path class="st0" d="M812.9,617.4c-4.7-1.4-4.1,3.4-6,8s-7.4,14.4-7.6,15.3c-.6,2.8,8,23.8,5.6,30.7,1.3,1.2,12-5.3,15.5-5.7s26,5,16.6-7.5c-2.9-3.8-7.4-3.3-10.1-4.9l-12,2c-1.9-4.5,5.3-6.6,6-8s-.1-1.3,0-2c.7-4.2-.5-9.6,0-14-.6-3.9.6-9.2-1.8-12.8-1.6-2.4-5.2-.6-6.2-1.2Z"/>
  <path class="st0" d="M640.9,83.4c13.9-4.2,19-6.7,29.1,5.9s11.9,25.1,14.7,14.8c3.9-14.3-8.1-15.8-9.6-20.1-1.4-4.3,1.9-8.5.9-12.7-5.6-24.2-35.8-6.6-35.1,12.1Z"/>
  <path class="st0" d="M812.9,579.4c.8,3.8-.2,5.1-2,8s-1.3,1.6-2,2c-4.4,2.7-4.7,1.3-8,2-8.1,1.8-12.3-.2-9.6,10.5,1.9,7.4,6.2,10,13.6,9.5s4.9-1.6,6-2c11.3-4.5,12.6-22.7,26-29,1.6-7.7-18.9-5.9-24-1Z"/>
  <path class="st0" d="M678.9,821.4c-4.7,5.8,6.7,8.7,12.5,7.6,8.9-1.6,10.8-9.2,17.4-12.8,10.9-5.9,33.5,2,15.2-18.9-14.2-16.2-19.6,12-32,20.1s-12.6,3.5-13,4Z"/>
  <path class="st0" d="M672.9,279.4c7-4.5,19.7,6.3,21,6,3-.7,10.7-20.2,9-22-5.3.6-17.9-5.6-22-3.1s-10.5,16.6-8,19.1Z"/>
  <path class="st0" d="M619.6,391.7c-7.3-2.4-31.3,3.3-28.7,12.7s16.6,6.6,19.2,7c16.7,2.4,15.3-17.8,9.6-19.7Z"/>
  <path class="st0" d="M760.9,825.4c-14-.4-31.1-8.3-20.4,13.4s21.2.9,20.4-13.4Z"/>
  <path class="st0" d="M476.9,405.4c5.3-1.6,26.3,14,28,5s-5.7-13.2-7.1-14.9c-8.4-10.3-19.6-.3-20.9,9.9Z"/>
  <path class="st0" d="M746.9,861.4c-10.7,1.5-6.8,13.9-2,20h8c2.9-3.6,6.8-15.1,2-18s-7.3-2.1-8-2Z"/>
  <path class="st0" d="M560.9,257.4c6.3,4.3,29.8.5,30-7s-31.5-4.5-30,7Z"/>
  <path class="st0" d="M860.9,617.4c-3.7-1.3-5.8-4.7-10,1,.6,3.7,5.8,5.4,6.6,7.4,1.8,4.8.3,10.6,3.2,14.7,5.9,8.4,5.2,1.2,6.1-1.1-.4-9.8,3.1-16.3-6-22Z"/>
  <path class="st0" d="M736.9,905.4l8-4c-.9-3.3-.4-8.9-4-11-8.7-5.2-14.8,2.7-11.8,11.8,1.4,4.2,4.8,2.7,7.7,3.3Z"/>
  <path class="st0" d="M709,717.3c5.5,7.3,24.8-17.7,9-16s-11.6,12.6-9,16Z"/>
  <path class="st0" d="M662.9,373.4c6.6,3.7,24.3-11.6,20-16s-19,11.3-20,16Z"/>
  <path class="st0" d="M654.9,305.4c-11,0-13.3,20.4-3,19.9,4.5-.2,2.8-16.3,3-19.9Z"/>
  <path class="st0" d="M568.4,719.9c-2.3-2.1-7.8-2-10.5-4.4-13.2,17.1,23.5,16.5,10.5,4.4Z"/>
  <path class="st0" d="M486.9,285.4l12,22c3.4-12.3,0-18.1-12-22Z"/>
  <path class="st0" d="M458.9,369.4c2.4-2.5-5-12.7-9-12-10,1.9,4.6,16.4,9,12Z"/>
  <path class="st0" d="M734.9,579.4c-11.6-6.7-19.3,2.8-20,2-2-2.4,2.2-3.8-8-10,5.6,20.7,13.5,5.5,28,8Z"/>
  <path class="st0" d="M756.9,683.4c-3.2-.1-6.8-.3-10,0s-4-.1-6,0c.9,11,12.8,3.7,19,2,3.2-2.6-1.5-1.9-3-2Z"/>
  <path class="st0" d="M734.9,607.4c-1.5,3.1-6.8,5.4-6,10,7.9-1.4,13.3-5.9,22-4-7.6-4.4-17.1,1.6-16-6Z"/>
  <path class="st0" d="M704.9,757.4c-1.5,1.5-3.3,18.4,4,16,0-1.5,1.6-21.5-4-16Z"/>
  <path class="st0" d="M868.9,609.4c.3-.2,2.4-7.6,2-8-16.2-2.2-8.2,12.2-2,8Z"/>
  <path class="st0" d="M528.9,243.4c-.1,6.6,6.3,8.8,12,8,2-5.1-11-9-12-8Z"/>
  <path class="st0" d="M804.9,611.4l2,14c1.9-4.6,1.3-9.4,6-8-1.6-.9-4.7-6.3-2-8-1.1.4-5.4,2-6,2Z"/>
  <path class="st0" d="M754.9,943.4c-1.5,1.5,3.9,11.9,8,10,1.5-1.5-3.9-11.9-8-10Z"/>
  <path class="st0" d="M630.9,333.4c.3,1.6-.4,5.5,0,6,1.8,2.1,22.3-7.3,0-6Z"/>
  <path class="st0" d="M820.9,647.4c-.7,1.4-7.8,3.5-6,8l12-2c-2.1-1.1-4.8-3.8-6-6Z"/>
  <path class="st0" d="M652.9,645.4c3.3-3.2,7.6.4,10.9,0s2.7-1.8,3.1-1.9c-4,1.5-8.6-4.5-11-4s-2.4,5.1-3,6Z"/>
  <path class="st0" d="M860.9,617.4c9.1,5.7,5.6,12.2,6,22,3.9-10.1,4.9-18-6-22Z"/>
  <path class="st0" d="M498.9,199.4c.2.2,4.2.7,3.9-1-2.6-2.9-1.7-8.2-6-9-.6.8,1.5,9.6,2,10Z"/>
  <path class="st0" d="M820.9,645.4c5.4-4,.5-10.7,0-14-.5,4.4.7,9.8,0,14Z"/>
  <path class="st0" d="M736.9,905.4c3.2.6,6.6-.4,10,2,1.3-3.2-1.6-4.7-2-6l-8,4Z"/>
  <path class="st0" d="M686.9,633.4c6.5.6,13-1.9,16-8-2.3.2-12.8,6.3-16,8Z"/>
  <path class="st0" d="M712.9,627.4c3.2.4,6.7-.3,10,0-2-.4-7.1-5.2-10,0Z"/>
  <path class="st0" d="M744.9,881.4c3.1,4,3.4,5.6,8,0h-8Z"/>
  <path class="st0" d="M746.9,861.4c.7-.1,7.2,1.5,8,2-1-3.3-3.5-4.6-6.9-3.9l-1.1,1.9Z"/>
  <path class="st0" d="M746.9,683.4c3.2-.3,6.8-.1,10,0-1.3-3.2-8.7-3.2-10,0Z"/>
  <path class="st0" d="M800.9,591.4c3.3-.7,3.6.7,8-2l-8,2Z"/>
  <path class="st0" d="M810.9,587.4c1.8-2.9,2.8-4.2,2-8-2.7,2.6-2.3,4.6-2,8Z"/>
  <path class="st0" d="M462.9,857.4c-7.8-.8-32-1.3-39,0-6.9,1.3-12.4,13.5-7.1,17.1s25.2-2.6,32.1,2.9c9.1,2,7.5,14.4,9.9,21.1s12.6,20.9,12.1,25.8c-.4,4.3-9.6,15.4-11.1,23s.5,17.2-2.7,21.3c-5.4,6.8-19.9.8-26.2.8s-7.5,1.7-7.8,2.2c-1.3,8.5,4.4,18,11.8,21.8s26.9,2.7,35.4-1.6c20.3-10.4,8.6-30.3,13-45,1.8-6,16.1-13.1,17.6-20.5,3.1-16.3-11.9-15-17-26.9-6.8-16.1,4.5-39.3-21-42Z"/>
  <path class="st0" d="M452.9,778.5c-.4,7.1-.5,15.1,8.6,14.7,5.9-2.6,5.8-8.2,5.4-13.8,35.1,6.2,12,57.9-17.4,42.4-6.9-3.6-9.9-13.5-18.6-9.4-1.6.7-9.3,8.6-12,11s-3.5,6.8-8,6c1.9-11.9-2.6-31.9-.1-42.7s6.9-.4,10.1-3.3c17.7-16.2,18.1-51.6,8-72-.4-.9-3.3-1.9-4-3.4-4.3-8.9,1.1-15.3,0-24.6,3.5-3.6,15.3,7.1,18,10,24.6,26.6,11.7,55.7,10,85.1ZM442.1,705.3c-.9-3.5-6.5-8.4-9.2-5.9-4.3,4,12.5,19,9.2,5.9ZM445.9,759.4c6.7-.2,7-29.7-1-24-2.2,1.6-3.9,24.1,1,24ZM446.8,804.6c7.6,4,6.8,12.3,18.1-.2-4.3-1.9-10.7-1.7-14.6-4.9s-2.6-6-5.5-9c-11.7-11.9-28-2.7-21.8,12.8,8.5-.8,15.5-3.2,23.8,1.2Z"/>
  <path class="st3" d="M564.9,463.4c-5.1,5.2,14,16,17.4,17.5,25.7,11.6,65.4,9,87.2-9.9s16.8-17.5,13.3-21.7c-11.6,5-16.9,16.4-28.2,22.8-17.2,9.6-40.6,11.2-59.4,5.9s-29-16.1-30.3-14.6Z"/>
  <path class="st0" d="M644.5,142c-10.7,23.4-38.1,29.5-60.9,19.8-12.8-5.4-12.6-10.2-7.6-22.4s16.6-18.7,29.7-22.3,38.1-8.1,40-7.5c7.6,2.2,1.6,26.3-1.2,32.4ZM608.5,124c-30.5,8.9-43,36.6-.6,35.6,22.9-.5,36.2-20.6,33-42.2-10.6,2.6-21.9,3.5-32.4,6.6Z"/>
  <path class="st0" d="M598.5,213.9c-6.9,28-89.1,22.1-78.7-10.6,5.2-16.4,31.8-14.6,45.5-13.3,12.6,1.2,37.8,5.3,33.2,23.9ZM527.1,202.6c-16.9,25.7,72,32.3,63.5,4.2-1.7-5.5-12-8.1-17.2-8.9-9.4-1.4-41.1-3.1-46.3,4.7Z"/>
  <path class="st0" d="M574.7,178.1c-2.2,7.1-38.7,9.8-39.8-1.7s14.6-38.8,22.7-36.7,18.9,32.7,17.2,38.5ZM543.1,174.2c1.4,4.9,26.2,5.5,25.1-.9s-9.8-25.9-12.2-25.8c-4.2,4.6-14.5,21.2-12.9,26.7Z"/>
  <path class="st0" d="M423,803.3c8.5-.8,15.5-3.2,23.8,1.2s6.8,12.3,18.1-.2c-4.3-1.9-10.7-1.7-14.6-4.9s-2.6-6-5.5-9c-11.7-11.9-28-2.7-21.8,12.8Z"/>
  <path class="st0" d="M444.9,735.4c-2.2,1.6-3.9,24.1,1,24,6.7-.2,7-29.7-1-24Z"/>
  <path class="st0" d="M432.9,699.4c-4.3,4,12.5,19,9.2,5.9-.9-3.5-6.5-8.4-9.2-5.9Z"/>
  <path class="st2" d="M496.9,127.4v6c2.7.5,13.3-.7,14,0,1.5,1.5-4.4,19.7,8.6,15.7,3.8-1.2,4.6-7.4,11.4-3.7-.7-17.9-19.9-19.3-34-18Z"/>
  <path class="st0" d="M584.9,147.4c13.1-9.1,8.5.3,13.9,3.1,14,7.2,9-14,10.1-15.1s13.8.2,17,0,6.9,1.1,4.9-3c-6-12.6-47.3-1.9-46,15Z"/>
  <path class="st0" d="M541.9,207.4c-1,0-12.7-.9-7,4s40.3,3,44.7,1.7,3.9-2.9,3.3-5.7c-13.6.3-27.4-.4-41,0Z"/>
  <g>
    <path class="st0" d="M544.9,531.3l-3.4,12c-.6,2.3,1.1,4.6,3.5,4.6h0c2.4,0,4.1-2.3,3.6-4.6l-3.2-12h-.5s0,0,0,0Z"/>
    <path class="st0" d="M504.6,543.5c-.9.5-1,1.7,0,2.2l5.7,1.4c.7.2.7,1.4,0,1.5l-5.7,1.3c-.9.5-1,1.7,0,2.2l36.6,18.3c2.2,1.1,4.8,1.1,7,0l37-17.6c.9-.5,1-1.7,0-2.2l-5.7-1.4c-.7-.2-.7-1.4,0-1.5l5.7-1.3c.9-.5,1-1.7,0-2.2l-6.1-1.6c-.7-.2-.7-1.3,0-1.5l6.1-1.5c.9-.5,1-1.7,0-2.2l-36.7-18.4c-2.2-1.1-4.8-1.1-7,0l-37,17.6c-.9.5-1,1.7,0,2.2l6.1,1.6c.7.2.7,1.3,0,1.5l-6.2,1.5h0ZM527.9,560.5h0c-.7,0-1.3-.7-1.1-1.4l10.9-34.4c.1-.4.6-.7,1.1-.7h12.7c.5.1.9.4,1.1.9l10.2,34.6c.1.7-.4,1.3-1.1,1.3h-8.6c-.5,0-.9-.4-1.1-.8l-1.5-5.5c-.1-.4-.6-.7-1.1-.8h-9.4c-.5,0-.9.2-1.1.6l-1.6,5.4c-.1.4-.6.7-1.1.7h-8.6c0,0,.1,0,.1,0Z"/>
  </g>
</svg>