<?xml version="1.0" encoding="UTF-8"?>
<svg id="Capa_1" xmlns="http://www.w3.org/2000/svg" version="1.1" viewBox="0 0 646.4 1348.3">
  <!-- Generator: Adobe Illustrator 29.0.0, SVG Export Plug-In . SVG Version: 2.1.0 Build 186)  -->
  <defs>
    <style>
      .st0 {
        fill: #0101ff;
      }
    </style>
  </defs>
  <g>
    <path class="st0" d="M373.7,66c79.1,27.3,84.6,132.4,43.8,193.9-6.1,9.2-16.9,11.9-9.4,27.7,3.4,7.2,33.6,10.9,42.6,13.4,48.5,13.8,76.6,25.9,103.6,70.4,28.9,47.6,76.9,124.5,70.2,181.4-6.5,55.1-76.3,47.1-114.3,32.7s-37.2-20.7-42.8-21.2c-9.1-.8-1.5,17.6.4,21.7,14.4,33,32.5,50.4,45,90,.1,3.3,1,10.7-3.2,11.8s-26.1-5.4-31.9-5.7c-24.2-1.5-51.4,7.8-72.7,19.2-33.7,18-59,49.1-79.1,80.9l-13.2,1.8c-49.6-11.3-93.4-56.9-122-98-2.3-3.3-6.7-3.4-5.6-10.5,4.3-16.1,10.2-31.2,15-47.1,3.2-10.7-.6-23.4,14.6-22.4,9.8.7,25.9,9.3,37.5,11.5,46.5,8.7,108.2,5,154.5-4.4s53.5-12.6,55.1-14.9c3.5-4.8-3.6-13.5-5-19.3s.5-16.5-.4-19.4c-1.1-3.5-8.5-5.5-11.8-7.4-10-5.8-9.9-7.1-18-14-5.2-4.4-9.7-9.3-16.6-12.4s-12-1.3-14.9-4.1c-8.1-7.6,3.5-8.9,7.5-11.5,12.9-8.5,20.1-25.5,16-40.6s-9.4-7.3-12-10.5c-17.2-21.1-24.4-38.4-50.1-52.9-5.7-10.7-1-11.8,4-18,11.7-14.8,23.3-29.5,33.6-45.4s21.5-32,22.1-36.1c1-7-6-6-10.9-10.4s-4.4-8.3-8-12.1c-23.5,15.5-48.7,29.1-77.8,30.1s-31.9-5.2-33-4-.6,10.4-2.1,11.9c-5.6,5.5-2.9-12.4-5.8-13.1-19-5.7-20.1,17.2-24.1,31.1s-6,14.8-6.9,21.7c-.8,5.8,2.7,10.8-.2,18.2s-8.4,13.2-11.4,14.6-13.1,4.7-11.5-2.5c3.5-4.8-3.9-11.5-2-21,1.3-6.4,20.3-19.6,5-27-6.2,1.3-18,41.3-24.2,48-1.6,4.7,3,8.1,5.2,12-.5,1.1.6,4.5-.4,6.5-8.6,16.4-29.2,9.7-21.6-8.5,19.6-30.3,23-51,38-80,4.4-8.5,2.4-9.1,12-14s23.8-6.2,28-9-1.4-8-4-11c-8.1-18.3-20.3-29.6-25.1-49.9-1.1-4.5-6.8-30.1,2-28.1,5.4,10.4,23.3,7.9,29.1,13s-3.8,11.6-6,17c-6.2,15-3,30.7,11.9,39.1,4.4,2.5,24.8,10.8,29.1,11s33.2-7,38.4-9.7c14.9-7.8,18.8-25.4,7.7-38.5-8.4-9.8-21.2-8.4-17.1-25.9,52.2,21.3,90.1-36.5,71-82-7.9,3.9-13.5,10.7-21.6,14.4-14.6,6.6-32.4,6.7-47.2,14.8s-15.4,24.5-29.2,2.8l-11.8,9.9c-2.5-.5-8.6-11.1-11.2-13.9-11.4-12.5-20.5-7.7-33.9-15.1s-16-15.1-7.1-26.9,6-3.5,6.5-4.4c1.2-2.1,0-5.8,1-8,4.9-10.1,20.6-24,29.5-31.6,23.1-19.7,69.3-19.7,97.1-10.1ZM374.6,129.1c3.7-1.1,7-15.7,6-16.9-14.1,12.7-38.4,9.9-46,30l39.9-13ZM250.7,116.1c-2.7,17.1,18.5,20,30,26-2.9-15.1-18.4-19.3-30-26ZM461.1,440.6c-.5-2.2-2.2-10.4,2.5-8.5,7.1,2.9,14.5,33.6,22.4,40.1,27.8,7.4,65.2,7.6,89.3,24.2s14.3,14.3,2.8,11.3-37.1-22.2-41.4-17.6c3.8,23.6,3.6,48.2-10.3,68.7-3.8,5.5-10.5,9.6-13.7,14.3s-3.1,1.4,0,4c17.4,14.1,79.4,16,94.9-3.1,25.2-31.1-7.1-106.5-24.6-137.3-7-12.3-16.6-23.8-24-36-23.7-39.2-28.9-62.7-77-81-26.2-10-25.6-8.8-33.9,16.8-9.8,30-16.7,67.6-7,98.1,5,15.5,12.1,36.6,31.5,35.5,2-2-10.3-24.5-11.5-29.5ZM386.1,415.8c9.5,2.8,28.6-13.4,34.5-20.7,12.8-15.8,13.1-34.1,18-52.9-8.8-1.4-34,11.4-31.7,20.5s5.4,5.5,5.5,10.4c.4,19.2-31.7,22.5-45.8,21.1-2.2,2,16.8,20.9,19.4,21.6ZM430.6,422.1l-27.8,16.9c6.9,18.9,23.8,22,41.8,25-5.2-13.7-13-27.1-14-42ZM490.7,567.1c12.2,14.3,29.7-10.8,34.3-21.6s13.5-59.1-10.4-59.4c10.8,31.4,1.4,60.4-24,81Z"/>
    <path class="st0" d="M325.8,782.3c20.1-31.8,45.4-62.9,79.1-80.9,21.3-11.4,48.6-20.7,72.7-19.2,5.8.4,30,6.2,31.9,5.7,4.1-1,3.3-8.5,3.2-11.8,21.3,67.6,14.2,131.3,5.7,200.7-.6,4.5-1.3,11.6-3.7,15.3.4-6.3,2.5-22.4-.3-26.7-2.9-4.3-6.6-2.6-11.7-5.3l9.7-3.3,6.4-77.6c0-13.1.5-26.1-2.2-39-.4-.4-8.3-.4-9.9-.1,6.7-4.4,15.9,1.4,14-10.9-1.5-10.1-25.4-8-34-7.1,8.4-3.8,18.9-4.1,28-4-3.3-19.9,0-26.6-21.5-31.4-45.8-10.3-103.4,22.2-133.5,55.4-11.7,12.9-27.7,31.6-27.1,49.1,1.2,32.3,11.4,85.8,21.1,116.9,1.6,5.1,1.4,14.3,9,12-2.4,1-6.9,2-7.5,2.4-4.9,3.4.4,22.5,11.5,21.6,1.2,17,12.3,31.6,17.4,47.6,2.8,8.8,4.8,28.7,7.6,34.4,2.7,5.5,19.2,4.8,25,4-10.6,7-28.8-6-30,10-5.9-14.5-6.8-30.6-11.5-45.5s-16.1-39.4-22.6-59.4c-7.6-23.4-11-49.5-18.2-71.8-.7-2.2-.7-4.8-3.8-5.2-6.9,28.7-16,57.2-26,85-2.7,7.6-13.3,26.5-14,32.1-1.2,9.1,8.2,38,9.7,50.1,7.9,61.4-14.9,95.2-17.7,149.8-1.3,25.7,10.1,51.7,7.9,81.9-.2,3.2-2.3,20-2.9,21.1-4.9,8.3-54.8,10.6-65.8,12.2-46.8,6.9-114.2,21.8-159.3,6.8-9.4-3.1-12.3-5.8-12.1-16.1.3-17,4.3-35.1,18.1-46s58.7-27.4,81.4-40.6c6.1-3.6,19.2-10.1,20.6-17.4,4.3-22.8-3.3-61.5-4-85.9s1.9-51.7.2-76.2c-5.7-77.6-17.9-148.8-7.8-227.6,1.4-10.7,5.7-43.4,9.7-51.3-.3,18.8,2.1,12.3,8,24-5.2-1.1-4.1,2.6-4.9,6-3,11.3-5.7,27.7-6.8,39.3s-1.8,18.2,1.7,24.7c-3.3,2.7-8.5,1.6-9.8,5.2s-.8,28.7,0,31.4c2.9,9.3,13.8-4.6,19.7-6.7-13.9,11.7-13.9,22.5-11.1,40.1,22.9,5.9,64.8-8.4,61.1,29.9-2.8-8.7-3.9-15.4-12.2-20.8s-10.2-5.2-10.8-5.2h-40c-3.4,0-4.8,14.5-1.1,17.1,5.6,3.9,27-2.7,34.1,2.9-5.6-1.9-21,1.4-28,0-.3,27-.8,53.9,4.6,80.4,1.9,9.6,2.4,12.2,13.4,13.6-11.6-.6-23.2-.8-16.9,14,5.9,13.9,43.5,9.8,53-1.5,8.5-10.1,1.1-27.7,4.4-39.1,2.1-7.1,13.9-8.1,15.5-18.6,1.9-12.2-3.4-11.1-7.9-18.9,10.1,2.6,13.9,11.1,11.9,20.9-1.6,8.2-15.4,11.2-17.5,18.5-4,13.6,6.4,33.2-8.5,43.5-12.5,8.6-29.9,5.8-43.9,5.1-1.5,14.7.6,15.9,13.6,19.4,8.8,2.4,26.2,4.5,35.3,4.7,22,.5,45.4-4,66.9-8.3,4.5-24.3-7.1-48.5-9.6-71-2.2-20.2,16.1-53.3,23.2-74.4,5.8-17.3,21.7-63.7,22.6-79.5.3-5.6-4-44.7-6-46-3.6.1-7.4-2.3-10.1-2.9l13.2-1.8ZM221.5,1074c-11.8,1.4-4.5,16.4-4.8,27.2-.7,25.1.2,53.1-2,78-3.5,38.9-52.3,43.9-79.2,60.9-1.4,2.3,10.5,27.3,11,33.2l87.2-13.1c1.6-20.1,9.8-41.3,27-53,3.8-2.6,14.9-5.6,15.7-8.4-6.8-44.5,13.2-88.7,18.1-132.7-23.8,10.3-49.7,5.1-73.1,7.9ZM206.8,1073c-1.2-.8-26-4.9-29.1-4.9-6.3,0-3,18.1,0,18.1h31c-.3-3.5,1.3-10.9-1.9-13.1ZM208.6,1103.1c2.6-12.9-24.7-8.3-32-8.9-8.1,17.8,31.2,13.1,32,8.9ZM179.8,1112.4c-16.7,19,26.9,19.1,28.7,12.5s-1.7-10.2-2.1-10.5c-1.9-1.7-21.5,1.5-26.6-2ZM178.6,1148.1c1,1,26.7,2.7,27.8,1.8s2-7.4,1.8-8.5c-1.5-8.6-22.9-4.3-29.5-5.3.4,2.5-.6,11.4,0,12ZM206.6,1170.1c3.6-20.4-12.3-12.8-26-14-3.7,16.2,14.9,13.1,26,14ZM178.6,1179.2c0,4.9,17.2,11,21.2,10.9s9.1-8.2,6.7-11.7-27.9-7.4-27.9.9ZM164.7,1195.1c11.8,9,23.9,20.7,32,1-10.9-2.1-22.3-11.6-32-1ZM163.8,1216.1c2,.3,10.4-1.5,10.8-2,5.6-7.7-34.1-17.7-26-6,.5.7,14.3,8,15.1,8.1ZM252.6,1227.1c-6.8,9.2-10.6,21.5-10,33l38-4c-2.1-10.9,2.8-33.8,0-43-3.6-11.8-24.6,9.3-28,14ZM134.4,1217.3c6.8,5.6,12.6,12.8,20.2,3.8-3.5-5-19.2-14.2-24-9-3.1,3.4,2.6,4.2,3.7,5.2ZM136.6,1230.1c-5.5-8.7-19.6-14.8-26-4,11.3,4.8,13.1,11.4,26,4ZM127.5,1248.3c-15.3-19.7-32.8-22.4-52.7-7.1-6.6,5.1-16.2,21.3-11.2,29,.9,1.3,16.5,5.9,18.1,5.9,10.3,0,45.4,2.1,52,0s-2.3-22.8-6.2-27.8ZM78.2,1291.5c61.1,11.1,131.4-11.7,192.9-15.9,8.1-1.3,14.5-12,2.8-11.4s-26,2.9-38,4.1c-58.7,6.2-115.6,25.2-175.2,11.8-3.3,10.4,9,9.9,17.6,11.4Z"/>
    <path class="st0" d="M518.6,1004.1c20.8,61,10.3,90.2,7.9,150.9-1.4,35.3,6.1,62.7,8.1,96.1.4,7.5,1.4,35.8-2,39.9-5.3,6.5-48.1,32.2-57.5,36.5-25.8,11.7-57,12.9-85.2,10.3-12.9-1.2-38-4.9-40.8-19.2-10.3-54.6,56.1-73.1,67.4-119.8-5.8-38.5-16.4-76.1-23.3-114.4-2-11.2-7.4-34.3-6.6-44.4.9,2.2,2.1,7.1,2.4,7.5,3.8,5.5,39.4,1.3,47.6.5-12.6,4.7-24.6,8-38,4,.3,4.6-1.4,11.4,1.8,15.2,5.2,6.4,47.5,5.5,57,4.6s58.9-13,62.3-19.7c3.1-6-3.5-32.5-9.1-38,7.5.9,8.8-3.4,8-10ZM468.7,1097.1c2.3,38.2,16.3,98-.3,131.7s-21.9,31.8-21.5,34c12.5,9.7,19.1,19.7,27,33.1,3.6.8,25.9-13.6,27.8-17.9,3.4-8.1.3-28.3,4.4-41.6,2.9-9.2,14-20.6,14.6-25.6s-3.6-18.8-4-25.9c-1.5-25.6,4.9-56,6-82,.5-13-.3-26,0-39-18.6,2.8-34.7,14.5-54,14,.2,6.3-.4,12.7,0,19ZM423.9,1097.9c2.3.8,28-1.1,31.8-1.7,7.6-1.3,6.5-14.2,1.7-15.8s-30.3,4.8-38.7,1.8c1.6,4.3.9,14.2,5.2,15.7ZM403.2,1090.6c4,30.9,22.4,79.9,21.5,108.5-.6,20.2-23.9,40.7-36.1,55,9.9-1,20.1-15.4,25.7-23.3s13.5-20.8,14.3-33.7c1-15.5-11.6-95.7-16.7-111.4s-.8-4.8-1.6-5.3c-1.7-1.1-5.4,0-7.7-.3-.4,3.5,0,7,.5,10.5ZM425.6,1104.1c-5.1,0-2.2,16.6,3.8,15.9,13.9-6.3,37.5,7.6,33.2-15.9h-37ZM464.4,1134.9c6.4-18.4-24.9-6-34.5-8.5-5.1,0-2.1,12.5-1.1,13.5,2,1.8,33.6.7,35.6-5ZM466.6,1160.1c.7-.7-1.3-13.6-3.2-14.1-8.9-2.4-23,4.2-32.8,2.1-4.8,22.7,22,12.5,36,12ZM466.8,1169l-32.1,1.2v14c8.1-1.5,24.3,2.1,31,0,3.9-1.2,4.4-12.8,1.1-15.2ZM436.6,1204.1c6.2-2.5,25.4,2.8,28.8,1.8,5.1-1.4,2.9-11.7,3.3-15.9-1.1-1.1-30.7.8-31.9,2.1s.4,9.3-.1,11.9ZM459.3,1225.9c1.9-.5,7.3-10.1,7.3-10.8-.1-2.5-25.8-5.4-28.5-4.7-5,1.3-6.1,7.3-5.5,11.7,6.9-2.3,21.9,5.1,26.7,3.8ZM510.6,1270.1c5.4,0,15.1-3.4,16.1-9,.5-2.9-2.7-27-3.9-30.2-1-2.7.6-3.4-4.2-2.8-6.3,13.8-9.7,26.5-8,42ZM420.7,1235.1c0,1.4,25.3,8.9,26.7,8.6,3.6-.7,8.5-7.6,7.3-11.6-12.1-.5-25.8-9.9-34,3ZM437.7,1259.6c2-.2,5.1-4.3,5.1-6.5,0-7.2-31.9-14.7-34.1-1,6.8-2.1,25.4,7.7,29,7.5ZM366.2,1278.7c-3.6,6.1-9.7,20.6-2.3,25.1,19.1,11.5,78.9,7,100.5-1.9-4.2-39.9-78-57.7-98.2-23.2ZM360.6,1321.2c4,3.9,34,8.5,41,9,45.2,3.1,75.3-9.1,110.5-35.6,7.7-5.8,17-9.1,14.5-20.4-3.3-.8-4.6.7-7,1.9-12.2,6.5-24.9,19.7-38.9,27.1-27.8,14.6-57.9,17.5-89.1,15-5.5-.4-31.7-7.3-32.9-6.1s0,7.1,1.9,9Z"/>
    <path class="st0" d="M250.6,370.1c3.8,3.9,25-13.3,29.1-14s24.5-.2,25.8,0c11.3,1.6,40.5,29.6,55.2,32-5,6.2-9.7,7.3-4,18-4-2.3-30-14-32-12-8.2,8.3,32.1,30,36.1,36.9,1.5,2.6,4.4,13.4-1.1,11.1l-16.1-16-1,6-4-.9-41.9-47c2.1,14.2,16.5,24.7,24.8,36.2,12.5,17.3,28.9,42.4,13.2,62.8-8.7,11.2-32.2,16.7-37,27s-1.7,9.6,4,10.1,25.9-11,36-12.1c19.9-2.2,45,.4,65,2-4,2.6-15.6,3.9-7.5,11.5s10.5,2,14.9,4.1c6.9,3.2,11.4,8,16.6,12.4h-2c-1.6-1.4-20.1-11.5-21.3-11.6-2.6-.3-15.2,5.9-20.3,7-17.1,3.8-30.2,3-46.9-2-5.4-1.6-11.9-7.1-16.7-7.4-6.8-.4-27.3,4.2-37.7,3.8-7.7-.3-20.8-9.5-26.5-9.5s-14.5,8.1-22.1,9.1-20.8-.8-24.5.5,1.6,10.6-8,8c-.4-4.6,1.5-7.6-4-10,3-.5,6.8.4,10,0-2.1-20.6-22.3-9-34.5-20-6.3-5.7-12.2-24.5-10.5-32.3,1-4.8,20.6-18.8,12.8-23.6s-9.4,6.9-13.8,9.8c1.5-16.6,8.5-33.8,17.2-47.8s7.4-7.9,8.8-10.2c-7.6,18.1,13,24.9,21.6,8.5s0-5.3.4-6.5c.8-1.9,13.9-9.1,16-12-1.6,7.2,8.9,3.6,11.5,2.5s10.2-11.5,11.4-14.6c3-7.4-.6-12.4.2-18.2.9-6.9,4.9-15,6.9-21.7l-4,30ZM311.6,372c-9.8.8-.9,19.1,4.3,20s5.1-5.4,9.7-5.9c6.5-.7,14.6,5.1,21,6-6.7-4.9-28.1-20.7-35-20.1ZM257.3,386.5c4.6,1.4,5.4,10.9,9.3,7.6s7.5-10.7,7.7-11.4c6.2-20.1-22.3-4.3-27.6,3.4,3.4.2,7.3-.6,10.6.4ZM279.6,390c-5.8,7.5-12.8,14-18.9,21.2s-9.8,20.9-20,18.9l6-11c-9.8-1.2-17.2,13.2-25,19-6.8.3-1.2-9.7.1-11.9,9.1-14.3,29.7-16.5,32.9-32.1-17.2.9-39.1,13.4-51,25.9-12.4,13-19.8,32-30.1,45.9-2.1,2.9-7.2,3.3-8.5,7.5-4.4,14.1,9,37.9,24.6,36.8,4.6-.3,7.3-4,12-4.4,9.8-.9,45.2.9,54.7,3.6,10,2.9,18.6,11,30.4,8.6,1.8-23.5-33.4-23-40.5-40.5-4.3-10.7-.7-26.7,4.1-36.9,7.1-14.9,32.2-39.6,35.9-50.1,1.2-3.4.6-12.8-3.5-8.6s-1.2,5.4-3.1,7.9ZM271.1,425.1c.2,2.7,8,7.2,10.5,8.9,2.3-6.2,13.6-22.8,14.6-27.4s-3.9-11.7-5.6-10.5c-.8,6.8-19.8,24.8-19.5,29ZM303.6,412.1c-4.4-1-12.1,20.8-10.9,22,18.2-3.2,30.1-6.7,10.9-22ZM190.5,424.8c.4-2.2-4.1-6.7-4.8-6.7-4.2,0-13.6,24.8-13,30,2.4-3.5,17.5-21.7,17.8-23.3ZM280.1,441.7c-5-1.1-11.9-8.6-15.5-6.7-14.2,7.4.3,32.8-5,45.3,10.3,8.5,23.4,10.5,31.9,21.5,3.5-5.2,23.7-13.1,24.2-16.5.9-5.3-2.2-14.2-.3-23.2s18.9-24,5.8-27.7c-3.2-.9-25.3,10.7-41.2,7.4ZM333.4,522.3c9.3,3.4,54.6,9.6,57.2-1.2,1.8-7.6-27.4-5-33-5s-6.7-2-10.1-2-16.3,3.4-17,4c-3.2,3,.7,3.4,2.8,4.2Z"/>
    <path class="st0" d="M486.6,722.1c-37.8,3.9-50,51-48,83,.6,9.5,10.2,41.2-1.4,44.7-14.1,4.2-10.4-10.3-10.6-19.6-38.7,5.6-24.6,65.4,17.1,52.1,12.1-3.9,17.4-21.9,29.7-6s-4,40.9-6.7,59c-2,13.4-2.8,51.3,15.9,28.9,2.8,17.3,7.5,32.5,20,45,2.5,2.6,6.6,3.6,8,5,7.5.9,8.8-3.4,8-10-3.5-10.1-9.5-20.3-12.1-28.9-5.9-18.9,6.7-60.2,8.1-83.1.4-6.3,2.5-22.4-.3-26.7-2.9-4.3-6.6-2.6-11.7-5.3s-13.2-7.5-17.8-11.2c-35.8-28.5-27-101.2,21.8-108.8,6.7-4.4,15.9,1.4,14-10.9-1.5-10.1-25.4-8-34-7.1Z"/>
    <path class="st0" d="M196.6,526.1c3-.5,6.8.4,10,0-2.1-20.6-22.3-9-34.5-20-6.3-5.7-12.2-24.5-10.5-32.3,1-4.8,20.6-18.8,12.8-23.6s-9.4,6.9-13.8,9.8c-9.4,6.2-51.4,13.5-66,18-.9,2.5-1,5.7-2,8,3.8,1.9,1.2,6.7.7,9.7-5.7,36.1,4.2,55.2,37.3,70.3s5.4,5,10,4c10.4-7.1,50.4-43,56-44Z"/>
    <path class="st0" d="M140.6,570.1c-4.6,1-6.9-2.6-10-4-6.3,10.9-28.6-5.3-34-11-21-22.3-14.5-44.5-4-69,1-2.3,1.1-5.5,2-8-7.8,2.4-13.7,2.8-21.4,7.6-5.4,3.4-19.6,16.2-6,14,4.4-.7,6.7-6.2,11.4-5.6-9.2,31.1-3.6,52,20,73,2.3,2.1,14.8,8,12,11s-14.6,3.8-17,4c-23,2.1-48.7-3.2-52.5-29.5-8.9-61.6,56.9-117.3,91.4-159.5,29.2-35.7,33.3-55.9,83-71s7.3-3.8,9,0c4.4-8.5,2.4-9.1,12-14-34.1,5.2-65.6,20.6-88,47s-15.3,23.5-24,34c-24.5,29.4-50.1,51.1-70.3,85.7s-44.4,107.5,17.6,115.1c29.7,3.6,45.5-3.8,68.8-19.8Z"/>
    <path class="st0" d="M231.6,134.1c6.6-23.4,22.7-47.5,45-58-8.9,7.6-24.6,21.5-29.5,31.6s.2,5.9-1,8-4.6,1.9-6.5,4.4c-8.9,11.8-4.5,20.4,7.1,26.9s22.5,2.7,33.9,15.1c-10.4-4.4-21.3-7.3-32-11s-18.6-11-11.1,3.1c3.1,5.7,29.2,8.5,38,16,6.8,5.7,10.8,17.5,13,26l14-11.1c9.3,3.9,25,45.1,15,45.1h-34c-6.4,0-1.3-20.1,1-24-22.9,9.4-38.2,3.3-52-16-.7,13.6,12.1,26.8,25.2,27.9,4.3.4,11.9-3.1,13.8,0,5.4,8.7-4.3,17.9-11.1,22.1,2.2-5.4,9.8-13.6,6-17-5.8-5.1-23.7-2.6-29.1-13-8.8-2-3.1,23.5-2,28.1,4.7,20.4,17,31.6,25.1,49.9-35.1-40-43.5-103.1-29-154ZM263.6,203c20.6.8,22-8,10-22.9-2.3,3,3.2,11.3,1,14s-3.5-1.3-4.9-1c-3.2.7-5.4,4.2-9.9,2.9s-2.1-14.8-3.2-15.9-13.2.8-14,0-.3-5.5,1.9-7c4-2.7,12.4,1.6,14-2.9l-20-4c-1.7,17.6,5.2,36.1,25,36.9ZM290.2,214.7c-4.6,14.7,12.8,9.5,22.4,7.3-3.2-20.7-13.5-35.6-22.4-7.3Z"/>
    <path class="st0" d="M208.6,528.1c-4.2,1.5,1.6,10.6-8,8,1.1,13.7,4.5,23.3,5.8,35.2,4.7,43.5-36.9,116.5-37.8,164.8,6.8-13.2,19,2.9,24,10,.6-8.4-10.7-13.1-13-18s6.1-35.1,11-42c-2.3-3.3-6.7-3.4-5.6-10.5,4.3-16.1,10.2-31.2,15-47.1,3.2-10.7-.6-23.4,14.6-22.4l-2-52,84,8c12.6.2,22.1.2,32.9,0,11.8-.3,24.4.9,36.1,0,26.5-1.9,52.5-8.5,79-10-10-5.8-9.9-7.1-18-14h-2c.7.6,4.3,5.6,4,6-10.2,2.4-20.8,4.5-31.3,5.8-35.4,4.4-78.2,6.2-113.8,4.3-8.5-.4-72.2-7.4-74.8-10.2s.5-12.7-.1-15.9Z"/>
    <path class="st0" d="M362.6,920.1c-2.4,1-6.9,2-7.5,2.4-4.9,3.4.4,22.5,11.5,21.6s28.5-10.1,40-5,25.7,38.8,25.9,42.1c.4,5.6-3.9,11.9-3.9,17.9,0,11.8,8.6,28.2-12,31-10.6,7-28.8-6-30,10,.9,2.2,2.1,7.1,2.4,7.5,3.8,5.5,39.4,1.3,47.6.5,8.5-3.2,16.3-5.4,19.9-15.1,6-16-6.6-25.7-6.1-37.9s16.5-17.4,11.1-29c-2.4-5.2-16.8-9.9-21.9-18.1s-4.4-29.1-17.6-34.4c-11.9-4.8-47.3,1.2-59.5,6.5Z"/>
    <path class="st0" d="M192.6,746.1c-5-7.1-17.2-23.2-24-10-.3,18.8,2.1,12.3,8,24,8.8,17.5,5.4,57.4-10,70-3.3,2.7-8.5,1.6-9.8,5.2s-.8,28.7,0,31.4c2.9,9.3,13.8-4.6,19.7-6.7,12.8-4.5,11.3,6.7,20.5,10.5,27.7,11.4,50.8-39.5,15.5-44.4-.3,17.9-14.7,18.8-13.9,1.3,1.4-29.6,14.5-51.9-6.1-81.3Z"/>
    <path class="st0" d="M196.6,924.1c5.7,2,6.9,18.4,9.1,23.9s10.4,17.7,10,22.3c-.6,7.3-9.2,14.2-10.6,21.2-3.1,15.5,6.9,29.7-18.5,26.5-11.6-.6-23.2-.8-16.9,14,5.9,13.9,43.5,9.8,53-1.5,8.5-10.1,1.1-27.7,4.4-39.1,2.1-7.1,13.9-8.1,15.5-18.6,1.9-12.2-3.4-11.1-7.9-18.9-6.4-11-4.7-13.7-8-24s-3.9-15.4-12.2-20.8-10.2-5.2-10.8-5.2h-40c-3.4,0-4.8,14.5-1.1,17.1,5.6,3.9,27-2.7,34.1,2.9Z"/>
    <path class="st0" d="M363.6,446.1c-9.8-2-1.5,23.8,0,28,1.5,4.2,6.9,15.4,9.9,18.1,6.2,5.5,17.3,4.2,14.1,0-7.4-4.2-11.9-8.9-15.4-16.6s-6.4-28.9-8.7-29.4Z"/>
    <path class="st0" d="M347.7,212.1c-21.8-1.4-40.2-9.8-23-33,14-18.9,48.7-18.2,70-23,3.4,31.9-12.6,58.2-47,56ZM372.3,175.4c2.5.8,7,2.1,6.3,5.6-1.1,5.4-21.5-1.7-24,1s3.1,15.2-7.1,16.1-8-7.4-8.9-8.1-4.5,5.5-8,4l3-12c-23,22.6,15.2,24.4,31.5,21.5,15.5-2.8,22.7-25.5,21.5-39.5l-38,8,23.7,3.3Z"/>
    <path class="st0" d="M344.4,257.1c0,31.1-88.9,28.9-79.2-7.5,4.4-16.7,36.7-14.5,49.9-12.9,11.5,1.4,29.3,5.8,29.3,20.4ZM273,251.6c-6.5,21.8,38.2,22.4,51.5,17.5,20.8-7.6,11.5-21.6-5.4-24.5-9.7-1.6-42.9-3.7-46.1,7Z"/>
    <path class="st0" d="M214.6,444.1c-.9,9-1.6,20-4.5,28.5s-13.9,19.1-11.5,21.5c5.2,5,18.1-15.4,19.5-19.5,3.4-10,2.6-20.1,2.5-30.5h-6Z"/>
    <path class="st0" d="M280.6,252.1c-9.8,8.5,35.8,8.4,39.1,8.1s6.6.4,8.9-3.1c.9-4.9-3.9-2.8-7-2.9-13.7-.8-27.2-3-41-2Z"/>
  </g>
  <path class="st0" d="M308.6,577.9h-.5l-3.3,12c-.6,2.3,1.1,4.6,3.5,4.6h0c2.4,0,4.1-2.3,3.5-4.6l-3.3-12h0Z"/>
  <path class="st0" d="M348.8,590.5l-6.1-1.6c-.7-.2-.7-1.3,0-1.5l6.1-1.6c.9-.5.9-1.8,0-2.2l-36.9-18c-2.2-1.1-4.8-1.1-7,0l-36.9,18c-.9.5-.9,1.8,0,2.2l6.1,1.6c.7.2.7,1.3,0,1.5l-6.1,1.6c-.9.5-.9,1.8,0,2.2l5.7,1.4c.7.1.7,1.3,0,1.5l-5.7,1.4c-.9.5-.9,1.8,0,2.2l36.9,18c2.2,1.1,4.8,1.1,7,0l36.9-18c.9-.5.9-1.8,0-2.2l-5.7-1.4c-.7-.1-.7-1.3,0-1.5l5.7-1.4c.9-.5.9-1.8,0-2.2h0ZM325.4,607.4h-8.6c-.5,0-.9-.3-1.1-.7l-1.6-5.5c-.1-.5-.5-.7-1.1-.7h-9.4c-.5,0-.9.3-1.1.7l-1.6,5.5c-.1.5-.5.7-1.1.7h-8.6c-.7,0-1.2-.7-1.1-1.4l10.5-34.6c.1-.5.5-.7,1.1-.7h12.7c.5,0,.9.3,1.1.7l10.5,34.6c.2.7-.3,1.4-1.1,1.4h.2Z"/>
</svg>