<?xml version="1.0" encoding="UTF-8"?>
<svg id="Capa_1" xmlns="http://www.w3.org/2000/svg" version="1.1" viewBox="0 0 783.2 1359.5">
  <!-- Generator: Adobe Illustrator 29.0.0, SVG Export Plug-In . SVG Version: 2.1.0 Build 186)  -->
  <defs>
    <style>
      .st0 {
        fill: #010101;
      }

      .st1 {
        fill: #1a1aff;
      }

      .st2 {
        fill: #0b0b0b;
      }

      .st3 {
        fill: #101010;
      }

      .st4 {
        fill: #131313;
      }

      .st5 {
        fill: #0e0e0e;
      }
    </style>
  </defs>
  <path class="st2" d="M610.8,601.7c5.1,9.5,14.8,20.5,20.3,30.7,20.4,37.2,31.2,76.8,33.7,119.3,15.4-14.3,17.8-17.1,14-38l-2-8c-.1-.6.1-1.4,0-2l-2-8c-.1-.6.1-1.4,0-2l-2-8c-.1-.6.1-1.4,0-2-.1-3.2,1.2-8.3-2-10,0-.7,0-1.3,0-2-1.4-9.1-2-19.6-6-28,0-.7,0-1.3,0-2-.5-5.1.7-9.7,1.4-14.7l-5.4-17.3c0-.7,0-1.3,0-2l6-4c1,5.9,5.8,5.6,6,6,.7,1.3-.5,5.9,0,8-1.3,1.2-3.3,1.3-4,4s.4,5.5,0,8c3.5,1.4,4.7-1.4,6-2,20.5-9.1,50.1-16.7,70-3,1.2,5.1-13.2,10.1-17,13-12.7,9.7-17.4,28.6-15,44-3.5-14.9-4-25,6-39s19-13.8,15.1-19.1-16.8-4.1-19.9-3.9-41.5,11.5-43.3,12.9c-3.1,2.6-2.2,8.3-2,12,1.7,26.9,15.8,57.3,14,85.1,18-4,35.1-6.5,54-6,.4-6.4-7.4-8.4-10.8-12.2-11-12.7-9.7-14.9-13.2-29.8,2.4,14.9,20.1,36.5,36,38-1.4-3.1,2.6-13.1,2-13.9s-5.5-1.3-7.9-3.2c-25.4-20.7-22.4-54.5,11.9-60.9,2.6,2.4,5.2-6.2,6,8-7.5-9.2-23.7,1.3-27.7,9.3s-.4,31.6,9,38.4c19.5,14.1,15.6-14.4,16.6-24.8s2.1-4.6,2.1-4.8c0,2,0,4,0,6,0,20.3-6.2,39.6-6.2,57,.2,35.9,24,77.8,1.6,115.5-1.1,1.8-24,25.5-25.6,26.4-4.2,2.6-8.5,2.3-11.8,4.2-7.3,4.1-9.9,14.4-22.7,10.5-3.4-1.1-4.9-5.5-7.4-6.6-5.9-2.7-14.1,1.6-15.9-8.1-4.2-22.3,16.9-47.3,8.9-70.9-4.4,5.2-6.6,11.8-11,17-2.6,3.1-8.4,4.2-9.6,8.4-3,10.3-3.1,35.4-4.4,47.6-.7,6.3-1.7,15.2-4,21,.3-4.8,1.7-20.8.2-23-4.1-6.4-12.8-4.8-19.1-7-14.2-5-30.2-25.8-33.6-40.3-2-8.3-2.3-33.7-1-42.1,2.2-14.9,24.4-36.2,39-39,8.2-1.6,22.6,2.8,20.7-11.4-1.5-11.2-33.1-2.5-40.1,0-25.1,9-43,46.4-39.9,71.8,1.3,11.1,14.9,49.7-2.1,54.3-2.9.8-11.5-1-13.1-3.1s-4.1-22.5-13.1-10.6c-14.3,19,6.4,48.4,27.6,41.1,10.6-3.7,19.5-21.8,33.7-8.6,6.6,6.2,8.8,24.3,8.2,32.8-1.1,16.5-21.5,33.7-10.9,53.8,3.8,7.2,8.5,1,12.4,1.8,6.7,1.3,5.8,42.5,26.7,49.2,3.2,1,7.1,2.2,6.5-2.5-1.6-12.3-11-21.9-12-35.1,14.6,23.5,19.7,49.9,24.2,76.8,7.9,48.3-4.8,87.2-4.2,134.1.2,20.5,8.8,47.8,10.1,70.1.8,13.7,3.5,31.8-7,40.9-43.9,38.1-105.5,56.7-162.5,38.7-14.5-4.6-16.8-9.6-16.2-25.3,1.9-50.5,60.5-64.3,67.9-112.2-18.1-63.4-21.6-137.3-40.6-199.5-7.1-23.1-18.7-45.9-26-70-6.7-22.3-10.6-45.8-18.5-67.5-8.4,26.2-15.8,53-25,79s-15.1,30.6-16,38.2c-1.3,11.2,8,36.8,9.7,50,7.9,61.1-15.4,95.7-17.7,149.8-.8,19.5,7.2,38.4,8.1,57.9.3,5.9-1.4,42.4-3,45.1-4.7,7.9-54.9,10.6-65.8,12.2-44.3,6.5-86.9,15.3-132.2,11.7-8.3-.7-32.5-4.3-36.8-11.2-4.7-7.4.8-36.1,5.4-44.2,11-19.4,73.5-40.6,95.8-54.2,13.1-8,17.5-10.6,17.9-27,.6-22.9-3.8-46.2-3.2-69.3.2-7.6-3.1-16.3,6-14,2.1,6.9,27.5,3,34,4-.3-3.6,1.3-11-1.9-13.1s-27.9-6.2-32.1-6.9-3.3,3.3-5.1,0l-.9-12.1c3.3-.7,5.3.9,8,2,37.5,15.3,76.8,10.9,115.7,1.7,5.1-25.1-7.1-49.7-9.5-72.9-1.9-18.3,13.8-44.6,20.3-63.3,7-20.2,24.5-69.3,25.6-88.5.8-14.4-4.5-32.3-4.1-47.1-56.9-4.5-101.7-57.3-134-100,.2-.4,0-1.4,0-2,5.9.8,24.3,28.8,30,35,19,20.4,58.4,52.5,84.6,61.4,6.7,2.3,16.7,5.1,22.4-.5,33-61.5,109.9-116.6,182-93.9,8-.5-14.5-49.4-16.6-53.4-3.1-5.9-20.3-33.9-25.4-33.9s-9.6,4.7-13.4,5.9c-23,7-47.3,13.9-71.2,17-38.4,4.9-87.3,4.9-127.1.2-9.4-1.1-45.5-14.3-47.9-13.5s-3.6,3.5-4.4,5.8c-4.5,12.1-14.8,51.2-15,63.1s1.9,5.4,2.1,6.9c-3.4-.5-8.3,5.6-8-6,6.5-24,15.3-47.4,20-72,1.3-3,4.6-5.4,8-4s1.2,2.8,4.8,4.1c59.4,21,128.1,19.4,189.6,7.3s49.9-10.9,57.6-15.4,2.2-9.3,10-2ZM571.2,930.2c3.2,7.2,1.8,15.6,6.6,23.4s20.8,13.5,22.6,19.5c2.9,10-7.4,14.3-10.1,21.1-7.4,18.1,21,35.6-3.7,54.3-14.7,11.1-34.4,10-51.8,9.2,1.9,4,1,15,3.9,17.1s35.4,4.9,40.8,4.8c25.2-.6,55.6-11.3,79-20.2,1.9-3.1-3.1-28.7-5.2-33.1-3.9-8-16.9-13-22.1-21.9-5.1-8.6-9.1-24.7-10.3-34.7-1.2-1.5-7.4,8.8-10.9,8-6.3-1.5-5.7-30.9-4.9-36.8,2.5-17.9,21.5-37.9,7.5-57.9-12.9-18.4-19.8,2.6-31.6,5.8-39.3,10.3-55.3-47.7-16.1-53.1.2,9.3-3.5,23.8,10.6,19.6s2.1-35.2,1.4-44.7c-3.7-51.8,20.9-89,76-87-3.6-21,1.3-27.1-21.3-31.7-54.4-11-136.9,39.1-158.4,89-4.8,11.2,0,41.8,1.9,55.4,4.2,29.8,12.6,60,19.9,89.1,19.9-1.9,65.4-19.8,76.3,4.7ZM710.6,842.6c-2.9,10-11.6,22.7-13.1,31s-.6,5.3,2.2,6.1c7.5,1.9,15-13.6,17.3-18.6,3.5-7.8,12-51.3,14.6-51.3s3.1,10.3,3,12.9c-.7,14.6-7.4,28.9-10,43,18.6-5.6,15.8-51.2,21.9-57,1.4-1.3,2.3-1.1,4-1,.2,6.3-.2,12.7,0,19,0,2.4-1.5,7.4,2,7,4.1-13.9,5-28.5,4-43-.5-7.8-8.7-54.9-12-58-9-8.5-43.3-6.2-54.1,1.9-3.2,2.4-21.2,25.3-23,29-3.6,7.4-4.7,17.6-7.9,26.1-2,5.3-16.6,24.9-7.7,27.8,17,5.6,20.7-29.8,31.7-29.9s7.4,28.3,6.7,34.9c-1.2,11.3-12.4,35.6-11.8,42.2s3.4,6.7,7,7.2c4.5,0,12.1-17.6,13.9-22.1,4.6-11.5,5.6-27.4,9.5-36.5s2.4-4,5.5-3.4c1.1,11.5-1,21.9-4.1,32.9ZM652.8,830.7c-1.2-6.2-12.2-6.5-12.1-18s14.2-27.2,15.9-40.2c3-23.1,2.1-32.1-21.2-23.2-53.8,20.7-42.2,111.2,15.3,116.4-2-11.3,4.1-24.2,2-35ZM505.6,949.6c-4,5.4,14.9,42.9,17.7,52.6,1.6,5.7,5.5,30.3,6.4,31.6,2.7,3.9,29.8,2.4,35-1.2,8.8-6.1,2.1-21,2-29.8s3.3-11.8,2-20-22-37.7-25.3-38.7c-5.6-1.6-35,1.7-37.7,5.5ZM624.8,1080.7c-4.4,1.4-18.9,2.9-19.5,5.9,1.5,16.6,4.3,33.5,5.5,50.1s6,56.1,3.8,73.8c-2.7,22.2-19.6,39.1-29.6,57.9,10.9,11.4,21.1,20,26.8,35.2,1.7.1,26.9-16.1,28-18,2.7-4.4.4-18.5,1-25,1.8-16.9,8-29,17.6-42.5-7.7-49.2,3.3-99,4.3-148.5-2.5-2.4-32.2,9.2-38,11ZM282.8,1279.7l88.1-12.9c3.9-19.8,9.8-42.3,27.9-54.1,4.4-2.9,14.3-4.1,15.7-8.4s-2-22-1.5-29.4c2.5-33.8,16.8-69.2,19.7-103.2-12.5,2.6-26.3,7-39,8s-37.5-1.8-40.1,1.9c-3.3,4.7.5,86.6-.8,101.2-3.6,41.5-52,46.4-82.1,63,5.2,10.8,13,21.3,12,34ZM598.8,1101.7v-16s-42,2-42,2c-.7,28.1,24.3,10.6,42,14ZM560.3,1187.2c2.9,19.6,2.4,27.4-8.6,44.4s-17.6,18.5-24.9,28.1c10.4-1.1,19.9-15.1,25.6-23.3,11.5-16.7,15.4-26.5,14.1-47.4-2-32-13.7-67.3-16.1-99.9,0-3.7-8.7-4.3-9.6-3.4-3.7,3.6,17.6,88.4,19.5,101.5ZM342,1113.6c5.4,0,5.9-6.8,4.6-10.6s-25.2-3.3-31.8-5.3c-3.7,21.8,13.6,10.5,27.2,15.9ZM564.1,1110c-6.3,2.1-3.2,14.5,3.7,15.7s31.2-2.6,32.1-3.9c2-2.9,1.9-12.6-2.4-14s-26.5,4.2-33.4,2.1ZM315.6,1119.6c-1.7,2.5-1.7,11.4,1,13.3s27.5,3.6,29.2,1,1.7-11.4-1-13.3-14.7-2-17.7-2.3-9.1-2.1-11.5,1.3ZM602.6,1143.6c1-1,.5-11.4-1.7-13s-30.6.7-32.8,1.4c-5.3,1.7-3,12.2-1,13.4s34.1-.2,35.6-1.8ZM316.8,1153.7c1.1,1.1,27.8,4.5,29.7-1.2,5.6-16.6-20.1-9.3-29.8-10.8.4,2.5-.7,11.3,0,12ZM572,1167.4c4.1,1.4,31.8,1.1,32.8-3,5.3-22.2-24-8.4-36.1-10.7.2,4.3-1.7,12.1,3.3,13.7ZM318.8,1173.7c.9.9,22.5,1.7,26,2v-14s-26,0-26,0c.4,2.5-.6,11.4,0,12ZM606.5,1177c-2.6-7.5-26.7,1.6-33.7-1.3v14c8.1-1.5,24.3,2.1,31,0,3.5-1.1,3.8-9.4,2.7-12.7ZM341.5,1195.9c2.5-.5,3.3-8.4,3.4-10.9-.4-2.3-24.5-7.5-27.3-3.4s-1.5,7.2-.8,8,23.4,6.5,24.6,6.3ZM606.8,1211.7v-16c-6,.7-28.6-1.8-31.6,2.5-11.2,16.4,22.5,11.1,31.6,13.6ZM304.8,1202.7c.3,1.2,16.2,10.8,18.7,10.6s13.5-8.6,11.3-11.6c-5.2-2.4-32.9-11.3-30,.9ZM301.9,1221.7c2,.3,10.4-1.5,10.8-2,5.6-7.7-34.1-17.7-26-6,.5.7,14.3,8,15.1,8.1ZM395.7,1225.6c-8.9,9.2-16.4,27.2-14.9,40.1l38-4c-2.1-11.9,2.9-34.6,0-45s-19.7,5.5-23.1,8.9ZM599.4,1231.9c1.3-.3,5.6-9.9,5.3-11.1-.5-2.5-25.2-5.8-28.9-5.1s-8.9,10.4-7.1,12.1,29.2,4.5,30.7,4.2ZM268.8,1220.7c8.8,5.7,14,17,24,6,0-2.1-14.8-10.3-17.4-10.7-3.7-.5-6.3.2-6.6,4.6ZM250.8,1232.7c7,5.8,16.6,9.9,23.9,2,0-1.9-10.8-8.2-13.5-8.7-4.2-.7-15.5,2.4-10.5,6.6ZM660.7,1231.7c-12.4,11.5-12.7,30.2-12,46,26.3-6,12.2-26.8,12-46ZM587.4,1249.5c3.2-.9,6.7-10.2,5.3-11.8-2.1-2.4-36.1-9.1-34,6,7.1-3.3,24.7,7,28.7,5.8ZM271.8,1281.7c2.2-.4,3.9-.8,4.8-3.2-.9-16.1-22.3-43-38.8-43s-42.1,23.1-39,42.1c21.4,2.2,51.9,7.7,73,4ZM547.7,1253.7c-4,7.6,10.5,5.7,15.2,6.9s13.3,8.7,16.9,1.1c4.3-9-10.8-10.8-16.6-11.4s-12.6-2.2-15.5,3.4ZM584.6,1278.9c-17.4-13-55.2-19-72.9-5.2-5,3.9-17.6,29.1-14.1,34.1,5.4,7.9,62.9,8.8,73.9,7.7s30-6.4,31.1-8c4.8-6.8-12.5-24.6-18-28.6ZM198.8,1292.7c3.5,2.9,30.6,6.7,36.9,7.1,37,2.5,137.3-8.8,173.5-18.7,7.5-2,10.8-1.9,9.6-11.4-25.5,2.7-51.3,4.7-76.7,8.3-40.5,5.7-71.9,14.5-114.4,11.8-5-.3-29.1-5.9-30.9-4.1s-.1,5.1,2.1,6.9ZM520.4,1333.1c51.1,8.8,100.8-4.4,139.4-39.5,5.6-5.1,11.9-16.4.5-13.6s-35.3,25.8-46.7,31.3c-35.8,17.3-81.4,15.9-118.7,4.3-3.9,14.2,15.1,15.6,25.6,17.4Z"/>
  <path class="st0" d="M580.8,170.6c.9,24.3-5.9,59.5-17,81.2-5.9,11.5-33,36.9-12.2,46,10.4,4.6,30.7,8.2,43.1,11.9,2.2,4.4,1.1,6.2,0,10-1.8,6.1-6.5,13-8,18-2.9,5.3-4,7.9-10,10-9.4,3.3-25.7,4.2-31.1,16.1-3.3,7.3,10.1,10.5,1.9,23.8-9.3,15.2-32.7,8.9-44.7,15.3-9.5,5-24.8,24.7-37.5,32.5-26.7,16.3-53.3,19.6-72.3-8.9s-6.9-19.7-9.4-22.6-15.9-3.9-20.7-13.3c-10.9-21.1,19.8-23.6,2.7-42.7-3.8,6.8-25,48.8-24.6,52.7,1.3,13.1,27.4,25.5,36.5,33.3,11.2,9.6,21.3,23.5,21.2,39s-6.1,28.5-12.3,19.8-2.8-13.2-8.8-18.8c-9.4-8.8-31.4-5.8-31.3-22.9,0-2.9,2.6-10.4,2.2-10.9s-5.3-1.4-7.8-3.2c-5.9-4.3-9.2-8.1-14.1-12.9s-9.1-.3-4-14c19.3-29.1,27.3-47.9,40-80s.3-10.3,3.3-12.2,28-7.9,31.7-7.9c7.3,0,0,8.2-.5,11.6s0,6.1-.4,8.5c-6.2,35.6-21.2,93.4,24.8,108.2,6.1-10.7,8.6-23.5,18.2-32.1,4.2,3.1,2.7,3.6,1.4,7.4s-12.9,24-10.4,26.6c32.8-5.4,57.1-31.2,76.8-56.2,18.5-23.5,34.2-50,49.2-75.8-11.6-2.3-17.8-9-21-20-22,18.9-54.7,33.6-84.1,32.1s-18.2-3.7-26.9-6.1-4.4-2.4-7.9-3.1-6.6,1.5-8.2.3c-2.5-1.9-1-7.1-3.9-11.2-18.4-25.3-24.7-25.9-34-60,2.9-8.1-4.6-18.9-4.1-25,.5-5.8,5.8-4.6,6.1-5,5.4,3.3,7.9,8.2,14,11,10.4,4.7,27.7-1.3,24.1,13.6-.2.9-8.5,5.8-11,9.5-8.8,13.2-4.3,30.7,8.2,39.6s25.4,12.7,28.7,13.5,36.7-8.3,41.4-10.8c10.4-5.4,16.9-18.6,13.1-29.9-4.4-13-19.2-15.7-21.5-20.5s-1.7-11.3-1-12c1.1-1.1,23.9,2.7,30.8,1.8,37.5-4.9,54-55.9,41.1-87.8-18.8,23.2-48.8,18.4-71.4,31.6s-16.5,14.4-17.6,14.4-6.9-10.8-10-11.9l-11.7,9.8c-5.6-3.5-7.2-9.6-12.6-13.6-12.5-9.2-29-6.5-40.7-18.3s-3.1-6.2-6-8c33-117.2,205.5-94.4,210.1,28.9ZM518.7,117.7c-13.7,13.3-41.9,10.1-46,32,14.9-14,47.8-4.5,46-32ZM418.7,149.7c-.8-15.1-17.8-22.6-30-28-2.9,18.4,19.6,17.9,30,28Z"/>
  <path class="st3" d="M404.8,299.7c.2,5.1-2.7,5.2-6.4,6.6-52.5,20.6-66.4,8-99.2,64.8-18.1,31.3-32.8,69.1-46.4,102.6-3,.8-3.3-.8-5-2-6.4-4.5-24.3-21.6-31-28v2c3.9,3.7,22,19.8,23,22.1,2.1,4.6-.1,7.7-1,11.9,9.5-6,8.6,6.9,7.8,12.8-2.6,18.7-22.1,36-38.5,43.5-9.8,4.5-24,11.3-25.4-4.4-6.9.1-9.1-1.4-14-6,15.5,29,52,73.6,87,76s60-41.2,80.9-62c2.3,18.9,9.6,35.5,7.8,54.8s-2.7,11.7-3.8,17.2c1.3-3,4.6-5.4,8-4,7.7-14.5,3.1-32.5,2-48,81.1,13,164.6,10.9,245-6,1.6,7.5-2.7,15-2.4,22.5.4,10.3,7.6,17.5,7.5,27.5,4.5-2.7,2.2-9.3,10-2-6-11.3-9.4-21.8-7.8-34.8s12.1-41.9,16.3-51.7,2-5.5,4.6-7.4c12.1,21.9,29.7,42.4,34.8,67.2-2.8,10.7,1.3,22.6,2.2,32.8l6-4c-2-12.1,2.2-27.7-.9-40.1-3.7-14.5-32-56.4-40.8-75.2-3.5-7.5-18.2-49-20.6-50.4s-5.5-.5-5.7-.3c-4.9,4.8,12.2,35,14,41,1.9,6.3-7.7,1.3-9.9-.1-40.2-26.6-27.5-102.1-16.1-140.9-2.9,5.3-4,7.9-10,10-4.7,19.1-6.9,37.4-18,54,3.8-3.4,9.7-13.4,13.1-8.1s1.6,26.2.6,27.8-5.5,1.7-7.6,3.4-4.4,5.5-6.1,6.9l10-4c3,18.4,11.3,43.1,26.2,54.8,4.2,3.3,18.6,9.6,19.6,12.5,1.4,4.2-10.5,44.6-13.8,47.6s-30.8,7.2-37.6,8.4c-58.1,10-124.7,12.5-183.1,4.4-4.4-.6-32-4.7-33.1-5.9s-1.6-14.9-2.2-17.8c7.4,3.2,16.5,2.5,24.5,1.5s26-5.1,19.5-11.5c-1.7-1.7-22.4,3.8-27,4-31.5,1.4-57.8-30.2-54.7-60.8,1.2-11.8,7.9-36.1,19.8-41.2-4.9-4.7-9.1-.3-4-14-21.5,32.5-37.7,69.7-7,104,5.8,6.4,18.3,10.7,13.5,19.4-13.4,18.3-43.8,58.3-67.8,60.5-26.6,2.4-49.8-26.2-66.7-42.9,11-7.3,23.3-9.5,34-17.9,13.1-10.3,19.8-24.5,26.9-39,4.4,4.1,8.7,9.2,11.4,14.6s7,28.4,12.7,19.4c1.4-10.9-5.7-22.1-11-31.1-7.8-13.4-13.3-8-7-26.9,9.3-27.9,50.5-112.9,72-130,5.3-4.2,16.6-11.1,22.9-13.1s7-2.8,6.1,3.1c1.9-4.7.3-10.3,3.3-12.2s28-7.9,31.7-7.9c7.3,0,0,8.2-.5,11.6s0,6.1-.4,8.5c4.6-8.5,2.5-16,15-16.1s4.3-.3,4.9.2c.9.8.7,21,6.1,15.9s2.4-12.8,2-16c-2.1-.6-4.4-2.4-7.9-3.1s-6.6,1.5-8.2.3c-2.5-1.9-1-7.1-3.9-11.2Z"/>
  <path class="st0" d="M652.8,895.7c.3-4.8,1.7-20.8.2-23-4.1-6.4-12.8-4.8-19.1-7-14.2-5-30.2-25.8-33.6-40.3-2-8.3-2.3-33.7-1-42.1,2.2-14.9,24.4-36.2,39-39,8.2-1.6,22.6,2.8,20.7-11.4-1.5-11.2-33.1-2.5-40.1,0-25.1,9-43,46.4-39.9,71.8,1.3,11.1,14.9,49.7-2.1,54.3-2.9.8-11.5-1-13.1-3.1s-4.1-22.5-13.1-10.6c-14.3,19,6.4,48.4,27.6,41.1,10.6-3.7,19.5-21.8,33.7-8.6,6.6,6.2,8.8,24.3,8.2,32.8-1.1,16.5-21.5,33.7-10.9,53.8,3.8,7.2,8.5,1,12.4,1.8,6.7,1.3,5.8,42.5,26.7,49.2,3.2,1,7.1,2.2,6.5-2.5-1.6-12.3-11-21.9-12-35.1-1.9-23.9,8.6-56,10-82Z"/>
  <path class="st0" d="M216.8,445.7c-5.2-4.9-28.2-27.1-32.1-29-7.7-3.8-6.9.7-9.9,3-5.7,4.3-10.5,9.6-16,14s-5.5,6.4-11.5,7.5c-14.8,2.9-21.7-5.5-16.5,16.5s30.5,61,38,68c4.9,4.6,7.1,6.1,14,6,23.9-.5,51.1-29.6,56-52,.9-4.2,3.1-7.4,1-11.9s-19.1-18.3-23-22.1Z"/>
  <path class="st5" d="M216.8,445.7c-5.2-4.9-28.2-27.1-32.1-29-7.7-3.8-6.9.7-9.9,3l12-88c-18.5-1.6-16.1,21.6-21.1,31.9s-13.5,9.8-17.8,16.2-11.9,38.3-13.3,14.9c-1.2-20.1,18.7-27.2,18.2-35.9-8.7-11.7-20.6-63.1-28.9-69.3s-9.6-.5-8.7,6.6c1.9,16.2,12,32.9,13.8,49.3.7.7,15,.2,6.8,6.3-6.9,5.1-18.3,8.4-26.9,15.1s-12.6,13-19.2,18.8c-5-10.6-30.8-34.1-42-34s3.9,13.6,5.9,16.1c8.9,10.9,22.4,18.3,31,29,9,11.3,11,23.1,23.4,32.6,16.3,12.5,32.5,13.7,50.7,4.3-3.6,2.9-5.5,6.4-11.5,7.5-14.8,2.9-21.7-5.5-16.5,16.5-3.6-13-10-10.3-19-16-21.8-13.5-19.4-21.6-33-39-9.3-11.8-49-39-41-55.1,3.5-7,16.7-3.6,23-2,2.2-2.3-17.8-21.3-6.9-33.9,5.4-6.3,12.9-4.2,18.9,0,1.8-2.3-8.6-18.9,4.6-24.5,16.6-7.1,23.6,18.2,33.4,26.5-4.7-13.1-5.3-45.1,16.6-32.1,12.4,7.4,19.8,56.4,32.4,68.1,5.9-12.9,9.1-31.5,27.9-28,16.4,3.1,3,37.4,1.3,49.2-1.7,12.3.9,25.1-4.3,37.7.3,2.7,27.4,30.6,32,35v2ZM80.3,307.2c1.6,5.1,20.3,40.5,23.5,44.5,6.6,8.2,17,0,16.1-4s-19.5-33.9-23.1-39-12.8-18.2-18-12.9c-1.3,1.3.8,8.9,1.5,11.4ZM58.9,319c-2.8,9.3,25.3,44.7,32.9,52.7,3-3.8,9.7-6.5,8.2-12-1.5-5.3-32.2-43.1-36.3-44s-4.3,1.5-4.8,3.2Z"/>
  <path class="st3" d="M594.8,309.7c2.2,4.4,1.1,6.2,0,10,65.6,7.4,94.2,54.1,117,110,21.5,52.9,41.2,114.7,41,172-26.1-5.9-56.7-7-80,8,.7,1.3-.5,5.9,0,8,14.1-12.8,60.6-15.9,77.2-8.2s2,29.7,4.8,32.2,5.2-6.2,6,8c.3,5.7.3,12.3,0,18,0,2,0,4,0,6,3.3-2.1,2-7.6,2-11,1.2-96-12-169-51.7-256.4-29.2-64.4-50.4-77.1-116.4-96.6Z"/>
  <path class="st3" d="M306.8,1101.7c.2-7.6-3.1-16.3,6-14-1.1-3.7.8-11.5,0-16-.4,0-3.3,3.3-5.1,0l-.9-12.1c3.3-.7,5.3.9,8,2v-14c4.6-.1,9.3.2,14,0v-2c-2.6.2-5.4,0-8,0-4.6,0-9.2,2-13.8-.2-.5-4.6-.2-9.2-.2-13.8s0-1.3,0-2c.2-3.3-.2-6.7,0-10,2,.2,4-.2,6,0-5.9-29.8-7-59.6-6-90-1.9-.2-7.6-1.2-8.1-3.3s.5-15.2,2.4-16.4,36.3-.6,41.7-.3c-6.7-5.5-35.4,1.5-39.1-3.9-3.7-19.6-1.5-29.3,13.1-42.1-8.8.6-12.3,15.4-22,14v-40c0-.8,7.5.3,10-2-4.8-19.3.4-43.3,4.3-62.7.7-3.4.7-6.9,3.7-9.3-.8-1.4-4.1-2.5-4.9-4-3.8-7.5,1-26.6,8.9-23s12.5,12.9,14,15.1c.7-8.7-13.4-14.6-14-21-.4-4.2,6.4-27.6,8-34s3.8-4.6,4-5,0-1.4,0-2c-3.4-.5-8.3,5.6-8-6-17.9,65.8-31.3,132.2-28.1,201.1,3.3,69.6,11.3,135.3,12,205.9,0,3.4-1.3,8.9,2,11Z"/>
  <path class="st0" d="M370.8,141.7c2.9,1.8,4,6,6,8-9,18.6,25.7,16.4,36.8,26.2,7.5,6.6,13,19.9,11.2,29.8l15-15.9c7.4,2.7,27,45.9,16,45.9h-34c-8.1,0,1.8-23,1-24-21.5,9.3-41.1,3.5-51-18-3.6,2.3,1.5,15.3,1,16s-5.6-.8-6.1,5c-.5,6.1,7,16.9,4.1,25-8.9-32.7-9.2-65.3,0-98ZM401.8,209.8c17.6.9,21.9-8,11.9-22.1-3,2.3,2.7,10.2,1,12s-4.4-1.9-6.6-1.4-5.1,4.9-10.1,3.3-2.1-14.8-3.2-15.9-15.4,2.2-14-5c1.2-6,16.2-.1,18-5l-22-6c-2.1,18.2,3.6,38.9,25.1,40.1ZM426.8,229.7h24c1.8-5.1-8.5-31.8-14-28s-12.1,25.9-10,28Z"/>
  <path class="st0" d="M328.8,689.7c5.9.8,24.3,28.8,30,35,19,20.4,58.4,52.5,84.6,61.4,6.7,2.3,16.7,5.1,22.4-.5,33-61.5,109.9-116.6,182-93.9,8-.5-14.5-49.4-16.6-53.4-3.1-5.9-20.3-33.9-25.4-33.9s-9.6,4.7-13.4,5.9c-23,7-47.3,13.9-71.2,17-38.4,4.9-87.3,4.9-127.1.2-9.4-1.1-45.5-14.3-47.9-13.5s-3.6,3.5-4.4,5.8c-4.5,12.1-14.8,51.2-15,63.1s1.9,5.4,2.1,6.9Z"/>
  <path class="st0" d="M712.8,681.7c-3.5-14.9-4-25,6-39s19-13.8,15.1-19.1-16.8-4.1-19.9-3.9-41.5,11.5-43.3,12.9c-3.1,2.6-2.2,8.3-2,12,1.7,26.9,15.8,57.3,14,85.1,18-4,35.1-6.5,54-6,.4-6.4-7.4-8.4-10.8-12.2-11-12.7-9.7-14.9-13.2-29.8Z"/>
  <path class="st0" d="M760.8,667.7c.3-5.7.3-12.3,0-18-7.5-9.2-23.7,1.3-27.7,9.3s-.4,31.6,9,38.4c19.5,14.1,15.6-14.4,16.6-24.8s2.1-4.6,2.1-4.8Z"/>
  <path class="st3" d="M664.8,641.7c-.5-5.1.7-9.7,1.4-14.7l-5.4-17.3c1,10.1,0,22.9,4,32Z"/>
  <path class="st3" d="M668.8,621.7c-.6,2.1.4,5.5,0,8,3.5,1.4,4.7-1.4,6-2-4.8,1.3-3.6-3.1-6-6Z"/>
  <path class="st3" d="M670.8,671.7c-1.4-9.1-2-19.6-6-28,.7,9.2,1.6,20,6,28Z"/>
  <path class="st3" d="M672.8,683.7c-.1-3.2,1.2-8.3-2-10,.5,3.6,1.5,7.2,2,10Z"/>
  <path class="st3" d="M678.8,713.7l-2-8c.6,3.1,1.7,6.3,2,8Z"/>
  <path class="st3" d="M676.8,703.7l-2-8c.6,3.4,1.6,6.1,2,8Z"/>
  <path class="st3" d="M674.8,693.7l-2-8c.6,3.2,1.7,6.5,2,8Z"/>
  <path class="st0" d="M558.8,401.7c-8.5,7.5-16.6,15.2-27.3,19.7-20,8.5-42.1,8.4-60.6,23.4-11.9,9.7-25.5,34.7-15.1,48.8,6,8.2,10.1-5.7,13-9,13-14.9,21.4-8.1,36.5-13.5,15.6-5.6,6.5-13.9,9.8-19.2s20.8-5.1,25.8-7.3c7.7-3.3,12.3-8.2,18-13,1.7-1.5,3.2-4.7,6.1-6.9s7.1-2.7,7.6-3.4c1-1.6.8-25.5-.6-27.8-3.4-5.3-9.2,4.7-13.1,8.1Z"/>
  <path class="st0" d="M312.8,763.7c10,18.4,8.1,57.5-8,72-2.5,2.3-10,1.2-10,2v40c9.7,1.4,13.2-13.4,22-14,9.3-.7,11.4,9.6,18.5,12.5,27.4,11.3,50.6-38.4,15.5-44.5,1.9,15.8-13.8,19.8-14.1,3.1-.5-29.8,16.4-51.2-6-83.1-1.5-2.1-12.6-14.4-14-15.1-7.9-3.6-12.7,15.5-8.9,23,.8,1.5,4.1,2.6,4.9,4Z"/>
  <path class="st0" d="M342.8,909.7c-5.4-.4-39.9-.8-41.7.3s-3.1,13.7-2.4,16.4,6.2,3.1,8.1,3.3c7.8.8,17.7-1.3,24.9,0,10.8,2,8.4,14.3,11.5,22.5s11.8,20.1,10.7,25.5c-1.2,5.7-9.3,12.7-10.7,19.4-1.8,8.7,2.5,19.9-4.5,26.5-10.7,10.2-22.8-8.6-32,6,0,.7,0,1.3,0,2,2.8,9.8,5.7,9.8,14,14,2.6,0,5.4.2,8,0,12.3-.9,20.1.9,30.1-8.9s2.5-26.9,6.3-39.7c1.9-6.5,15.3-11.1,15.8-20.4s-16.9-15.6-17.8-34.7c-.1-3,1.6-4.1,1.6-4.3-.8-18.8-.4-26.6-22-28Z"/>
  <path class="st2" d="M328.8,1045.7v2c11.1-.4,26.1,1.3,34-9,8.1-10.4,1.1-28.6,4.4-39.6,1.6-5.5,15.5-13.3,17.2-18.8,5.2-17-10.5-16.4-15.3-25.8-3-5.8-1.4-11.3-4.2-16.8,0,.2-1.7,1.3-1.6,4.3.9,19.1,18.4,23.3,17.8,34.7s-13.9,13.9-15.8,20.4c-3.8,12.8,5.4,28-6.3,39.7s-17.8,8-30.1,8.9Z"/>
  <path class="st2" d="M312.8,1019.7c-1.9-.2-4,.1-6,0-.2,3.3.2,6.7,0,10,9.2-14.6,21.3,4.2,32-6-9,1.9-18-3-26-4Z"/>
  <path class="st2" d="M306.8,1031.7c0,4.6-.3,9.2.2,13.8,4.6,2.2,9.2.1,13.8.2-8.3-4.2-11.2-4.2-14-14Z"/>
  <path class="st4" d="M446.8,515.7c.5,9.4,13,15.1,20.6,18.3,24,10.2,49.5,10.3,72.7-2,5.9-3.1,29.9-21.2,28.6-27.3-1.9-9.5-17.8,10-20.2,11.8-18.9,14.3-42.8,19.7-65.9,14.3-13.5-3.2-22.9-12.1-35.9-15.1Z"/>
  <path class="st0" d="M531.4,185.3c-3.9,15.9-17.3,30.3-33.8,32.1-22.5,2.5-55.7-4.6-34.8-32.8,7.1-9.6,17.1-12.9,28.3-15.7s36.6-7.5,38.5-7.1c5.7,1.4,2.9,18.8,1.8,23.4ZM465.1,205.4c1,1.6,21.8,6,25,6.1,25.7.6,35.9-18.7,34.7-41.8-14.8,4.1-30.6,4.8-44,12s-21.9,14-15.7,23.7Z"/>
  <path class="st0" d="M479.6,253.9c22.1,36.5-84.4,42.8-76.8,2.9.3-1.8,5.4-9.6,6.6-10.5,11.8-8,61.9-6.3,70.2,7.5ZM410.7,264.6c2.8,16.6,67.8,19.3,64.1-3.8-1.5-9.5-29.7-12.3-37.5-12.3-11.1,0-29.3.6-26.7,16.1Z"/>
  <path class="st0" d="M480.8,181.7c-1.2.6-14.3,14.7-12,18,9.5-5,11.8,3.5,17.1,4.1,11.2,1.4,5.3-14.5,6.9-16.1s20.2.7,24,0c-.8-10.7-30.1-8.8-36-6Z"/>
  <path class="st0" d="M418.8,257.7c-9.8,8.5,35.8,8.4,39.1,8.1s6.6.4,8.9-3.1c1-4.8-3.9-2.9-7-3-13.8-.5-27.3-2.2-41-2Z"/>
  <path class="st1" d="M429.4,584.8l-3,10.3c-.6,2,.9,4,3,4h0c2.1,0,3.6-1.9,3.1-3.9l-2.7-10.4h-.4s0,0,0,0Z"/>
  <path class="st0" d="M394.6,595.1c-.8.4-.8,1.5,0,1.9l4.9,1.3c.6.2.6,1.2,0,1.3l-5,1.1c-.8.4-.8,1.5,0,1.9l31.5,16.1c1.9,1,4.1,1,6.1.1l32.1-14.9c.8-.4.8-1.5,0-1.9l-4.9-1.3c-.6-.2-.6-1.2,0-1.3l4.9-1.1c.8-.4.8-1.5,0-1.9l-5.2-1.4c-.6-.2-.6-1.1,0-1.3l5.3-1.2c.8-.4.8-1.5,0-1.9l-31.5-16.1c-1.9-1-4.1-1-6.1-.1l-32.1,14.9c-.8.4-.8,1.5,0,1.9l5.3,1.4c.6.2.6,1.1,0,1.3l-5.3,1.2h0ZM414.5,609.9h0c-.6,0-1.1-.6-.9-1.2l9.6-29.6c.1-.3.5-.6.9-.6l10.9.2c.5,0,.8.2.9.7l8.5,30c.1.6-.3,1.2-1,1.1h-7.4c-.5-.1-.8-.4-.9-.8l-1.2-4.7c-.1-.4-.5-.7-.9-.7l-8.1-.2c-.5,0-.8.2-.9.6l-1.4,4.7c-.1.3-.5.6-.9.6h-7.4c0-.1.1-.1.1-.1Z"/>
</svg>