<?xml version="1.0" encoding="UTF-8"?>
<svg id="Capa_1" xmlns="http://www.w3.org/2000/svg" version="1.1" viewBox="0 0 697.6 1328.2">
  <!-- Generator: Adobe Illustrator 29.0.0, SVG Export Plug-In . SVG Version: 2.1.0 Build 186)  -->
  <defs>
    <style>
      .st0 {
        fill: #010101;
      }

      .st1 {
        fill: #030303;
      }

      .st2 {
        fill: #111;
      }

      .st3 {
        fill: #0101ff;
      }

      .st4 {
        fill: #121212;
      }

      .st5 {
        fill: #101010;
      }
    </style>
  </defs>
  <path class="st0" d="M87.1,670.5c3.6-2.1,9-2.2,12.4-.2l1.9,5.1,29.1,14.8,5-1.9c1.8,6.3,4.7,8.5,8,2,.4-1.3,5.8-6.2,7-8,17.6-27.4,37.6-54,53.4-82.6,2.9-5.3,6.1-11.5,7.6-17.4l1.1,6.1c-5,13.6-7.3,28-11.1,41.9l-3.3,19.9c-.7,3.9,2.3,7.5,8.9,10.9,16.2,25.4,39.3,45.6,62.4,65.1.2,8.1,15.9,18.5,23.6,22.5,6.3,3.3,12.7,6.4,19.7,8.3l4.7-2.8c7.1,1.9,14.3,3,21.4,3.8,5-8.2,10.6-16.1,16.6-23.8l6.2-1.9c32-42.2,79.5-71.5,133.3-71.4,23.4,0,27.4,4.5,28.6,27.5-65.5-6.6-87.1,61.8-71.8,115.3.4,5.7.5,21.1-7.6,15,2.7-36.3-30.9-18.6-30.5,7.6.5,34.7,39.6,46.7,60.2,17.6,22,9.8,14.1,35.2,5.6,52.2-5.3,13.5-11,60.4,14.1,45.1-1.1,9.4,1.9,17.1,6.1,25.2,4.1,7.9,14.8,26.2,23.7,17.7,9.8,8.7,7.9-4.7,6-12-4.5-12.7-13.1-26.2-12.1-39.1.8-10,4.6-21.8,6-31.9,4.7-32.2,7.9-64.2,12-96,.5-4.3-1-9.1,1-13,1.4-2.7,6.6-4.3,9.1-6.9,4.5-4.8,6.3-13.6,11.9-17.1-.6,8.7.9,18.4,0,27-1.7,14.7-14.4,30.1-9.7,45.8,1.7,5.7,12.2,4.3,15.9,6.1,1.7.8,2.8,4.1,5.2,4.8,3.1.9,12,.7,14.8-.7,2.5-1.2,5.4-6.8,7.9-8.1,4.4-2.3,10.4-1.9,16-6,4.5-3.3,5.7-7.9,9-11,8.8-8.3,13.1-8.4,18.1-21.9,9.9-26.6,3.3-57.8-1.1-85-2.6-16.4-3.9-16.5-2-34.1,9.8-91.4,8.8-157.4-20.4-245.6-12.7-38.6-35.7-103.1-66.6-129.4-32.8-28-68.1-31.6-107.6-42.4-7.9-2.2-16.1-3.5-17.4-12.6-2-13.9,2.1-12,8-20,13.2-17.8,23.1-44.1,25.9-66.1,8.3-63.6-20-129.8-91-136.9-55.1-5.5-96.5,19.1-115,70l-1.1,11.3c4.6,2.3,9.7,5.3,15.1,8.7l1.1,4.6c18.4,2.8,27.3,11.1,39.7,24.2,5.5,1.9,9.9-.9,13.2-8.5,9.8,18.1,16.8,11.4,27.5-1.3,12.3-7.5,26.1-12,41.4-13.3,11.1-2.4,21.1-7.7,28.3-16.5,10.9,34-10.4,82.1-51.3,77.1-17.5-4.6-25.6-1.7-18.8,17.5,19.7,7.8,30.3,28.8,9.2,42.6-2.9,1.9-35.3,11.4-37.2,11.2-1.2-.1-19.5-8.1-22.1-9.5-17.6-9.3-29.4-31.1-7.7-43.5,10.5-13.5,2.5-21.5-23.8-23.9l-3.5,3.2c-18.5-15.3-16.8,4.5-12,18,2.3,17.1,13.1,39.5,24,53,1.8,2.3,12,11.1,12,12,0,1.4-3.5,2.5-4.9,3.1-14.5,5.7-32.4,8.6-47.1,14.9-76.3,32.2-75,129.1-86,198-4.2,26.6-15.7,38.5-26.4,61.6-9.4,20.4-18.1,45.2-21.6,67.4l-5,24c2.1,9.8,21-3.6,25-10,10.5-1.9,9.7-23.9,7.2-32.7-2.2-2.1-11.6-19.7-4.5-20.8,1.2-.2,8.9,20.9,9.3,23.3,4.1,23.4-7.2,46.6-29.4,55.4l-.6,4.9c-8.5-1-18.4,2.6-10.4,12.2ZM481.1,522.9c4.6-15.3,8.7-31,13.9-46.1.9-2.5,1-4.8,3.5-6.5l31.9,59.7c1.7,3.2,2.6,6.7,2.7,10.2l1.3,43.5,21.2,109.5c1.7,11.4-8.1,18.9-16.1,25.1-3.4-7.6-1-15.4-2.1-23-4.2-31.3-16.8-70.1-32.3-97.7-5.4-9.5-12.8-18.2-18.1-27.9-2.9-5.4-11.1-21.4-11.7-26.4-.8-7,3.8-14.3,5.6-20.4Z"/>
  <path class="st5" d="M201.5,630.3c-21.8,78.8-38.1,145.6-32,229,2.8,39.2,4,78.7,8.1,117.9,2,19.1,2.8,35.1,1.9,53.9-1.6,30.5,4,65.5,6,96.1,1.4,20.3-.5,25.9-17.3,36.6-22.9,14.8-51.5,23.6-75.4,36.6-13.1,7.1-24.8,17.2-27.3,32.7-.7,4.5-1.5,11.4-2,16-1.9,18.9,11.8,20.4,27,22.9,50.6,8.4,111.5-5.1,162-11.9,12.6-1.7,29.8-1.6,41.6-6.4s6.7-17.5,7.4-26.6,1.9-4.7,2-8c1.4-27.2-10.6-52.9-8-78,3-29.4,22.3-79.2,19.9-106-1.4-15.7-1.6-32.6-4-48s-6.9-22.6-7.9-32.1c-1.4-12.9,14.5-42.3,19.5-56.4,7-19.6,14.1-42.4,19.5-62.5s1.3-5.2.9-8.1c2.8.4,3.4,2.7,4,5,3.8,15.7,6.4,31.8,10.5,47.5,1.8,6.9,4,15.4,7.5,21.5,3.6-.9,5-4.7,6-8l.8-9.6c-11.2-34.8-18-70.8-22.3-106.8-1.7-14.5-1.9-27.1,7.4-39.1l-1.9-4.4c-6.9,3.1-14.9,19.9-21.2,21.8s-11.3-3.5-16.8-1.8c0,7.5,9.8,8,16,8.1,7.6,37.8.3,67.3-12.2,104.3-8.9,26.3-18.6,52.3-29.7,77.7,1.7,17.8,4.8,35.5,9.3,52.9.7,4.8,1.9,27.3.8,29.7-3.1,6.6-98.5,11.3-108.9,0s-2.5-13.2.6-14.9l.5-4.6c-6.9-5.3-12.3-13.3-4.5-19.4.3-13.4-1.2-26.9-4.3-40.7l.8-47,19.1-.6,2.5-3.8c1.7-3,1.4-5.3-2-5.9l-21.4.2c-13.4,1.6-4.4-13.6,5.2-10.5h29.8c0,0,2.5-3.8,2.5-3.8,2.2-3.9.7-5.9-3.6-6.2l-36.2.7v-26.3s-4.2-2.2-4.2-2.2c-1.5-1.2-3.3-2.1-4.7-.9l.4-32.3c6.9-1.3,9-3.6,6.3-6.8,3-24.6,5.7-48.6,8-72,1.8-2.8,1.2-5.1-1.6-7.2-.6-17.8,3.1-20.9,11.1-9.6l4.5-1.3c4.8-2.6,2.8-7.7-6.2-15.4l8.1-31.4c15,24.3,36.3,43.9,59.4,60.7h6.7c-17.7-18.2-36.9-33.6-53-53.9s-2.3-5.5-4.1-7.9c-2.7-3.6-7.4-6.5-9.9-10.1-5.6-8.1.7-14.5-1.1-23.9Z"/>
  <path class="st2" d="M523.5,984.3l-1.9,3.8c3.4,5.8,10.8,30.3,7.9,35.3-5.9,10.6-98.2,24.2-112.5,15.2l-3.6,3.8c-4.5,2.4-5,5.6,0,8q5.1,4.8,0,0c-1.1-5.3-4.4-5.6-8-2,5.3,26.7,10.8,54,16.1,80.9s12.3,37.5,4.8,53c-17.7,36.7-60.4,51.1-64.9,95.1-.4,3.7,1.2,14.1,2.2,17.7,2.4,7.8,23.2,11.9,30.8,13.2,55.6,9.5,105-6.1,146.8-43,1.4-1.3,4.5-3.5,5.1-4.9,2-4,1.4-32.3.9-39-1.9-27.6-11.5-53.5-9.9-82s6.7-56.1,8-84c1.3-25.9-7.5-58.9-16.1-83.1-.1,4.5,1.5,9.6-3.2,11.8l-2.8.2Z"/>
  <path class="st1" d="M371.5,894.3c-6.2,1.3-6.8-2.9-6,8,1.6,21.1,19.5,49.7,25.5,71.5,6.7,24.2,9.7,50.3,14.5,74.5,2.6,2.1,5.1,1.7,8,2,0-3.7,1.4-3,0-8,3-3,2.8-7.8-.5-14.4,36.6,4.6,78.8-11.2,55.3-54.3l-.9-7.8c13.4-17.4,16.6-33-7.3-41.9-6.1-5.6-9.3-13.5-9.6-23.7-2.7-29.8-58-17.5-76.1-10.7l-3,4.7Z"/>
  <path class="st2" d="M143.5,690.3c-3.1.5-5.4-.6-8-2l-3.8,3.6c3.7,19.3.6,38.2-9.3,56.6-1.2-1.5-2.9-2.4-4.9-2.4-12.3-.2-16-2-4.5-10.6,12.4-8.2,25.8-39.9,2.2-37.8-1.6,14.5-8.3,25.1-20.2,31.8l-3,4.7c.2,8.4-1.1,48.4-8.4,23.1s-2-20.7.4-31.6c1.1-11-7.3-17.3-15-7.6l19.5-42.1c5-1.4,8.6-3.3,11-5.6,0,0,.6-1.3-1.2-1.8s-10.8.3-10.8-3.2,7.7-5.7,10-7c-2.6-7.3,2.1-13.1,14-17.6,4.1-3.4,9.5-7.9,4-12.4-3.1,2.5-19.2,12.9-22,10s1.6-13.9,2-17.1-.3-4.9,0-6.9l-17,56c-19.8,38-37.9,70.3-26.5,114.5,2.7,10.5,8.1,28.9,19.4,32.6,4.8,1.5,9,0,12.9,1.1s5.5,6.6,8.5,7.5,12,.8,14.8-.7,2.3-3.2,4-4c11.1-5.9,12.2-1.6,16.3-15.7s8-1.8,10.8-5.2c7.6-9.2-3.7-23-5-33.1-.6-4.4-.6-13.7,0-18,.9-6.8,8.9-15,10-22s2.3-14.8,2.1-18c-.3-5.6-4-12.6-2.1-19Z"/>
  <path class="st0" d="M245.5,204.3c-.4-2.7-1.8-13.5-1.7-14.7.8-8.7,7.5-4.7,13.7-3.3l1.7-4.2c67,20.4,51.6-49.5-.4-55.7l2.7-4.1c-4.4-7.7-16.4-8.6-14-20-10.2,27.9-11,63-5.6,92.6.5,2.5,1.4,8.1,3.6,9.4Z"/>
  <path class="st3" d="M219.5,498.3c-1.6,1.5,3.5,14.2,2.1,17.9,9.4,1.5,19.7,4.8,28.9,6.1,60.8,8.4,145.5,6,205.5-6.4,7.1-1.5,14.2-4,21.2-5.8.7-7.4,17-49.5,14.2-51.8s-4.5.3-6.6-.4c-20.5-6-33.3-32.1-38.9-51.1s-2-14-2.5-14.5c-2.2-2.3-9.9,7.2-12.1,8.9-4.2,3.3-9.6,7.3-14.5,9.5-5.3,2.4-26.1,6.5-27.3,7.7-1.9,1.9,5.1,15.4-9.5,19.5-10.1,2.8-20.1.7-29.4,6.6s-14.9,17.7-16.3,17.7c-2.7,0-6.6-10.1-7-13-.6-4.6,1.3-12.6,2.9-17,4.8-13,20.6-25.3,33-31,26.8-12.1,48.8-7.4,70.1-33.9,10.5-13.1,11.2-22.1,14.4-37.6.8-4,3.1-8.7,3.6-12.4s0-3.2-3.1-3.1c-8.8.4-23.4,8.6-28,16-3.8,6.1,3.8,7.7,4.8,11.3,4.5,15.3-17.2,23.3-28.8,24.7-5.7.7-11.3-.9-17.1.9s-21.5,21.1-28.9,27.1c-12.5,10.2-39.5,22.4-55.6,19.6s-22.1-13.2-27.1-20.9-5.5-18.3-9.3-22.7-9.7-3.8-13.8-6.2c-8.2-4.8-11.7-13.1-9-22.5s9-6.8,9.8-12.2-1.7-16.8-7-15c-4.9,1.6-14.1,43.6-22.8,49.3,2.2,18.8,23.8,25.8,36.9,36.7,12.6,10.4,22.6,25.8,20.9,43-.4,4-4.9,17-8.9,17s-6-12.8-8-15.9c-8.4-12.7-21.1-9-30-16s-1.9-21.1-3-22-3.5-.5-5.4-1.6-6.2-3.8-8.5-5.5-10.3-10.9-11.1-10.9-5.7,7.6-6.7,9.3c-14.8,26.2-13.9,62.9,10.6,82.7,5.6,4.5,17,11,24.1,11.9s19.9-.9,27.9-2,7.5-3.3,9-2-2.4,5.4-4.6,6.4-9.9,3.6-10.4,3.6c-4.4,0-28-1-29,0Z"/>
  <path class="st3" d="M355.5,734.3c-1.1,1.6-3.6,5.8-5,8.1-6.1,10.1-6,19.2-5,30.9,1.6,19.5,6.5,45.7,10.4,65.6s8.7,37.6,15.5,55.5c17.2-3.7,26.8-6.3,45-8,7.4-.7,10.8-4.1,19.7.4,14.6,7.4,9.1,24.6,16.4,35.6,7.7,11.5,25.1,6.3,20.6,26.7s-8.7,9.3-9.7,16.3c-1.8,14,14.3,27.4,5,43-4.2,7.1-20.4,14.3-28.4,15.6s-29.5-.7-30.6.4c-2.6,2.5,3,14.6,4,18,3.9-.4,7,1.8,10.9,2.1,26.6,2,51.5.3,77.7-6.5,5.3-1.4,30.1-9.2,31.2-12.8s.5-8.7.2-11.7c-.7-5.7-5.8-26.5-10-29s-5-1-8-3c-6.6-4.5-16.3-22.5-17.7-30.3s.2-16-.4-16.6c-3.5-3.8-10.1,13.9-15.8,4.8-4.7-7.6-2.3-30,.7-38.8,5.5-16.1,11.9-20.7,9.1-40.9-1-7-11.2-21-18.8-18.9-3.7,1.1-10.5,12.5-19.1,14.9-37.4,10.5-49.4-48.4-17.1-53.1,3.8-.6,2.9.1,3,3,.3,6.4-2.2,18.2,7,19.1,5.7.5,8.3-4.1,9-9.1,2.7-18.9-5.8-40-4.1-60.1,2.3-27.2,24.7-59.2,53.1-62.9,4.1-.5,22.2.8,23,0,1.5-1.5-2.8-25.1-4.9-28.1-1.6-2.2-11-5.4-14.1-5.9-58.1-9.2-121,29.3-153,76Z"/>
  <path class="st3" d="M201.5,712.3l-.8,4.9c17.2,23.8,12.7,55.5,6.6,82.5-1.3,19.5,21.8,22.9,22.4,2.8,26.8,20-10,54.8-29.5,26-8.5-6.8-24.8,5-22.6,13.8.8,4.7-1.1,30.9,0,32s28.1,0,33,0,9.3-1.5,11,2c3.7,3.5,7.6,7.2,11.9,10.9.9,14.3,4,27.3,9.4,39,20.1,13.4,15.7,19.8-1.7,33.3l-3.1,4.7c1.8,34.5-2,50.3-41,46.2l-3.5,1.9c-6.1-.2-6.2-1.5-6,5,0,2.3,1.4,11.7,2.3,12.8s19.5,5.6,22.8,6.2c24,3.9,53.9,2.5,77.9-2s14.4-3.5,15-4c1-1,.4-24.9,0-28.9-1.5-18.7-9.8-37.1-10-56,15.6-35.8,29.3-72.7,39.5-110.5,7.7-28.3,6.8-39.1,2.5-67.6s.4-8.6,0-9-6.6.3-9,0c-4.1-.6-8.3-3.2-11-4-24.1-6.8-29.6-13.9-48-28-19-14.6-34.1-25.7-50-45-2.7-3.3-15.5-23-17-23-2.3,0-2.7,5.3-3.1,6.8-1.8,5.9-8.3,27.8-8,32.1s10.5,8.5,10.1,15Z"/>
  <path class="st3" d="M487.5,450.3c2.4-2.5-13.3-34.1-14-41-.4-3.8,1.7-9,5-5,11.2,29.8,24.3,58.7,39.3,86.7,8.1,15.2,25.3,34.9,23.7,52.3s-.4,7.1,0,14.1-.6,18.3,0,19c1.3,1.3,19.5-6.4,23.5-7.5,25.3-7,33.6-3.4,57.6-.5,8.3,1,7.9-.4,6.9-8.9-5.9-52-16.3-92.5-34.4-141.6-18.2-49.4-37.6-100.5-89.5-122.5-10.2-4.3-21.2-6.4-31.4-10.7-5-.8-8.5,10.9-10.2,15.2-9.9,24.8-17.4,65.1-14.4,91.5,1.4,12.6,13.5,42.6,22.9,51.1,2,1.8,13.6,9.5,15,8Z"/>
  <path class="st0" d="M455.5,586.3c-11.9,1.1-18,8.8-27,10-6.3.8-13.6-.6-20.1,0-16.4,1.3-31.1,9.4-47.9,8-22.4-1.8-43.9-.6-66.1-1.9-5.6-.3-14.1-3.5-19.9-3.3s-20.9,7.7-25.7,6.9-12-5.2-12.4-5.7c-1-1.3,2.8-8.4,1.1-10s-15.2-4.9-15.9-4-3.8,13.2-4,15c-.4,4.2,1.6,8.9,1.1,11-1.1,4.6-7.6,7.9-8.8,13.3-.5,2.4-.8,14-.2,14.6s7,1.4,7.7,2.3.4,3.9,1.1,5.8c3,7.7,2.1,9.3,3.5,16.6s8.8,16.4,12.8,17.3,7-5.7,10.9-3c4.9,3.5,2.8,12.1,4.8,15.2s10.2,3.2,14.2,5.8,8.2,8.2,9.3,10.7c3.2,7.1.5,15,11.5,18.5s16.4,3.1,22.1-.1,3.2-6.1,11-5.1c6.7.9,4.8,9,14,10.1,16.8,2,12.6-3.9,22-14,1.5-3.8,2-7.9,4.9-11.1s9.6-4.5,11.2-6.8,0-11.3.9-12,2.9.1,4.5-.4c12.8-4.4,12-5.6,20.4-13.7s11.4-5.2,15.1-11.9c2.5-2.5,7.1-3.1,14-2,3.9-1.3,8.2-2.5,12-4,8-4.7,16-9.4,24-14,2.8,0,6.2,1.6,10,2,3.3-2,6.5-1.1,10,0,6.4,1.8,10.4,1.2,16,2l4,2c15.2,1.7,19.1-11,8-18-10.3.5-15.6-1.5-16-6,1.3-2.6,1.3-8.5,2-10l4-4c.8-4.3-1.4-13.1-6-14-6.8-2.3-13.7-1.4-20.6,2.9-2.4-5.6-6.2-10.6-11.4-14.9-.3-.2-1.3.1-2,0-1.2-1.4-2.9-1.7-4,0Z"/>
  <path class="st3" d="M299.5,280.3c-.4.5-1,12.9-2,14s-5.1-.9-5.8-3.2.5-12.1-.2-12.8c-1.5-1.6-12.9.9-15.1,3.9s-9.9,36.6-10.9,43.1c-4,25.2-2.8,59.4,20,75.9,1.7,1.2,7.3,4.3,9.1,4.9,3.6,1.1,2.4-.4,3.2-2.5,3.5-9.6,4.6-17.9,12.7-25.4,1.3-1.2,5.2-5.9,7-4s-11.5,22.8-11.7,27.3c-2.8,8.5,8.2,3.8,13.7,1.7,53.5-20.2,80.2-82.6,111.9-126.1,1.6-4-7-4.1-11-6.9-5.1-3.5-6.6-8.1-8.6-13.5s.5-3.1-3.4-2.6c-15.8,14.5-35.2,25.8-56.4,29.6-12.4,2.2-24.8,2.5-37.2,0s-13.6-5.8-15.4-3.6Z"/>
  <path class="st3" d="M223.5,524.3c-1.1,1.2,3.7,15.2,4.1,18.9.5,5.4.5,14.7-.1,20s-4.1,11.7-3.1,13.1c1.8,2.6,13.3,5.9,17.1,7,56.4,17.1,129.3,13.2,186.6.5,16.7-3.7,33-9.1,49.5-13.5-4.8-13.2-9.9-22.1-8-37,1.2-9.4,10.7-14.9-5-13s-24.4,6.3-36.1,7.9c-57,8-116.6,7.7-173.9,2l-31-6Z"/>
  <path class="st3" d="M237.5,294.3c-3-2.9-27.2,12.8-31,16-42.7,34.9-45.1,108.6-53,159-2.3,14.7-3.8,30.6-9.6,44.4-4.9,11.7-13.1,22.1-18.3,33.8-1.2,6.8,11.8,4.4,16.5,5.2,12.8,2.2,34.3,11.4,44.4,19.6s14,18.7,18.7,8.7c4.2-9,15.1-35.1,14.3-43.6-1.4-13.3-7.2-29.4-8.9-43.1-35.2-14.3-42.8-57.1-30.1-89.9,11.9-30.9,43.2-50.8,47.5-86.5.9-3.5,10.6-22.4,9.6-23.4Z"/>
  <path class="st3" d="M585.5,778.3c4.3-.2,3.8-.9,4,3,.5,10.6-1.5,21-5,31-2.6,7.4-11.6,21.4-12.8,27.3s4.2,8.4,9.8,3.7c13.5-11.4,17-37.1,20.5-53.5s2-13.5,4.5-13.5c6,0,1.4,14.4,1,17-1.2,8.8-1.7,16.8-4.5,25.5s-12.4,23,1.5,11.5c8.4-7,13.5-33.8,14.9-45.1s-.4-10.4,0-11c1.8-2,5.6,1.8,6.1,4.9,1.5,10.3-4.1,22.5-4.1,33.1l5-8c10.3-26.1,4-54.7-1-81.1-1.3-7-1.2-24.2-9.3-26.7-2.6-.8-10.7-2.1-13.6-2.4-10.3-.8-31.2.1-39.1,7.1-2.5,2.2-4.7,8-7.1,10.9-16.5,20.7-13.5,20.8-21.8,44.2-2.7,7.5-19.9,27.2-4.1,28s12.2-11.8,18.1-20c2.1-2.9,10.9-13.3,14-8.1s2.7,11.1,2.9,13.1c.8,8.3-.6,23.4-2.3,31.6s-11.1,22.5-9.7,32.4c.7,5.2,6.3,6.8,10.2,4,2.1-1.5,8.8-14.4,10.3-17.7,5.7-13,8.5-27.6,11.6-41.4Z"/>
  <path class="st3" d="M261.5,122.3c-1.2-.4-3.4.5-6-1s-4.2-5-5-5c-2.6,0-4.3,7-2.1,10.1s20.5,6.9,25.1,8.9c15.1,6.4,28.6,18,26,36.1-1.9,13.5-30.8,13.5-40,5.9l-14-15c-1.3,11.2,5.9,16.4,12,24,4.9,1.1,10.4,3.3,15,4,7.2,1.1,12-3.2,13,7.1.7,6.8-9.7,9.4-13.8,16.3-7.7,12.9,2.1,28.8,12.7,36.8,8.6,6.5,20.9,8,30,14.1,15.1-8.1,35.8-4,47.1-19.1s2.3-34.3-15.9-41.2c.4-5.5-5.3-13.5,2.9-13.9s5.5,1.9,8,2.1c13.3,1.2,25.8.9,36.9-7,24.2-17.2,32.1-53.7,22-80.9-4.8,2.5-7.8,7.6-12.1,10.9-18.9,14.7-43.3,7.2-62.9,23.1s-10,11.4-12.1,12c-4.6,1.4-8.2-10.8-12-11.9s-7.6,9.4-9.9,10c-3.8,1-14.7-14.4-19-17-6.9-4.1-18.5-6.4-26-9Z"/>
  <path class="st3" d="M99.5,670.3c-16.1-2.4-14.5,5-19.6,15.4-19.8,40.1-35.5,68.6-14.8,114,2.3,5,10.2,17,15.5,8.7,4.4-6.9-6-24.2-7-33.1-.8-6.9-1.8-17.1-2.1-23.9-.3-6.2-1-25.2.3-29.8s6.2-7.2,7.7-2.2c2.2,7.6-2.1,15.9-2.1,21.9s1.6,12.6,2.2,16c.5,3,5.2,14.2,9,13,11-3.4,5-27.2,7.3-34.7,1.6-5.4,14.1-10.4,17.5-16.5s3.6-18,4.3-18.7c1-1.1,5.1.9,5.8,3.2,3.3,11.1-4.9,21.9-12.8,28.8s-5.1,2.4-6.1,3.9-1.4,13.6-.9,14.1c.8.8,15.1-.9,16,0,1.4,1.4-1.7,6.9-2,9-1.1,10.1,2.9,26.8,9,35,1.6,2.2,6.2,2.8,7,2,2.8-2.9-7.3-27-8-33-2.3-20,10-28.9,11.9-46,1.2-10.2-1.6-19-2-29-13.4-7-21-12.1-36-18Z"/>
  <path class="st3" d="M531.5,712.3c-2.2-2.2-17.9,1.4-22,3-31.8,11.9-42.2,55.4-28.4,84.5,5.1,10.9,20.6,28.3,32.3,31.7s11.3,1.7,12.1.9-.3-8.4,0-11,1.8-4.8,2-8c.4-5.2.7-15.1,0-19.9s-7.4-3.7-9.1-7.1-1.4-7.9-.9-11.1c1.5-10.1,12-23.2,14-34-.8-4.3,1-28,0-29Z"/>
  <path class="st0" d="M353.5,50.3c-.4.4-8.7.1-10.7-.3-8.3-1.8-6.1-1.2-14.4-1.5-6-.3-9.9-3.5-17.6-1.8-17.3,3.8,5.3,25.2-3.3,30.7-9.4,6.1-22.6-15.3-35.1-5.1-5.3,4.3-7,6.7-.9,11,9.4,6.7,19.7,10.6,26.9,21.1,1.8,2.6,2.8,7.6,3.1,7.9,1.4,1.5,12.7-6,21.1,1.9s4.1,7.1,11.5,10.5c17.4,7.9,5.3-7.2,5.4-11.4s7.4-21.5,3.9-24.9-17.7-3.7-5.9-11.2c1-.6,12.1.9,14.6,1.5,8.5,1.8,11.5,5.1,22,3.2s4.7-3.7,7.2-6.7c4.3-4.9,16.4-7.2,22.9-8.9s3.2-8.1,0-10.1-11.2-4.9-15.5-3.6-2.7,3.6-8.2,3.9-18.2-3.5-18.9-7.3,2.3-4.4,1.9-4.8-7.8-2.4-9-2c-4.8,1.3-.2,7.2-1,8Z"/>
  <path class="st3" d="M543.5,596.3c1,1,16.3-6.6,19.4-7.6,12.2-3.8,28.9-6,41.6-4.4,2.8.4,12.7,3.8,14.1,5.9,4.8,7.1-3.2,6.3-7.7,8.5-12,5.8-21.6,14.6-23.4,28.6-3.3,25.4,7.1,44.3,28,57.9s7.2,0,9.8-9.7c-6.2-6.5-14.6-10.8-19.6-18.5-8.5-13-5.6-39.7,11.1-44.4,2.7-.7,10.9-.8,12.5-2.5s.2-30.5-.8-32c-4.6-6.5-43.5-6.8-52.1-5.8s-31.2,9.5-32.8,15.2-.6,8.4-.2,8.7Z"/>
  <path class="st3" d="M115.5,628.3c-1.7,3.4-.8,4.4-5,8-8.1,7.1-15.6,5.3-18.7,17.3s1.2,4.8,5.7,4.7c8.1-4.6,15.7-7.5,22-15,11-12.9,14.1-29.3,11.9-46s-11.5-25.6-10-27,10.7-.2,13,0c15.2,1.9,34.9,11.6,47,21,2.3,1.8,10.3,10.9,11.1,10.9,2.6,0,5.6-6,4.1-10.1-4-11-33.3-26.1-44.6-29.4-6.5-1.9-23.6-6-29.3-4.3s-11.1,20.2-11.3,22.8c-.4,5.4,7.2,11.3,8.1,18,1.4,10.2.5,20-4,29Z"/>
  <path class="st0" d="M363.5,204.3c-.8.7,10.7,13.9,11.7,17.3s-.8,19.4.5,20.5,2.6.3,3.7,1.2c1.8,1.5,3.4,4.1,5.4,4.7,3.4,1,14.3,2.7,17.4,2s8.6-3.7,9-4c.9-.9,1.2-4.5,2.6-6.4s7.4-7.5,7.3-10.3c-.2-6.5-6.9-4.6-11.5-8s-3.8-6.9-7.3-8.7-16.3-5.1-20-6-17.5-3.3-18.7-2.3Z"/>
  <path class="st0" d="M442.5,142.3c-4.5-1.2-10.8,7.2-16.1,7.9-3.9,5.6-4.7,12.6-7.3,18.7-1.2,2.7-5,6.1-5.5,8.7-.8,4.5,7.5,7.5,9.8,9.8s3.8,7.8,7.2,8.8c8.4,2.4,10.8-6.8,12.4-13.2,3.3-13.1-.8-24.2,1.5-34.6.6-2.6.9-5.2-2.1-6Z"/>
  <path class="st0" d="M571.5,636.3c-3.3-5.2-5.3-2.5-6,8-.7,2.3-1.1,6-2,8l-4,4c-4.7,9.6,5.5,19.4,4,24-1.1,1.3-1.3,2.7,0,4,.3,1.7-.4,5.5,0,6,1.2,1.4,7.6-3.1,10-4l4-2c1-.3,5-.3,6,0l4,2c10.7.4,14.4-5.7,4.7-11.7s-5.5-1.6-6.7-2.3c-3.8-1-5.8-3-6-6,.2-.3,0-1.3,0-2,1.7-4.2,1.7-8.9,0-14-.3-2.1.5-4.7,0-6.9-2.3-10.5-3.6-5.3-8-7.1Z"/>
  <path class="st0" d="M399.5,102.3c2.2,2.2,9.9-3.9,13-4.1,5.5-.4,14,6.6,17,11s5.2,13.4,9.9,16.1,3.6-.9,3.9-2.1c1.1-3.9-.1-11.8-2.9-14.9-1.9-2.1-6-2.5-6.8-5.2-1.5-5,1.9-9,1.6-11.5s-7.3-12.7-8.9-13.1c-14.7-4.4-30.8,19.8-26.8,23.8Z"/>
  <path class="st0" d="M573.5,596.3c-2,8.8-6.7,13.4-14,14-3.2.3-8.6-1.2-9.8,3.2s0,9,1.8,12.8l4,4c.4,0,1.6.1,2,0l4.2-.8c2.8,4.4,6,3.3,9.8-3.2,1.6-.8,5.1-1.7,5.7-2.3,1.4-1.4,3.5-11.7,7.3-15.7s10-6,11-9c2.1-7-16.9-5.9-22-3Z"/>
  <path class="st0" d="M461.5,824.3l-4,4c-2.4,2.8-2.7,3.5-6,6l-4,4c-.8.4-3.6,0-6,.9-5.3,2.2-8.2,5-2,8.1s13.1.2,18.1-3.1l4-4c3.2-3,6.3-6.5,11.3-7.7s8.9,3.8,14.7-2.3c.7-1.4,1.3-2.9,0-4-1.8-4.8-6.7-16.1-13-16.1s-10.3,10.8-13,14.1Z"/>
  <path class="st0" d="M431.5,298.3c.7.7,9.6-.7,12.8.3s4.9,6.6,8.2,5.8,10.7-20.7,9-22-19.8-4.2-20.8-3.9c-3,.8-12,17.2-9.2,19.9Z"/>
  <path class="st0" d="M378.4,410.5c-7.5-2.1-19.6,1.1-25.5,6.1-11.8,10.1,8.4,9.1,14,13.4,6.2,1.4,13.7.4,14.7-6.6.5-3.7.8-11.7-3.2-12.9Z"/>
  <path class="st3" d="M347.5,116.3c.5.6,11.5-6.2,13.9-7.1,10-3.6,28.8-3.3,31.7-16.3s-3.9-4.4-11.1-1.1-17.1,4.2-24.5,9.5c-2.5,1.8-13.1,11.6-10,14.9Z"/>
  <path class="st0" d="M235.5,424.3c1,.9,9.6,1.9,12.1,2.9s5.6,4.8,8.9,5.2c11.6,1.3,4.4-11.3.8-16.8-10.3-15.7-24.3,6.4-21.7,8.7Z"/>
  <path class="st0" d="M501.5,842.3c-2.1-1.9-4.8,0-6,2-.2.4-.2,3.3,0,4l2,2c1.3,4.4.9,7.1,4,12l4,4c.8.2,3.2.2,4,0,4.2-2.8,6.3-7.5,8-12,.2-1.2-.2-2.7,0-4l2-2c.1-.4.1-1.6,0-2l-2-2c-1.8-.3-4.1.3-6,0l-6-2c-1-.2-2.8-.1-4,0Z"/>
  <path class="st3" d="M263.5,88.3c-2,2.2.8,12.5,5,14l25,14c.8-7-4.5-11.7-9-16l-21-12Z"/>
  <path class="st0" d="M319.5,276.3c1.4,1.2,13.7,2.1,16.6,1.6s13.3-5.8,13.4-8.6c.2-5.4-21.2-2.8-26,0s-5.6,5.6-4,7Z"/>
  <path class="st0" d="M505.5,880.3c-.6.2-1.6-.3-2,0l-2,2c-1.4,2.2-1.3,4-2,6-1.1,1.3-1.2,2.7,0,4,0,1.2-.3,3.1,0,4,3.9,5.6,7.9,6.9,12,4,.2-.6-.2-1.4,0-2l2-2c1.9-3.4,2.4-6,2-10-1.6-4.5-5.5-8.5-10-6Z"/>
  <path class="st0" d="M613.5,634.3c-1,.9-1.1.9-2,2-1.4,1.1-1.6,2.9,0,4,.9,1,1.3,1.3,2,2l2,2c.3.5-.2,1.4,0,2l2,2c.9,3.8-1.1,7.1,2,12l2,2c4.8,1.1,3.9-.5,4-4,3.7-12.5,1.4-22.7-12-24Z"/>
  <path class="st0" d="M491.5,908.3c-1,.8-1.1.8-2,2l-2,2c-.3,2.5-.4,7.7,0,10l2,2c1.4.3,4.5.2,6,0l2.4-1.1c12.3,5.1,2.4-19.9-6.4-14.9Z"/>
  <path class="st0" d="M475.5,720.3c-4.9,1.2-9.2,10.1-7.9,14.9s1.8,1,1.9,1.1c1.4,1,2.6,1.2,4,0,2.6-1.8,2.3-2.1,4-4l2-2c.8-1.1,1.3-2.7,2-4,1.4-1.1,1.5-3.1,0-4-.4-.5.3-1.5-2-2-1.3-1.6-2.7-1.6-4,0Z"/>
  <path class="st0" d="M421.5,392.3c5.4,4.4,24.5-11.6,20-16-5.1-5-21.2,15-20,16Z"/>
  <path class="st0" d="M413.5,324.3c-2.6-2.8-13.6,9.5-9.1,16.1.4.6,5.7,3.9,6.1,3.9,3.9.2,3.7-19.2,3-20Z"/>
  <path class="st0" d="M327.3,738.6c-.4-.4-10.2-4.3-10.7-4.3-2.5,0-3.6,6.2-2.9,8.9,1.1,3.9,17.2,8.1,15.8.3s-2-4.7-2.2-4.9Z"/>
  <path class="st0" d="M245.5,304.3l12,22c-.6-6.1,3.4-10.1-.3-15.7l-11.6-6.3Z"/>
  <path class="st0" d="M217.5,388.3c2.7-2.7-5.6-12.9-9-12-10.1,2.8,5,16,9,12Z"/>
  <path class="st0" d="M493.5,598.3c-1.9-3.2-10-2.5-13-2s-6.4,4.7-6.9,4,.8-4.7-.2-5.8-2.6-.4-3.7-1.3c-2.8-2.3-4.8-5.5-8.1-7,2.9,1.9,8.3,15.1,11.1,15.9,4.5,1.3,5.9-3.4,9.9-4s8.7-.4,11.1,0Z"/>
  <path class="st0" d="M493.5,626.3c-.8,1.6-8.1,8-6,10s7.6-3.2,9.3-3.7c3.8-1.1,8.7.1,12.7-.3-.2-.2,0-1.7-2.9-2-5.9-.8-14.8,3-13.1-4Z"/>
  <path class="st0" d="M505.5,702.3c-3.7.3-3.2-.5-6,2-1.2.9-.5,2.2,2,4,1.3.3,4.7.3,6,0l2-2c1.2-.3,3.1.4,4,0l2-2c.5-.3,1.7.3,2,0,1.1-.5,1-1.2,0-2-.2-.2-1.3,0-2,0-2.7-1.7-7.4-1.7-10,0Z"/>
  <path class="st0" d="M463.5,780.3l-2,2c-.1.5,0,1.5,0,2l2,4c.5,1.2-1.2,3.8,2,4l2-2c.5-3.2.5-10.8,0-14-.6-1.2-1.3-1.2-2,0-2.3,2.4-1.3,2.5-2,4Z"/>
  <path class="st0" d="M287.5,262.3c-3.1,2.9,8.4,11.3,12,8s-10.7-9.2-12-8Z"/>
  <path class="st0" d="M557.5,630.3c9.8-1.2,8.2,6.4,8,14,0-.1,1.4-.3,1.7-1.4,1.3-4.4-2-7.8,4.3-6.6-.3-.1-3.8-4.7-3.8-5,0-.9,3.6-3,3.8-5-1.8.9-4.6,2.8-5.9,3.1-2,.5-3.5-1-5.2-1.1s-2.6,1.9-2.9,2Z"/>
  <path class="st0" d="M389.5,352.3c-.2.2-.2,5.8,0,6,.4.4,9.6-1.7,10-2,5.1-4.1-8.6-5.3-10-4Z"/>
  <path class="st0" d="M619.5,626.3l4,2c.6,0,1.5.1,2,0l2-2c.1-.5,0-1.3,0-2,1.4-1.3,1.5-2.9,0-4-1.8-1.8-8.9.7-8,6Z"/>
  <path class="st0" d="M579.5,666.3c-.8,1.2-8.7,4.8-6,8s8.5-3.9,12-2c-1.7-.9-5.3-3.9-6-6Z"/>
  <path class="st0" d="M411.5,664.3c3.9-3.6,6.9.3,11.1.1,2.7-.1,2.8-2.1,2.9-2.1-4.7,1.9-8.3-4.7-11-4s-2.5,5.1-3,6Z"/>
  <path class="st0" d="M513.5,962.3c-.2,1-.2,3.2,0,4l2,2c1,1.5,1.6,4.1,4,4,1.4-.7,1.4-2,0-4-1.5-3.7.2-3-4-6-.6-1.1-1.3-1.1-2,0Z"/>
  <path class="st0" d="M613.5,634.3l11.8,6.2c.2,5.9.4,11.9.2,17.8,3.2-2.6,2.7-13.6,1.8-16.8s-7.6-7.1-9.7-8.3c-4.1-2.2-2.8,0-4,1Z"/>
  <path class="st0" d="M257.5,218.3c.1.2,3.8.1,4,0,.5-.4-4.4-11.9-6-10s1.5,9.4,2,10Z"/>
  <path class="st0" d="M491.5,908.3c9.4-1.5,8.4,7.8,12,13-.7,1.9-4.2.8-6.6,1.4s-1.3,1.6-1.4,1.6c3-1.7,9.7,2.4,10,2,1.7-2-4.4-17.2-7.9-19.1s-4.2-.5-6.1,1.1Z"/>
  <path class="st0" d="M579.5,664.3l1.8-1.2c2.4-5-1.4-10.7-1.8-12.8-.3,4.5.5,9.6,0,14Z"/>
  <path class="st0" d="M437.5,658.3c4.9-1.9,6.7-4.7,9.3-5.7,5.3-1.9,11.9-1,14.7-8.3-5.4-.1-5.7,4.5-9.3,5.7s-4.4,0-6.7,1.3-5.7,5.4-8,7Z"/>
  <path class="st0" d="M471.5,646.3c3.3.3,6.7-.2,10,0-1.2-.3-4.5-4.1-8.9-1.8l-1.1,1.8Z"/>
  <path class="st0" d="M505.5,880.3c5,.3,7.5,2.1,10,6-.5-4.6-4.1-9.2-9-8s-.9,1.9-1,2Z"/>
  <path class="st0" d="M511.5,900.3c-5.3,1-8-1-12-4,.5,1.8,6.3,7.9,7,7.9s4.6-2.4,5-3.9Z"/>
  <path class="st0" d="M505.5,702.3c3.1-.2,6.9-.2,10,0l-1.1-1.8c-2.6-.4-5.2-.4-7.7,0l-1.1,1.8Z"/>
  <path class="st0" d="M559.5,610.3c12.2-1.3,10.4-2.2,14-14-7.1,4-.8,13.4-12.8,12.3l-1.2,1.7Z"/>
  <path class="st0" d="M509.5,866.3c5.9-1.5,7.1-7.3,8-12l-8,12Z"/>
  <path class="st0" d="M505.5,842.3c.5.1,2.4,1.4,6,2l-1.2-1.8-4.8-.2Z"/>
  <path class="st0" d="M627.5,624.3l2-1v-2s-2-1-2-1c.2.2,0,2.8,0,4Z"/>
  <path class="st0" d="M495.5,844.3c.5-.9,4.4-1.9,6-2l-1-2c-2.4-.5-4.4,1.6-5,4Z"/>
  <path class="st0" d="M611.5,640.3v-4c-.3.4-2.7,0-2,3s1.8.8,2,1Z"/>
  <path class="st0" d="M487.5,830.3c3.8-4,.4-3,0-4v4Z"/>
  <path class="st0" d="M573.5,686.3c2.4-.9,3.8-1.9,4-2l-2.8.2-1.2,1.8Z"/>
  <path class="st0" d="M619.5,626.3c.5,2.9,1.7,1.8,4,2l-1.2-1.8-2.8-.2Z"/>
  <path class="st0" d="M519.5,972.3c4.9-.1.1-3.7,0-4v4Z"/>
  <path class="st0" d="M583.5,684.3c.2,0-.5,1.8,4,2l-1.2-1.8-2.8-.2Z"/>
  <path class="st0" d="M563.5,684.3v-4c0,.2-2.4.9-1.8,2.6s1.8,1.3,1.8,1.4Z"/>
  <path class="st0" d="M475.5,720.3c.8-.2,3.2-.2,4,0l-1-2h-2s-1,2-1,2Z"/>
  <path class="st0" d="M481.5,726.3c0-.2,2.7-.2,2-2.9s-1.9-1-2-1.1v4Z"/>
  <path class="st0" d="M455.5,586.3c1.2-.1,2.9-.2,4,0l-1-2h-2s-1,2-1,2Z"/>
  <path class="st0" d="M499.5,892.3v-4c0,.3-4.3,1.8,0,4Z"/>
  <path class="st0" d="M463.5,788.3l-.2-2.8-1.8-1.2c.5,3.7,1.7,3.4,2,4Z"/>
  <path class="st0" d="M469.5,736.3c3.7,3.8,2.1,1.4,4,0h-4Z"/>
  <path class="st0" d="M497.5,648.3c.2,0-.5,1.5,4,2l-1.2-1.8-2.8-.2Z"/>
  <path class="st0" d="M501.5,882.3l2-2c-1.1.8-1,.4-2,2Z"/>
  <path class="st0" d="M505.5,866.3l-4-4c1.2,1.9,1.2,3.3,4,4Z"/>
  <path class="st0" d="M511.5,898.3c1.5,0,1.5-1.1,2-2-1.5-.2-1.6.8-2,2Z"/>
  <path class="st0" d="M555.5,630.3l-4-4c1,2,1.4,3.4,4,4Z"/>
  <path class="st0" d="M487.5,912.3c1.7,0,1.6-1.4,2-2-1.2.2-1.8.8-2,2Z"/>
  <path class="st0" d="M497.5,850.3l-2-2c.6,2.6,2,1.9,2,2Z"/>
  <path class="st0" d="M517.5,850.3c0-.1,1.1.6,2-2l-2,2Z"/>
  <path class="st0" d="M489.5,924.3l-2-2c.3,1.8.3,1.7,2,2Z"/>
  <path class="st0" d="M513.5,962.3h2c-.2-.1-1.3-4.2-2,0Z"/>
  <path class="st0" d="M519.5,846.3c-.5-1.4,0-1.6-2-2l2,2Z"/>
  <path class="st0" d="M515.5,968.3l-2-2c.5,1.9,1.9,1.8,2,2Z"/>
  <path class="st0" d="M457.5,844.3c2.8-1.9,2.8-2.8,4-4l-4,4Z"/>
  <path class="st0" d="M625.5,628.3c1.7-.5,1.5-.3,2-2l-2,2Z"/>
  <path class="st0" d="M447.5,838.3l4-4c-2.1,1.6-3.7,3.9-4,4Z"/>
  <path class="st0" d="M495.5,616.3c.1-.3,3.4-.8,4-4l-4,4Z"/>
  <path class="st0" d="M457.5,828.3l4-4c-.6.7-2.5,2.3-4,4Z"/>
  <path class="st0" d="M465.5,792.3c1.9.1,1.8-.5,2-2l-2,2Z"/>
  <path class="st0" d="M461.5,782.3l2-2c0,.1-1.4-.5-2,2Z"/>
  <path class="st0" d="M615.5,644.3c-1.1-2.2-1.7-1.7-2-2l2,2Z"/>
  <path class="st0" d="M465.5,776.3h2c-.6-4.2-1.4-.6-2,0Z"/>
  <path class="st0" d="M477.5,732.3c.4-.5,1.1-.8,2-2l-2,2Z"/>
  <path class="st0" d="M501.5,708.3l-2-4c-.2.1-2.1-.3-2,1s2.6,2.7,4,3Z"/>
  <path class="st0" d="M513.5,706.3c2.5-1,1.9-1.9,2-2l-2,2Z"/>
  <path class="st0" d="M517.5,704.3l2-1-2-1c0,0,0,1.9,0,2Z"/>
  <path class="st0" d="M621.5,662.3l-2-2c.6,1,0,1.5,2,2Z"/>
  <path class="st0" d="M559.5,656.3c2.3-.4,3.2-2,4-4-2.4.4-3.1,2.1-4,4Z"/>
  <path class="st0" d="M617.5,648.3l-2-2c.9,2.4,2,1.9,2,2Z"/>
  <path class="st0" d="M507.5,708.3c2.5-.5,1.9-2,2-2l-2,2Z"/>
  <path class="st3" d="M227.5,1046.3v107c-2.9,6.4-4.2,13.8-8.3,19.7-10,14.7-53.1,29.6-70.4,37.6-1.1.5-3,1.8-3.3,2.7s6.3,11.3,7.6,14.4c2.3,5.6,4.6,12.5,4.5,18.6,29.1-1.9,57.4-11.7,86.8-12.2,1.5-.6,2.3-1.6,2.9-3.1,2.5-6.4,2.4-15.1,5.2-22.8,5.6-15,17-28.3,32.5-33.6,4.4-1.5,5.8,1.1,4.5-7.3-6.4-41,13.1-81.6,18-122.1.2-1.6.3-6.7,0-7-1.3-1.3-21,5.3-25,6-4,.7-12.1,1.7-16,2-12.7.9-26.2-.6-39,0Z"/>
  <path class="st0" d="M221.5,876.3c-6.6-.5-38.3-1-42.1.9-3.6,1.8-7,10-5.9,14,1.4,4.9,17.6,3.1,22.9,3.1s9.3-1.5,11,2c4,15.8,9.7,31.8,18.2,46.6-8.7,13.5-13.9,25.9-13.2,42.4-1.2,1.9-16.5,1.9-19.5-.3l-3.5,3.4c-5.6,0-8.7,1.7-8,7,1,7.8,5.8,12.8,12,17s0,1.7,2.9,2.1c16.7,2,42.5-.2,45.1-21.1,1-8-1.7-21,.3-27.7,1.3-4.4,16.2-14.1,17.5-18.5,5.1-17.5-12.2-16.8-16.8-28.7-5.3-13.7,1.8-30.2-11-39s-5.7-2.7-9.9-3.1Z"/>
  <path class="st0" d="M201.5,712.3c-1.7-1.6-10.5-9.5-11.2-9.8-9.6-2.9-5.9,2.5-6.8,8.7s-2.4,5.5-2,10,4.2,6.2,6,9c-1.5.6-1.7,1.5-1.4,2.8,5.5,27.6,7.3,40.7-7.2,67.2l.7,2c-.3.3,0,1.6-1.2,1.8s-8.4-2.3-8.9,1.3c-.6,4.6-1.3,41.2,0,42.9,2.1,2.5,6.4-4.6,8-6,2.5-2.2,10.6-10.4,11.9-11.1,8.4-4.3,11.8,5.9,18.6,9.5s8.4,3.5,10.5,3.6c9.6.7,24-13.5,24.9-23.1s-4.9-20.4-13.3-22.7c-7.8-2.1-3.5,3.2-5,8.5-1.3,4.6-6.5,6.8-10.8,3.3-7.4-6.1-.2-22.7,1-31.1,2.8-20.3,1.6-52.3-14-67Z"/>
  <path class="st3" d="M189.5,988.3c2.7,0,4.8,1.9,7,2,27,1.4,18.1-3.2,21.4-22.6s11.4-20.6,11.7-24.4c.5-5.5-8.7-16.4-11.2-23s-2.3-22.3-11-24c-3.4-.7-22-.4-24.1.9s-1.3,1.4-1.7,2.3c.8,17.4-1.7,36.6-.1,53.8.5,5.2,3.1,12.7,3.9,18.1s-1.9,11.5,4,17Z"/>
  <path class="st3" d="M151.5,1248.3c0-18-20.5-46.1-39-46.1-11.4,0-31.2,13.7-36,24-8.7,18.6-.5,17.7,14,20,2.2.4,3.8,2,4,2h57Z"/>
  <path class="st3" d="M71.5,1250.3c-.5.5-.2,6.5.9,8.1s16.4,5.2,20.2,5.8c49.3,7.9,106.7-5.5,156-11.9s17.1-.5,25.9-2.1c3.9-.7,18.1-3.9,18.9-7.1s.4-6.6.1-6.9c-.5-.4-10.9-.1-13,0-59.8,5.2-123.5,26-184,19.9-4.2-.4-24.1-6.9-25-6Z"/>
  <path class="st3" d="M253.5,1232.3c2.3,2.3,33.8-6,40-4,.3-7.4,2.8-13.4,2.1-21.1-.3-3.2-1.8-5.5-2-7.9-1.1-11.3,4.2-24.1-12-15.9-9.7,5-19.5,18.6-23.2,28.8s-5.7,19.4-4.9,20.1Z"/>
  <path class="st3" d="M187.5,1038.3c-.6.6-.5,17.3,0,17.9,2.9,2.8,14.4,1.7,18.9,2.1s13,5.4,14.9-1.2c4.7-16.6-11.7-12.9-22.4-15.2s-10.4-4.7-11.4-3.6Z"/>
  <path class="st3" d="M189.5,1084.3c-.6.6-1.1,15.3,3.2,15.8,6.1-1.5,26.5,6.5,28.7-1,.5-1.7.6-12.4.2-12.8s-13.9.3-17.1,0-13.3-3.8-14.9-2.1Z"/>
  <path class="st3" d="M221.5,1078.3c.4-.4.4-11.6,0-12-.7-.7-15.4.2-19,0s-11.2-3.9-13-2-.4,14,3,14,28,1,29,0Z"/>
  <path class="st3" d="M191.5,1106.3c-.5.5-.5,13.5,0,14s10.2-.3,13,0c4.1.4,15,5.4,16.9-1.2s.6-10.5.2-10.8c-.7-.7-17.1.3-21,0s-7.6-3.4-9-2Z"/>
  <path class="st3" d="M177.5,1170.3c6.1-.7,16.5,10.5,20.7,9.8s14-9.5,11.3-11.8-22.2-6.4-25-6.1-7.5,4.3-7,8.1Z"/>
  <path class="st3" d="M193.5,1128.3c-.6.6.4,9.5,0,12,4.8-1.5,23.7,4.3,26,2s.5-13.5,0-14c-.9-.9-25.1-.9-26,0Z"/>
  <path class="st3" d="M191.6,1156.3c1.7,1.5,24.5,7.7,25.9,6s2.2-10.2,2-10.9c-1.3-4.7-11.1-2.7-14.9-3.1s-5.9-3-9.9-1.9-4,9.1-3,9.9Z"/>
  <path class="st3" d="M161.5,1180.3c5-.2,9.6,6.7,13.3,7.7,6.6,1.9,21.1-1.5,11.5-7.5-6.6-4.1-23.3-12.4-24.7-.3Z"/>
  <path class="st3" d="M123.5,1194.3c-1.1,5.2,1.3,3.3,3.9,5s7.6,6.2,9.4,6.7,12.2-1.4,12.7-1.8c3.6-3.1-10.5-11.1-13.3-11.7-5.2-1.1-8,.7-12.7,1.7Z"/>
  <path class="st3" d="M152.2,1182.5c-3.2-.6-8.7,3-8.7,4.8s13.1,10.4,15.3,10.8,10.7-2.8,10.6-4.8-14.7-10.3-17.3-10.8Z"/>
  <path class="st3" d="M479.5,1050.3c-1.7,1.4,1.8,8.8,2,11,2.5,31.9,6.4,64,8.1,95.9,1.2,20.9-2.1,30.7-11.7,48.5-2.5,4.6-18.8,27.8-18.3,29.5.9,3,15.6,14.6,18.9,19.2,2.7,3.8,5.7,17.3,10,15.9l26.2-17.8c1.3-20,.6-40.6,11.9-58.1,3.3-5.1,7.9-4.4,6.9-13-1.7-15-4.9-26-4.1-42.1,1.4-27.8,6.4-56,8-84,.2-3.3.8-20.2,0-21s-4.5.3-6.1.9c-11.6,4.1-23.3,9.6-35.3,12.7-3,.8-15.9,1.9-16.6,2.4Z"/>
  <path class="st3" d="M479.5,1274.3c1.1-.9-5.6-14-7.1-15.9-16.3-23-47-30.7-73.5-23.6-12.7,3.4-18.1,9.1-23,21-1.8,4.3-6,15.1-3.5,18.7,6.3,8.8,63.8,8.4,76.1,7.8l31-8Z"/>
  <path class="st3" d="M369.5,1282.3c-.3.3-.3,7.3.2,8.8,1.1,3.8,22.1,8.4,26.9,9.1,35.5,5.7,70.7,2.3,102.3-15.6s39-24.8,40.4-29.6.6-10.3.2-10.7c-1.3-1.5-21.5,15.1-24.1,16.9-39.2,26.9-77.1,36.2-124.9,27s-20-7-21-6Z"/>
  <path class="st3" d="M413.5,1050.3c0,5.3,1.4,11.2,2.5,16.5,6.8,35.4,17.3,70.4,21.6,106.4-6.1,21.1-21.9,37.2-36.1,53.1,9.5,1.6,6.5-1.1,9.9-5,7.2-8.2,16-16.9,21.8-26.2,8.5-13.6,9.5-23.7,8.2-39.7-2.1-26-11.3-52-12-78-3-5.2-2.2-25.5-7.1-26.9s-6,.1-8.8-.2Z"/>
  <path class="st3" d="M431.5,1052.3c-2,2,3,14.3,2,18,5.6-.3,11.5.5,17.1,0s5.4-1.7,8-2c4.3-.5,13.4,1.8,14.8-3.2s.6-12.4.2-12.8-14.2-.2-17,0-4.8,1.9-8,2.1-15.3-3.8-17-2.1Z"/>
  <path class="st3" d="M435.5,1076.3c-.8.7,1.4,15.2,2.1,15.9s12.5.4,15,.1,5.4-1.7,8-2c4.2-.5,13.4,1.8,14.8-3.2s.6-12.4.2-12.8c-1.9-2-13.5,1.9-16.9,2.1s-22.3-.9-23.1,0Z"/>
  <path class="st3" d="M439.5,1098.3c-.9.9.6,14.3,2.1,15.9s30.9-4.1,35.9-3.9c-.4-2.7.7-13.3,0-14-2.1-2.1-17.1,1.8-20.9,2.1s-16.5-.7-17.1,0Z"/>
  <path class="st3" d="M443.3,1121c-.4.4,0,9.2.4,11.1,1.6,9.1,10.6,2.9,15.2,2.4s17.9.1,20.8-2.9-.8-11.1-.4-13.9l-35.9,3.4Z"/>
  <path class="st3" d="M523.5,1244.3c1.5,1.6,11.1-6.7,14-7,5-4.8.5-12.9,0-18.1-.8-7.7-.4-15.3-2-23-11.2,2.2-14.5,45.3-12,48Z"/>
  <path class="st3" d="M445.5,1142.3c-.4.4,1.8,3,2,5s-.4,8.6,0,9c1.1,1.1,30.6,0,32.1-.9,2.6-1.8,2.5-14.5,1.9-15.1s-12.6-.3-15.1,0-5.5,1.8-8,2-12.3-.5-13,0Z"/>
  <path class="st3" d="M452.5,1162.3c-3.7,1-3.7,13.3-3,14s13.6-.2,17,0,13,4,15,2,.8-16,0-16c-7,0-23.8-1.4-29,0Z"/>
  <path class="st3" d="M441.5,1194.3c.5.5,10.1-.3,13,0s19.4,5.6,21,3.9,5.1-13,4.1-13.9-10.1.3-13,0c-5.6-.6-11-3.6-17.8-1.7-3,.9-8.8,10.3-7.2,11.7Z"/>
  <path class="st3" d="M431.5,1210.3c.6.5,8.3-.3,11,0,4.1.6,18.6,6.2,19.9,5.9s8.4-10.8,7.2-11.9-16.8-3.7-19-4c-3.8-.4-9.8-.7-13,.9s-7.7,7.5-5.9,9Z"/>
  <path class="st3" d="M419.5,1224.3c5.6.9,13.4,1.1,18.6,2.4s11.7,5.4,12.4,5.4,7.6-6.5,7-8.7c-1.2-4.1-24.4-7.7-29.1-7s-7.2,4.7-8.9,8Z"/>
  <path class="st3" d="M420.3,910.6c-7.3-2.1-28,1.2-35.7,3.8s-6.1,4.5-4.7,10.7c4,17.6,17.2,35.7,21.7,56.3.9,4.3,0,19.3,5.2,20.8s23.6.7,27.5-.2c11.9-2.6,9.8-14.9,9.3-24.6-.1-2.4-2.3-4.6-2-7.9s3.7-10,4.1-14.2c1.1-11.4-8.6-16.5-13.7-24.2s-6.6-19.1-11.5-20.5Z"/>
  <path class="st3" d="M81.5,776.3c-2.2,2.2,6.9,19,7.6,23.4s-.4,9.7.6,13.4,11.7,9.3,13.8,7.2.3-12.7,0-15c-.7-5.3-6.2-14-7.6-20.4s0-8.3-.4-8.6c-.5-.5-13.5-.5-14,0Z"/>
  <path class="st3" d="M111.5,812.3c19.8-.8,2.3-22.1.4-33.4s.3-19.9-.4-20.6-8.8-.4-9.8,3.2c-4.1,14.4,7.9,36.3,9.8,50.8Z"/>
  <path class="st3" d="M249.5,136.3c-.6.6,1.8,14.2,2.4,16.6,4.1,15.5,15.4,25.9,32.2,23,13.9-2.4,11-14.4,4.3-23.5s-35.7-19.3-38.9-16.1Z"/>
  <path class="st3" d="M180.2,802.2c4.8-.5,8.5-10.6,10.1-14.9,3.8-10.8,5.6-21.5,4.8-33-.3-5.4-1-11.1-2.6-16.2-2.9-9.1-6.9-11.4-9.6-.6-1.9,7.8-10.5,63-2.7,64.7h0Z"/>
  <path class="st4" d="M323.5,482.3c-5.1,5.1,13.9,16,17.4,17.6,22.1,9.7,50.6,9.1,72.6-.5,10-4.4,19.5-13.4,26-22s3.1-7.8,1.9-9.1c-1.8-2-5.7,2.9-7,4-4.8,4.2-9.2,10.3-14,14-17.3,13.6-42.8,15.7-63.7,11.6l-33.4-15.6Z"/>
  <path class="st3" d="M559.5,526.3c4.3,3.8,18.4-10.9,21-14s5-5.8,3-8-11.9,9.6-15,10c-2.1,1.3-9.9,11.2-9,12Z"/>
  <path class="st3" d="M161.5,510.3c-3.8,3.1,2.7,4.2,4,4.9,3.5,1.3,20.1,10.9,22,9.1,3.5-3.4-12-12.9-15.3-13.7s-10.1-.8-10.7-.3Z"/>
  <path class="st0" d="M404.4,128.4c-2.8-.8-12,3.3-15.9,3.9-13.3,2.2-26.3,2.3-38.9,9.1s-22.3,23-17.1,33,32.7,11.1,42,9.9c17.1-2.2,31.5-22.4,33.1-38.9.4-3.9,1-15.9-3.2-17Z"/>
  <path class="st0" d="M324.1,208.7c-6.6-.6-15.1-1-21.7-.5-8.9.7-16.7,2.6-21.9,10.1-8.5,12.5,3,24.6,14.9,29,13.4,5,45.8,4.9,56.1-6,9.9-10.4,6.8-22.2-6-28.1-5.5-2.5-15.5-4-21.5-4.5Z"/>
  <path class="st0" d="M316.4,158.4c-2.9-.8-3.9.1-5.9,1.8-4.8,4.1-17.5,29-17.1,35.1s3.1,6.1,5.4,6.8c5.5,1.6,32.7,1.5,34.6-4.9s-11.6-37.1-17-38.7Z"/>
  <path class="st0" d="M181.6,822.3c1.4,1.7,9.9-2.3,12.9-2.1s8.5,1.9,9.8,2.4c7.5,3,7.4,14.3,19.3.7-.7-2-4.4-.7-6.6-1.3-11.6-3.5-7.6-6.2-12.3-11.7-1.1-1.2-11-7.6-12-7.6s-12.5,7.4-12.9,8.8,1.6,10.4,1.9,10.8Z"/>
  <path class="st0" d="M203.5,754.3c-2.5,2.9-3.6,24.2,1,24,7.7-.3,5.7-31.6-1-24Z"/>
  <path class="st0" d="M191.5,718.3c-2.7,2.6,5.7,11.9,7,12,7.1.3-1.6-17.1-7-12Z"/>
  <path class="st0" d="M255.5,146.3c-.2.2-.2,5.8,0,6,.9.8,13.2-.8,14,0s-2.5,14.4,3.1,15.9,9.7-5.3,11.9-5.4,7.8,5.2,4.2-4.6-10.3-11.1-16.1-11.9-16.4-.6-17,0Z"/>
  <path class="st3" d="M297.6,544.4c.3,7.1-9.4,27.6-8,32.9s4.4,3.8,6.9,3,2.3-8.8,10.1-8c6.1.6,5.6,6.3,7.2,7.9s9.5.5,9.8.2c1.3-1.3-8.8-34.6-10.1-35.9s-12.8.4-15.8,0Z"/>
  <path class="st3" d="M399.5,136.3c-14.5,4-34,4-46.7,12.3-2.4,1.6-12.5,11-13,13-2.9,10,1,12,9.2,14.3,30.5,8.5,53.7-7.2,50.6-39.6Z"/>
  <path class="st3" d="M332.1,216.7c-8-1.1-31.9-1.7-39.2,0-10.4,2.2-12,14.3-3.3,20.6,8,5.9,28.8,8,38.5,6.6,25.3-3.6,31.3-23.3,4-27.1Z"/>
  <path class="st3" d="M314.5,166.3c-2.4,0-14.2,22.4-13,26.9s19.2,4,22.9,3,2.7-1.7,2.1-3.9c-1.2-4.1-9-26-12-26Z"/>
  <path class="st0" d="M343.5,166.3c.5.6,8.5-5.7,9.9-4s.5,5.2,4,7c14,7.2,8.9-13.9,10.1-15.1s13.9,0,17,0,7,.9,5-3c-3-6-18.9-6-24.7-4.7s-26.3,13.9-21.3,19.7Z"/>
  <path class="st0" d="M296.7,226.6c-10.6,2.4,4,5.1,7.4,5.5,10.9,1.5,24.3,2,35.1-.9,5.4-1.7,1.5-3.6-2.4-4.4-11.1-2.1-29.3-2.1-39.9-.3h-.2Z"/>
  <path class="st0" d="M307.8,551.3h-.5s-3.6,11.5-3.6,11.5c-.7,2.2.9,4.5,3.2,4.6h0c2.3,0,4.1-2.1,3.6-4.3l-2.8-11.7h0Z"/>
  <path class="st0" d="M346.1,565.2l-5.9-1.8c-.7-.2-.7-1.3,0-1.4l6-1.2c.9-.4,1-1.7,0-2.2l-34.8-19c-2.1-1.1-4.6-1.3-6.8-.3l-36.4,15.8c-.9.4-1,1.7,0,2.2l5.8,1.8c.7.2.7,1.3,0,1.4l-5.9,1.2c-.9.4-1,1.7,0,2.2l5.4,1.6c.7.2.7,1.3,0,1.4l-5.5,1.1c-.9.4-1,1.7,0,2.2l34.8,19c2.1,1.1,4.6,1.3,6.8.3l36.4-15.7c.9-.4,1-1.7,0-2.2l-5.5-1.6c-.7-.2-.7-1.3,0-1.4l5.6-1.1c.9-.4,1-1.7,0-2.2h0ZM322.9,580.3l-8.3-.3c-.5,0-.9-.4-1-.8l-1.3-5.3c-.1-.5-.5-.7-1-.8l-9.1-.3c-.5,0-.9.3-1.1.7l-1.7,5.2c-.1.5-.5.7-1.1.7l-8.3-.3c-.7,0-1.1-.7-1-1.3l11.4-33c.1-.5.5-.7,1.1-.7l12.3.5c.5,0,.9.4,1,.8l8.9,33.8c.2.7-.4,1.3-1.1,1.3h0s.1,0,.1,0Z"/>
</svg>