<?xml version="1.0" encoding="UTF-8"?>
<svg id="Capa_1" xmlns="http://www.w3.org/2000/svg" version="1.1" viewBox="0 0 894.3 262.8">
  <!-- Generator: Adobe Illustrator 29.0.0, SVG Export Plug-In . SVG Version: 2.1.0 Build 186)  -->
  <defs>
    <style>
      .st0 {
        fill: #2b00ff;
      }

      .st1 {
        fill: #0e0e0e;
      }
    </style>
  </defs>
  <path class="st0" d="M212.2,118.1c-1.7-18.5-4.9-38.9-12.5-56s-16.1-28.6-28.9-30.1c-24.2,1.6-51.1-2.1-75,0-19.8,1.8-29.3,18.6-35.5,35.5s-8.6,32.7-10,49.5c-4,.4-9.3-1.2-12.4,2.1-4.3,4.6-3.6,23.9,3,24.9s9.2-.9,10.3,2.7.7,10.6,1.4,14.6c3.8,21.2,16.4,63.7,42.2,65.8,17.3,1.4,35.8-.4,53-1.1,22.7-.8,34,3.7,47.3-18.7,11.6-19.4,16.3-45.1,17.2-67.3,4.5-.2,9.1.3,13.5,0,87.6-5,179.1-2,266.9,0,52.9,1.2,106.2,1.3,159,4,5.1.3,10.4-.3,15.5,0,1.9,33.6,12.5,84.6,53.5,88,11.5.9,42.3,1.6,52.9,0s14.8-8.2,18.5-12.5,3.5-6.3,5.5-7.5,5.2-1.1,7.8-2.2c17.7-7.3,26.4-42.4,28.8-59.7,2.1-1.4,9.2,5.1,14.1-4.4,2.5-4.8,2.2-10.9.5-15.9-2.9-8.6-12.4-4.4-13.8-6.3-2.7-19.1-6.6-47.2-23.4-59.4-3.8-2.8-7.9-2.4-10.1-3.9s-3-4.9-4.4-6.6c-4.4-5-11.6-12.2-18.2-13.8-10.3-2.6-27.3-1.4-38.3-1.7s-13.6-1.7-20.9-.9c-34.2,4-49.4,57.2-51.6,85.9-24.5-.5-49-.4-73.5-.9-100.9-2.1-201.9-4.7-302.9-4-26.5.2-53-.2-79.5,0Z"/>
  <path class="st1" d="M212.2,118.1c26.5-.2,53,.2,79.5,0,101-.7,202,1.9,302.9,4,24.5.5,49,.5,73.5.9,2.2-28.7,17.5-81.9,51.6-85.9,7.3-.8,14.1.7,20.9.9,11,.3,28-.9,38.3,1.7s13.8,8.8,18.2,13.8,3.1,5.6,4.4,6.6c2.2,1.6,6.3,1.2,10.1,3.9,16.8,12.2,20.7,40.3,23.4,59.4,1.4,2,11-2.2,13.8,6.3s1.9,11.1-.5,15.9c-4.9,9.5-12,2.9-14.1,4.4-2.5,17.3-11.1,52.3-28.8,59.7-2.6,1.1-5.7.9-7.8,2.2s-3.7,5.6-5.5,7.5c-3.8,4.3-12.9,11.6-18.5,12.5-10.7,1.7-41.4,1-52.9,0-41.1-3.4-51.6-54.4-53.5-88-5.1-.2-10.4.3-15.5,0-52.8-2.7-106.1-2.8-159-4-87.8-2-179.3-5-266.9,0-4.5.3-9.1-.3-13.5,0-.9,22.3-5.6,48-17.2,67.3-13.4,22.4-24.6,17.8-47.3,18.7-17.2.6-35.7,2.5-53,1.1-25.8-2.1-38.4-44.7-42.2-65.8s-.6-11.8-1.4-14.6-7.7-2.2-10.3-2.7c-6.6-1.1-7.2-20.4-3-24.9,3.1-3.3,8.4-1.7,12.4-2.1,1.4-16.8,4.2-33.6,10-49.5s15.7-33.7,35.5-35.5c23.9-2.1,50.8,1.6,75,0,12.8,1.5,24.1,19.3,28.9,30.1,7.6,17.1,10.8,37.4,12.5,56ZM132.2,223.1c10.7-.6,20.6.7,28-8.5,29.4-36.4,27.7-126.3,2.8-164.8-7.8-12.2-18.6-16.9-32.8-13.2,18.7,17.6,26.3,47.1,29,72,4,38-.3,85.3-27,114.5ZM159.2,222.1c12.1.9,20.2-.9,28-10.5,28.7-35.5,26.8-123.7,1.9-160.8-8.6-12.8-18.1-15.9-33.3-15.7l-.5,2c7.1,3.3,12.3,11.9,15.7,18.8,19.7,39.9,21,109.8-.2,149.2l-11.5,17ZM55.2,145.1c1.1,20,5.8,42,16.2,59.3,9.6,16.1,25.5,27.8,40.8,10.2,30.1-34.8,29.7-132.4.5-167.5-9.4-11.3-20.6-14.3-32.5-4.5-18,14.8-23.1,51.3-25.7,73.1.5,2.9,6.7.2,8.7.4,1.7-16,6.6-49.9,21.7-58.8,13.2-7.7,22.8,5.5,27.5,16.2,13.2,29.9,13.6,82.3,1,112.4s-19,27.8-33.2,10.8-14.4-34.2-16.5-50.5l-8.6-.9ZM110.2,223.1c14.8,2.3,22.9-4.7,29.8-16.7,22-38,21.1-110.9.7-149.3-7-13.3-16.8-24.4-33.5-20.5,5.4,5,10,9.8,13.8,16.2,19.4,32.4,21,87.4,12.9,123.5-3.9,17.3-11.3,34-23.7,46.8ZM680,123c3.4-20,8.4-49.7,26.2-62.3,9.7-6.9,22-4.3,29.5,4.4,22.8,26.7,20.7,86.4,8.5,117.5-5.5,14.2-16.8,34.1-35,27.9-21.1-7.2-29.1-46-29.5-65.5-1.1-1.6-8.8-1.9-8.6,1.6,1.5,27.8,15.1,86.7,53.3,80.2s13-7.1,17.3-11.7c31.5-34.9,34-116.3,8.9-154.9-23.9-36.7-53-14.9-66.6,16.2-6.2,14.3-10.7,31-10.8,46.7h6.9ZM734.2,227.1h16.5c1.2,0,8-4.5,9.4-5.6,38.3-29.8,42.4-143.4,4.6-173.4-9.2-7.3-15.2-5.3-26-7-1.3.2.6,1.7,1,2,18.3,17.5,24.9,31.3,29.2,56.8,7.2,42.4,1,98.8-34.7,127.2ZM759.2,228.1c24.9,6.1,39.3-21.9,46-41.5,11.8-34.3,12.5-70.9,1.5-105.5-4.1-12.9-15.4-35.3-30.2-37.8s-8,.5-11.8-1.2c-1.3.7-.8,1.2.1,2.1,3.2,2.8,6.6,5.1,9.3,8.4,30.2,37.3,26.9,126.8-3,164l-12,11.5ZM67.2,116.1c2.2.2,2.7.2,3.8-1.7,3.2-5.4,4.6-24.1,6.9-32.1s2-6,3.1-8.9l7.2-13.3c-3.6,1.3-5.8,4.7-7.8,7.7-9.4,13.9-10.7,32.2-13.2,48.3ZM78.2,160.1c2.5,11.8,5.6,28,15.5,36,5.1,4.1,5.7,3.9,10-1,21.5-24.5,19.3-108.3-2.5-132.5s-10.4,1.3-13.5,6.5c-5.5,9.2-8.9,20.4-10.5,31,9.5-2.1,19-5.1,26,3.5s9.1,36.6,3.2,49.2-15.7,9.3-28.2,7.3ZM692.2,145.1c.2,17,3.8,40.1,15,53.5,8.9,10.6,15.9,9.9,24.4-.6,22.1-27.2,24.5-100.8,2.6-128.4-9.8-12.3-16-9.1-25,2s-12.5,24.5-14.7,36.3-2.4,13.5-2.2,14.6c.5,2.4,8,1.8,9.9,1.1,6.8-19,25.3-19,28.9,2.1s-.1,33.8-13.4,33.5c-10-.2-13.2-4.8-15.7-13.9h-9.9ZM712.2,62.1c-.9-.9-7.6,4.9-8.5,6-8.1,8.6-13.2,23.7-16,35s-3.7,15.4-3.5,18.5.5,2,1.7,2.4h3.4c1.7-22.1,7.7-45.1,23-61.9ZM801.2,207.1c9.2-2.6,15.4-13.1,19.2-21.3,12.5-27.6,13.6-62.6,5.1-91.5-2.2-7.6-10.8-26.9-18.8-29.2-1.5-.4-1.7.1-1.5,1.5.5,3.6,5.2,11.9,6.5,16.5,11.9,40.5,8.1,86.2-10.5,124ZM75.2,116.1c15.2-5,18.7,23.2,9,27.5-3.1,1.4-6.8-.8-9,2,5.7,19.1,17.9,12.8,19.9-4.1,1.3-11.4,1.3-34.4-11.2-39.2-4.3.5-9.1,9.6-8.7,13.8ZM93.2,157.1c12.9.8,13.7-21.2,13-30.5s-3.9-23.7-11.5-24.6-.3,4.3.6,6.4c5.1,11.7,5.8,26.5,2.3,38.7s-2.9,6.7-4.5,10ZM707.2,145.1c.8,12,11.8,15.4,17.5,4s4.8-32.3-5.5-35.6-10,4.5-12.1,10.1c17.7-1.6,17.2,23.9,0,21.5ZM83,139.9c3.3-6,3.1-13.7-.8-19.4l-34,.5c2.1,7,2.1,13,0,20l34.8-1.2ZM41.7,121.1c-3.7.9-3.7,16.9,1,19,5.8-2.3,3.4-20-1-19ZM213.2,135.1c74.8.4,149.6-2.2,224.5-1,83.2,1.3,166.7,5.4,249.9,7.1,6.9.1,15.4.5,22.1,0s3.3,0,4.5-1.5c1.8-5.8,2.5-10.8-4.6-11.6-22.1-2.5-49.4.7-72.1-.9-111-4.2-221.9-5.7-332.9-5-30.8.2-61.7-.2-92.5,0l1,13ZM835.2,128.1v15.5c0,.3-1.4,1.4-1,2.5l9-.5c3.8-1.9,3.8-13.2,1.3-16.6l-9.4-.9ZM71.1,145.2c-.6-.4-2,0-2.9,0,1.4,16.5,5.1,40.8,18.5,52s1.6,2.4,3.5,2c-4.3-6.3-7.9-11.8-10.5-19s-7.1-33.9-8.6-34.9ZM688.2,145.1h-4c.4,15,2.8,31.2,9.8,44.7s8.4,14.2,15.2,16.3c-16-16.4-19.4-39-21-61Z"/>
</svg>